<svg xmlns="http://www.w3.org/2000/svg" viewBox="0 0 125 125"><title>1 eyes</title><g id="eyes"><path id="Eye" d="M56.32,45.28c0,1.4-.58,2.53-1.29,2.53s-1.29-1.13-1.29-2.53,0-2.54,1.29-2.54C55.9,42.74,56.32,43.88,56.32,45.28Z" fill="#fff" stroke="#020202" stroke-miterlimit="10" stroke-width="0.75"/><path id="Eye-2" data-name="Eye" d="M72.94,44.82c0,1.51-.57,2.73-1.29,2.73s-1.29-1.22-1.29-2.73,0-2.73,1.29-2.73C72.53,42.09,72.94,43.31,72.94,44.82Z" fill="#fff" stroke="#020202" stroke-miterlimit="10" stroke-width="0.75"/><path id="undereye" d="M56.08,49.21a4,4,0,0,1-2.18,1.1c-1.14,0-2.75-.59-3-1.39" fill="none" stroke="#020202" stroke-miterlimit="10" stroke-width="0.75"/><path id="undereye-2" data-name="undereye" d="M68,49.36A7.17,7.17,0,0,0,71,50.67a3.57,3.57,0,0,0,2.58-1.58" fill="none" stroke="#020202" stroke-miterlimit="10" stroke-width="0.75"/><path id="eyebrow" d="M66.32,37.8s2-2,4-2,3,2,5,3" fill="none" stroke="#020202" stroke-miterlimit="10" stroke-width="0.75"/><path id="eyebrow-2" data-name="eyebrow" d="M60.32,38.8a12.38,12.38,0,0,0-3-2,4.71,4.71,0,0,0-6,1c-2,2-2,2-3,2" fill="none" stroke="#020202" stroke-miterlimit="10" stroke-width="0.75"/></g></svg>