<svg xmlns="http://www.w3.org/2000/svg" viewBox="0 0 125 125"><title>3 eyes</title><g id="eyes-4" data-name="eyes"><path d="M74.78,40.33a21.79,21.79,0,0,1,4.92.55,45.34,45.34,0,0,1-1.57,5.85,36.22,36.22,0,0,1-4.81.53c-.43,0-1.11,0-1.93,0a16.05,16.05,0,0,1-3.5-.26,32.64,32.64,0,0,1-2.48-5.4A40.89,40.89,0,0,1,73,40.4c.58,0,1.17-.07,1.76-.07m0-2c-.61,0-1.25,0-1.91.07C67.55,38.81,63,40,63,40.61s2.65,7.54,3.76,8.14a12.91,12.91,0,0,0,4.61.55c.74,0,1.45,0,2,0,2-.1,5.94-.45,6.27-1s2.25-6.58,2.14-8.79a21.31,21.31,0,0,0-7-1.08Z"/><path d="M49.34,40.33c.59,0,1.18,0,1.76.07a40.89,40.89,0,0,1,7.61,1.24A34.4,34.4,0,0,1,56.24,47a16.57,16.57,0,0,1-3.51.26c-.82,0-1.5,0-1.93,0l-.22,0a42.14,42.14,0,0,1-4.32-.36,46.9,46.9,0,0,1-1.81-6,21.73,21.73,0,0,1,4.89-.54m0-2a21.31,21.31,0,0,0-7.05,1.08c-.11,2.21,2.11,8.38,2.44,9s4,.76,6,.86c.58,0,1.28,0,2,0a12.91,12.91,0,0,0,4.61-.55c1.11-.6,3.76-7.53,3.76-8.14s-4.53-1.8-9.85-2.21c-.66,0-1.3-.07-1.91-.07Z"/><path d="M59.66,42.93s2.91-1,5.11,0" fill="none" stroke="#000" stroke-miterlimit="10" stroke-width="2"/><path id="Eye" d="M55.13,44.84c0,1.65-.58,1.24-1.29,1.24s-1.29.41-1.29-1.24,0-3,1.29-3C54.71,41.86,55.13,43.2,55.13,44.84Z" fill="#fff" stroke="#020202" stroke-miterlimit="10" stroke-width="0.75"/><path id="Eye-2" data-name="Eye" d="M75.34,44.3c0,1.78-.58,1.31-1.3,1.31s-1.29.47-1.29-1.31,0-3.21,1.3-3.21C74.92,41.09,75.34,42.53,75.34,44.3Z" fill="#fff" stroke="#020202" stroke-miterlimit="10" stroke-width="0.75"/><path d="M67.79,37.8s4.93-4.5,7.55-4.32" fill="none" stroke="#020202" stroke-miterlimit="10" stroke-width="0.5"/><path d="M58.21,39c-2.06-.93-6.7-4-8.78-3.47" fill="none" stroke="#020202" stroke-miterlimit="10" stroke-width="0.5"/></g></svg>