<svg xmlns="http://www.w3.org/2000/svg" viewBox="0 0 125 125"><title>1 head</title><g id="head"><path id="neck" d="M76.39,80.24s-.69-.31-.69-.9V72.5L49.11,73.82s.29,8.11-.32,8.8c0,0-3.17,2.33-2.26,4.25,1.91,4,7.39,6.43,11.55,7.1,5.15.82,12.94,0,17.42-2.88C78.4,89.23,80.33,82,76.39,80.24Z" fill="#fce7d4" stroke="#020202" stroke-miterlimit="10" stroke-width="0.75"/><path id="face" d="M80.44,55.18s-.55,9.41-.74,10.18A13.35,13.35,0,0,1,78.19,69a72.22,72.22,0,0,1-5.64,7.7c-1,1.07-3.19,4.22-4.39,4.57a28.88,28.88,0,0,1-6,1c-1.28-.07-5.89-.68-6.91-1.3s-4.49-4.75-7.36-8.58-4.37-6.93-4.58-7.89S43,60,43,60l-.5.13s-.06,1-.91,1.08c-1.22.16-2-1.37-2.27-2.32-.53-1.57-.3-3.3-.86-4.87s-3.15-7-1.09-8.44c1.79-1.21,3.39.51,4,2.14a15.1,15.1,0,0,1,.45,1.67l.35-.08s0-3.05,0-5.19c.09-4-1.13-8.42.36-12.26,4.91-12.68,9.55-13.16,20.93-13.53C73.62,18,79.32,26.26,80.08,30a37.35,37.35,0,0,1,.9,9.18C80.83,42,80.45,49,80.45,49l.33.07a29.33,29.33,0,0,1,1.35-3.4A1.76,1.76,0,0,1,85.39,47c-.3,1.1-.84,4.25-1.07,5.51a15.3,15.3,0,0,0,0,2.79c0,.85-.37,3.79-1.62,3.76C81.94,59,80.05,59,80.44,55.18Z" fill="#fce7d4" stroke="#020202" stroke-miterlimit="10" stroke-width="0.75"/></g></svg>