<svg xmlns="http://www.w3.org/2000/svg" viewBox="0 0 125 125"><title>Artboard 9</title><g id="Person_6" data-name="Person 6"><path id="neck" d="M77.65,81.61s-1-1-1-1.62V73.15L50.11,74.47s.29,8.11-.32,8.8c0,0-6.24,1.63-5.32,3.55,1.91,4,10.32,9.67,16.12,10,7.56.49,13.12-.13,17.61-3C81.1,92,81.59,83.35,77.65,81.61Z" fill="#fce7d4" stroke="#020202" stroke-miterlimit="10" stroke-width="0.75"/><path id="face-2" data-name="face" d="M81.44,55.84s-.55,9.4-.74,10.17a13.35,13.35,0,0,1-1.51,3.65,71.41,71.41,0,0,1-5.64,7.71c-1,1.07-3.19,4.22-4.39,4.56a28.23,28.23,0,0,1-6,1c-1.28-.07-5.89-.68-6.91-1.3S51.76,76.84,48.89,73s-4.37-6.94-4.58-7.9S44,60.68,44,60.68l-.5.13s-.06,1-.91,1.09c-1.22.15-2-1.38-2.27-2.32-.53-1.58-.3-3.3-.86-4.87s-3.15-7.06-1.09-8.45c1.79-1.21,3.39.51,4,2.14a15.1,15.1,0,0,1,.45,1.67l.35-.08s0-3,0-5.19c.09-4-1.13-8.41.36-12.26C48.45,19.86,53.09,19.38,64.47,19c10.15-.34,15.85,7.9,16.61,11.67a37.35,37.35,0,0,1,.9,9.18c-.15,2.8-.53,9.76-.53,9.76l.33.07a29.33,29.33,0,0,1,1.35-3.4,1.76,1.76,0,0,1,3.26,1.32c-.3,1.09-.84,4.24-1.07,5.5a15.4,15.4,0,0,0,0,2.8c0,.84-.37,3.79-1.62,3.75C82.94,59.64,81.05,59.69,81.44,55.84Z" fill="#fce7d4" stroke="#020202" stroke-miterlimit="10" stroke-width="0.75"/><g id="hair_copy" data-name="hair copy"><rect x="40.76" y="93.89" width="45.97" height="32.44" fill="#fcfaf7"/><path d="M86.23,94.39v31.44h-45V94.39h45m1-1h-47v33.44h47V93.39Z"/><rect x="48.13" y="101.04" width="31.49" height="5.32" fill="#f44711"/><rect x="48.13" y="112.91" width="31.49" height="5.32" fill="#f44711"/></g><g id="parrot"><path d="M108,69.46s-6.84-4.2-7.64-5.09c-2.38-2.67-8.05-1.5-9.39.11s-1.07,4.45-.94,5,4.43,3.89,6.3,4.29,2.57-.26,2.63.81-.88,2.81-.61,4.56-.92,2.41.61,4.16A23.19,23.19,0,0,1,102.11,89c.4.94,2.68,1.34,4.16,1.75S107.88,98,108,102.85s-.13,5.78,1.34,10.21,3,5.07,1.48,8-2.42,4.23-1.61,4.76,0,.54,2.22-1.87,2.2-6.49,2.61-10,.8-7.26.8-7.26l1.48,3.09s2.28-26,2.41-28.43-2.82-8.85-4.83-11.13S108,69.46,108,69.46Z" fill="#3caa33" stroke="#000" stroke-miterlimit="10" stroke-width="0.75"/><path d="M96.31,66.92c0,.85-1.52,1.34-1.92,1.34s-.52-.34-.52-1.19.95-2,1.35-2S96.31,66.07,96.31,66.92Z" fill="#020202" stroke="#fff" stroke-miterlimit="10" stroke-width="0.75"/><path d="M107.9,69.67a15.77,15.77,0,0,0,0,9,51.1,51.1,0,0,0,4.17,9.63" fill="none" stroke="#000" stroke-miterlimit="10" stroke-width="0.75"/></g><path id="parrot_beak" data-name="parrot beak" d="M89.57,70.6a2.87,2.87,0,0,1,2.55-.87c1.48.34,4.63,1.07,5.1,2s1.47,2.21,0,2.21-3.89-.94-4,.53,1.64,2.82.52,2.69a2.6,2.6,0,0,1-2.46-1.55C90.71,74.36,89,72.8,89.57,70.6Z" fill="#f99a12" stroke="#000" stroke-miterlimit="10" stroke-width="0.75"/><path d="M121.79,111.19c-2.63-9.7-3.56-14.77-10-18-6.87-3.5-22.13-7-28.64-8.46-1.11-2-4.9-4.06-4.4-1.78.56,2.57.81,4.22-.75,5.59a11.44,11.44,0,0,1-4.77,3c-2.1.6-.95,8.17-.95,8.17a0,0,0,0,1,0,0,7.74,7.74,0,0,1-2,.4H68l.17,26.74,55.72-.54S124.87,122.52,121.79,111.19Z" fill="#202133" stroke="#000" stroke-miterlimit="10"/><path d="M55.34,100.09a6.72,6.72,0,0,1-1.6-.27.27.27,0,0,0,.12-.16s1.15-7.57-1-8.17a11.44,11.44,0,0,1-4.77-3,5.2,5.2,0,0,1-1.65-5.59C47,80.67,44,82.64,43,84.56c-6.13,1.32-22.13,5-29.23,8.58-6.46,3.28-7.38,8.35-10,18-3.07,11.33-2.06,15.1-2.06,15.1l55.72.54.16-26.74Z" fill="#202133" stroke="#000" stroke-miterlimit="10"/><path id="parrot_foot" data-name="parrot foot" d="M104.86,90.09c-1.28-.33-2.11-1.49-3.45-.74a9.87,9.87,0,0,0-2.75,2.79,9.56,9.56,0,0,0-1,2.59,3.78,3.78,0,0,0,.2,2.54c.35.28.94-2.4,1.76-3.3.51-.56,1.47-1.54,2.42-1.25a10.44,10.44,0,0,1-.49,1.15,3.94,3.94,0,0,0-.16,1.53,4.24,4.24,0,0,0,1.75,3,1.9,1.9,0,0,0,1,.41,1.2,1.2,0,0,0,1-.68c-.85,0-1.16-.64-1.44-1.44a2.92,2.92,0,0,1,.06-2.37A4.66,4.66,0,0,1,105,92.52c.69-.51,1.63-.87,2.35-1.32a8.1,8.1,0,0,0-1.19-.63,6,6,0,0,0-1.14-.42Z" fill="#f99a12" stroke="#000" stroke-miterlimit="10" stroke-width="0.75"/><circle cx="83.86" cy="105.43" r="3.37" fill="#e0be2f" stroke="#020202" stroke-miterlimit="10" stroke-width="0.75"/><circle cx="83.86" cy="118.49" r="3.37" fill="#e0be2f" stroke="#020202" stroke-miterlimit="10" stroke-width="0.75"/><circle cx="37.62" cy="105.43" r="3.37" fill="#e0be2f" stroke="#020202" stroke-miterlimit="10" stroke-width="0.75"/><circle cx="37.62" cy="118.49" r="3.37" fill="#e0be2f" stroke="#020202" stroke-miterlimit="10" stroke-width="0.75"/><path id="beard-3" data-name="beard" d="M75,58.94a31.36,31.36,0,0,1,5,2.44c1,.62,3,2.16,2.47,3.58-.17.46-.46,1-.46,1a17.63,17.63,0,0,0,1.59,2.27,6.87,6.87,0,0,1,1.34,4.62,2,2,0,0,1-1.78,1.84,7.67,7.67,0,0,1-1.27-.29c.53.16.12,1.84.06,2.11-.5,2-1.37,5-4,4.6a31.29,31.29,0,0,1-2,4.59c-1.07,1.32-2.75,1.88-4.08.68.15.13-1,1.76-1.11,1.94a4.68,4.68,0,0,1-1.83,1.56c-1.86.77-3.61-.89-5-1.94a12.3,12.3,0,0,1-2.33,1.59c-2.31,1.12-4.3.13-5.31-2.11a3.86,3.86,0,0,1-2,1.1,5.41,5.41,0,0,1-3.88-2.26,10.4,10.4,0,0,1-1.21-2.72c-.6.56-1.17,1-1.93.55a7.21,7.21,0,0,1-2.8-3.34c-.15-.32-.92-3.29-.53-3.45,0,0-1.1.46-1.68-.06-1.13-1-1.12-4.75-.46-6a37.18,37.18,0,0,1,2.6-3.81c0-.06-.46-1.32-.48-1.46-.4-2.17,1.2-3.42,2.78-4.58a14.81,14.81,0,0,1,5.51-2.75c2.89-.58,6.76-1.39,6.76-1.39l.64,2.19S55.13,61,53.33,62.65s-3.7,3.93-3.64,6.71-.07,4.58,2.18,5.27,6.49,1.84,7.88.8,2.84-2.24,2.84-2.24l3,.17a4.32,4.32,0,0,0,3.88,2.13c2.54-.24,6.18-.41,6.24-3.71s-.06-6.47-1.44-7.57S68.4,60.4,68.4,60.4l1.53-3.07c.15-.47,4.39,1.36,4.75,1.49Z" fill="#7f500b" stroke="#020202" stroke-miterlimit="10" stroke-width="0.75"/><path id="nose-4" data-name="nose" d="M63.43,53.64s1.29,2.44,2.44,2.7,4.75,0,4.63,2S67.93,63,65.62,63A9.13,9.13,0,0,1,61,61.81c-1.36-.81-3.91-4.19-2.49-5.69" fill="#fce7d4" stroke="#020202" stroke-miterlimit="10" stroke-width="0.75"/><g id="mouth-2" data-name="mouth"><path d="M67.63,70.64a6.24,6.24,0,0,1-2.29-.39,4.57,4.57,0,0,1-1.76-2.16c-.22-.39-.44-.8-.68-1.15l3.61-1.57a3.74,3.74,0,0,1,1.91-.51c1.11,0,2,.46,2.11,1.09,0,.24.11.5.17.77.23,1,.5,2.09,0,2.86s-1.6,1.06-3.09,1.06Z" fill="#fff"/><path d="M68.42,65.23c.88,0,1.66.35,1.74.79,0,.24.11.51.18.79.21.91.46,1.94.06,2.57s-1.42.88-2.77.88a5.91,5.91,0,0,1-2.14-.35c-.65-.28-1.12-1.16-1.58-2-.15-.27-.3-.54-.46-.8l3.2-1.39,0,0,0,0a3.36,3.36,0,0,1,1.68-.44m0-.75a4,4,0,0,0-2.06.55l-4,1.75c.95,1.11,1.49,3.21,2.89,3.82a6.51,6.51,0,0,0,2.43.41c1.4,0,2.85-.35,3.41-1.23.7-1.13.07-2.76-.14-3.9-.16-.87-1.26-1.4-2.48-1.4Z"/><path d="M55.4,66.58s1.46,1.73,3.1,1.68a13.89,13.89,0,0,0,4.24-1.33" fill="none" stroke="#000" stroke-miterlimit="10" stroke-width="0.75"/></g><g id="eyes-3" data-name="eyes"><path d="M60.92,45.3c0,3.17-3.54,7-6.7,7s-6.85-3.35-6.85-6.52,4.12-4.24,7.28-4.24S60.92,42.14,60.92,45.3Z" fill="#020202" stroke="#020202" stroke-miterlimit="10" stroke-width="0.75"/><path d="M43.16,48.2S52.77,47.11,57.23,45s19.06-15.2,22.19-18" fill="none" stroke="#020202" stroke-miterlimit="10" stroke-width="0.75"/><path d="M62.92,43.19s4.1,2.15,5.9-1.27,4.69-6.3,6.5-5.58,1.8,3.71,1.8,3.71" fill="none" stroke="#020202" stroke-miterlimit="10" stroke-width="0.75"/><path id="Eye" d="M73.94,45.47c0,1.51-.57,2.73-1.29,2.73S71.36,47,71.36,45.47s0-2.73,1.29-2.73C73.53,42.74,73.94,44,73.94,45.47Z" fill="#fff" stroke="#020202" stroke-miterlimit="10" stroke-width="0.75"/><path id="undereye" d="M69,50A7.2,7.2,0,0,0,72,51.32a3.57,3.57,0,0,0,2.58-1.58" fill="none" stroke="#020202" stroke-miterlimit="10" stroke-width="0.75"/></g><g id="bandana"><path d="M42.57,27.9S27.91,32,27.12,38,25.9,49,25.9,49A26.06,26.06,0,0,0,38,40.92,18.57,18.57,0,0,0,42.57,27.9Z" fill="#f44711" stroke="#020202" stroke-miterlimit="10" stroke-width="0.75"/><path d="M41.36,28.17s-13.46,10-12.51,16a54.78,54.78,0,0,1,.72,10.27S37.4,49.6,40.7,42A18.52,18.52,0,0,0,41.36,28.17Z" fill="#f44711" stroke="#020202" stroke-miterlimit="10" stroke-width="0.75"/><path d="M41.59,37.21a1.55,1.55,0,0,0,1.28.2c12.89-1.89,24.8-3.91,37.69-5.8a1.55,1.55,0,0,0,1-.39,2.17,2.17,0,0,0,.33-1.57c-.11-2.27-1.65-3.86-2.23-6A15,15,0,0,0,66.84,12.26c-6.24-.68-15.3.49-20.18,5.72a19.79,19.79,0,0,0-4.13,7.66,70.66,70.66,0,0,0-2.05,8.59,2.75,2.75,0,0,0,.38,2.09Z" fill="#f44711" stroke="#020202" stroke-miterlimit="10" stroke-width="0.75"/></g></g></svg>