<svg xmlns="http://www.w3.org/2000/svg" viewBox="0 0 125 125"><title>3 pipe</title><g id="person_3" data-name="person 3"><g id="sweater-2" data-name="sweater"><polygon points="58.51 87.98 86.72 93.65 76.53 126 54.81 90.46 58.51 87.98" fill="#3bc3ed" stroke="#020202" stroke-miterlimit="10" stroke-width="0.75"/></g><g id="face"><path id="face-2" data-name="face" d="M87.63,57.89s-.55,9.4-.75,10.18a12.85,12.85,0,0,1-1.5,3.63c-3.78,6.82-9.75,14.78-18.5,13.23-5.74-1-8.58-5.55-11.8-9.86-2.87-3.83-4.38-6.93-4.58-7.9a42.28,42.28,0,0,1-.27-4.43l-.5.12s-.06,1-.91,1.09c-1.22.16-2-1.38-2.27-2.32-.53-1.58-.3-3.3-.86-4.87s-3.15-7-1.09-8.44c1.79-1.22,3.38.5,4,2.13A15.1,15.1,0,0,1,49,52.12l.35-.08s0-3,0-5.19c.09-4-1.13-8.41.36-12.26,4.91-12.68,9.55-13.16,20.93-13.53C80.81,20.73,86.5,29,87.27,32.74a37.26,37.26,0,0,1,.9,9.18c-.15,2.79-.53,9.76-.53,9.76l.33.06a29.33,29.33,0,0,1,1.35-3.4,1.75,1.75,0,0,1,3.25,1.32c-.29,1.09-.83,4.24-1.06,5.51a16.22,16.22,0,0,0,0,2.79c0,.84-.36,3.79-1.61,3.76C89.13,61.7,87.24,61.74,87.63,57.89Z" fill="#f4bc95" stroke="#020202" stroke-miterlimit="10" stroke-width="0.75"/></g><g id="nose-2" data-name="nose"><path d="M73.79,44.34c.13.8.49.69,1.29,2.29s.47,1.79.6,3,2.39.41,4,3.47c1.08,2.07.78,3.37.5,5.64-.13,1,.12,3.64-.56,4.47a2.86,2.86,0,0,1-2.78.73c-2.15-.41-5.38-1.15-6.92-2.81-.94-1,0-2.23-1.43-2.88-1-.44-2.73.32-3.45-.72-.49-.69-.6-4.51.79-4.24" fill="none" stroke="#020202" stroke-miterlimit="10" stroke-width="0.75"/></g><g id="raincoat"><polygon id="interior_raincoat" data-name="interior raincoat" points="35.35 54.87 45.2 49.24 53.46 84.03 34.02 84.03 30.03 67.72 35.35 54.87" fill="#ba9e27" stroke="#020202" stroke-miterlimit="10" stroke-width="0.75"/><path d="M74.94,124.82s-6.92-26-9.31-29S55.85,84.53,53.46,84a23.8,23.8,0,0,1-8.38-3.29c-4.19-2.4-12.37-10.47-12.37-10.47s1.7-6.89,3.79-8.78S44.08,51,46.68,46.93s6.69-17.66,12.87-20.45,14.06-1.1,18.94-.8,9.1,6.09,9.31,10.07c.29,5.59.69,22.29.74,23.69C88.63,61.9,77.06,90,76,95.86s.53,30.14.53,30.14l47.8.12a30.29,30.29,0,0,0-1.79-13.53c-2.66-6.39-4.25-6.92-6.38-10.91s-6.34-5.54-11.55-9.42S92.22,83.5,92.22,83.5s.27-5.46.27-9.2-.53-6.4,1.06-9.59,1.6-8.79,1.87-13-.8-11.4-1.07-14.87-3.19-9.06-5-12.51S85.38,18.17,80,15.78,66.49,9.27,61.17,7.55s-8.24-3.06-12.23,0-7.45,10.92-9.55,16.34c-1.8,4.63-5.24,11.83-6.9,15.56S29,46.75,28.7,50.22,27.51,57,24.58,61.79s5.11,12.75,4.85,15.76-.35,7-.35,7c0,1.06-11.36,6.6-12.88,7.7a31.26,31.26,0,0,0-10,12.07c-1.46,3-2.64,6.12-4,9.18S.64,117.12.64,120.57v5.55H75.1A3.26,3.26,0,0,0,74.94,124.82Z" fill="#f7de48" stroke="#020202" stroke-miterlimit="10" stroke-width="0.75"/><path d="M90.9,89.81S95,100.2,96.65,105.24c1.27,3.9,2.85,10.54,2.44,11.88l.85,5.51-1.07.41-.82-5.63a68.47,68.47,0,0,1-4-11.11,101,101,0,0,0-5.51-14.52" fill="#fff" stroke="#000" stroke-miterlimit="10" stroke-width="0.5"/><path d="M42.9,89a83.3,83.3,0,0,0,1,13.63c.85,4.58,1.7,11.15,1.09,12.62l.21,6.35L44,121.9l-.17-6.49A54.54,54.54,0,0,1,41,103.49a100.24,100.24,0,0,1-.59-14.15" fill="#fff" stroke="#000" stroke-miterlimit="10" stroke-width="0.5"/><path d="M88.62,84.49A19,19,0,0,1,90.85,86a9,9,0,0,1,1.74,1.91,1.54,1.54,0,0,1,.23.32c.17.5-2.06,1.89-2.43,2.21L88.48,92.1a32.24,32.24,0,0,0-5,5,21.41,21.41,0,0,0-2.89,5.5,46.38,46.38,0,0,0-1.9,7.64c-.62,3.5-1.63,6.94-2.51,10.38" fill="none" stroke="#020202" stroke-miterlimit="10" stroke-width="0.75"/><path d="M49,86.88a142.61,142.61,0,0,1,5.43,16.53c3,10.84,6.65,22.28,6.65,22.28" fill="none" stroke="#020202" stroke-miterlimit="10" stroke-width="0.75"/><path d="M32.79,70.3s-1.58,3.49-.71,6.22.46,2.26,1.73,5.78,5.71,7.51,5.71,7.51,7.92-2,9.64-3.19a13,13,0,0,0,2.18-1.73" fill="none" stroke="#020202" stroke-miterlimit="10" stroke-width="0.75"/></g><g id="beard"><path d="M87,51a10.37,10.37,0,0,1,1.22-4.67A56.06,56.06,0,0,1,90.7,56.75c.13,1,.15,2.17-.69,2.7a2.7,2.7,0,0,1-.23,3.95,5.71,5.71,0,0,1-1.37,6,4.58,4.58,0,0,1-.89,3.22,5,5,0,0,1,1.53,1.79,1.8,1.8,0,0,1-.47,2.15,3.67,3.67,0,0,1,1.6,3.31,9.66,9.66,0,0,1-1.09,3.67A8,8,0,0,1,87.54,86a3,3,0,0,1-2.66.93c.69.78.28,2.06-.44,2.81s-1.71,1.21-2.4,2a14.75,14.75,0,0,1-1.11,1.37c-.6.55-1.44.77-2.08,1.26A15.77,15.77,0,0,1,77.06,96c-1.39.74-3-.18-4.34-1.06a3.58,3.58,0,0,1-6.07-.1,4.56,4.56,0,0,1-5.9-.9c-1.74.57-4,1-5-.59-.55-.85-.42-2-.9-2.87S53.42,89.12,53,88.27c-.3-.61-.31-1.34-.59-2a12,12,0,0,0-.8-1.25c-.4-.67-2.51-.49-3.28-2.62a29.49,29.49,0,0,1-1.56-5.19c-1.22-.11-3.86-.2-3.57-1.38a4.05,4.05,0,0,0,.21-.9,3.2,3.2,0,0,0-.64-1.42c-.5-.94-.86-2.05-.23-2.91-1.87-.78-2.56-1.72-2.45-3.74s1.52-4.41.27-6c-.61-.79.15-2.69,0-3.76s3.08-5.49,3.71-6.46c1.85-2.89,4-5.16,5.56-9.22.16,5.88.75,12.64.9,18.53.11,4.17.39,8.77,3.28,11.78a2.3,2.3,0,0,0,.88.63,2,2,0,0,0,1.83-.5c1.29-1,1.94-2.69,3.26-3.66s3.17-1.1,4.86-1.15l9.85-.31a9.48,9.48,0,0,1,5,.77c1.93,1.11,2.81,3.38,3.56,5.48,1-.81.24-2.46.36-3.77s1.36-2.39,2.19-3.51c2-2.67,1.86-6.3,1.56-9.61A35.93,35.93,0,0,1,87,51Z" fill="#eae4e1" stroke="#020202" stroke-miterlimit="10" stroke-width="0.75"/></g><g id="eyes-2" data-name="eyes"><path id="Eye" d="M66.65,43.48c0,1.4-.58,2.53-1.29,2.53s-1.29-1.13-1.29-2.53,0-2.54,1.29-2.54C66.24,40.94,66.65,42.08,66.65,43.48Z" fill="#fff" stroke="#020202" stroke-miterlimit="10" stroke-width="0.75"/><path id="Eye-2" data-name="Eye" d="M83.28,43c0,1.51-.58,2.73-1.29,2.73s-1.3-1.22-1.3-2.73.11-2.6,1.3-2.08S83.28,41.51,83.28,43Z" fill="#fff" stroke="#020202" stroke-miterlimit="10" stroke-width="0.75"/><path id="undereye" d="M66.66,47.29s-.89,1.77-2,2a3.62,3.62,0,0,1-3.17-1.44" fill="none" stroke="#020202" stroke-miterlimit="10" stroke-width="0.75"/><path id="undereye-2" data-name="undereye" d="M78.31,47.57s1.6,2.35,2.84,2.35,2.62-2.25,2.8-2.63" fill="none" stroke="#020202" stroke-miterlimit="10" stroke-width="0.75"/><path id="eyebrow" d="M78.41,36.51c1.84-1.77,2.57-.89,4.73.87a22,22,0,0,0,2.42,1.9" fill="none" stroke="#020202" stroke-miterlimit="10" stroke-width="0.75"/><path id="eyebrow-2" data-name="eyebrow" d="M70.07,38.89a15.45,15.45,0,0,0-3.68-2.45c-2.45-1.23-5.59-3.26-8-.81s-1.78,4.49-3,4.49" fill="none" stroke="#020202" stroke-miterlimit="10" stroke-width="0.75"/></g><path id="mouth" d="M77.07,79.55c-.79.32-2-.55-2.46-1a7.82,7.82,0,0,0-7.69-1.4c-2.7.95-3.7,3.19-4.53,1.63s.49-3.31,1.13-4.69c.78-1.66,3.27-1.89,4.85-2,1.9-.09,4.47,0,6,1.39A12.52,12.52,0,0,1,77.11,77a3.31,3.31,0,0,1,.59,1.69A1,1,0,0,1,77.07,79.55Z" fill="#fff" stroke="#020202" stroke-miterlimit="10" stroke-width="0.75"/><g id="pipe"><polygon points="69.14 72.26 56.64 95.28 51.51 92.1 63.46 73.4 69.14 72.26" fill="#020202" stroke="#020202" stroke-miterlimit="10" stroke-width="0.75"/><path d="M55.33,86a8.71,8.71,0,0,1,2.31.75,5.68,5.68,0,0,1,2.22,2.34l-5.59,11.31-3.43-7.07L55.33,86" fill="#634a26" stroke="#020202" stroke-miterlimit="10" stroke-width="0.75"/><path d="M39.91,93.58s-.55,5.89,1.42,8.47,5.64,2.75,8.22,2.43a5.86,5.86,0,0,0,4.68-4.13C54.64,98.77,53.6,91,53,89.93s-13,2.75-13.08,3.65" fill="#634a26" stroke="#020202" stroke-miterlimit="10" stroke-width="0.75"/><path d="M49.73,87.51c-2.3-.9-4.89-1.62-7,0-1.23,1-4,4.35-2.81,6,1.1,1.52,3.81,2.68,7.71,2s5.45-3.46,5.07-5S53.37,88.93,49.73,87.51Z" fill="#444131" stroke="#020202" stroke-miterlimit="10" stroke-width="0.75"/><path d="M38.34,43.62c-.32-1.18-.65-.75,0-3.61.54-2.34,1.77-3.71.47-6.07a8.34,8.34,0,0,0-2.75-2.57c-4.23-3.07-6.29-3.15-5.1-6.12s2.39-2.49,1.85-4-.33-2-1.74-2.09-.43.12-2.49,0-2.06.05-3.48,0a22,22,0,0,1-2.82,0c-2-.2-2.6.12-4.34-1.51s-2.06-4.08-4.66-2S9.59,18.77,9.8,20s.33,2.33,1.52,2.07,0-.11,2.72,0,.86-.95,4.66.75,4.23,2.07,5.43,1.7,3.36-1.93,3.25.76-2.06,4.4-.1,5.88.54,1.54,3.9,2c1.21.16,2.86,0,4,.57,1.7.79,2.49,2.07,2.09,3.72-.87,3.54-1.74,3.35-.65,4.8a17.11,17.11,0,0,0,1.73,2.06" fill="#fff" stroke="#000" stroke-miterlimit="10" stroke-width="0.75"/></g></g></svg>