<svg xmlns="http://www.w3.org/2000/svg" viewBox="0 0 125 125"><title>2</title><g id="Person_2" data-name="Person 2"><g id="head"><path id="neck" d="M77,80.24s-.69-.31-.69-.9V72.5l-26.6,1.32s.29,8.11-.31,8.8c0,0-1.6,2-.68,3.89s7.18,6,11.47,6.65,14.9-.23,16.81-2.68S80.65,81.42,77,80.24Z" fill="#d19a75" stroke="#020202" stroke-miterlimit="10" stroke-width="0.75"/><path id="face" d="M81,55.18s-.55,9.41-.74,10.18A13.35,13.35,0,0,1,78.76,69a69.56,69.56,0,0,1-5.64,7.7c-1,1.07-3.19,4.22-4.39,4.57a28.78,28.78,0,0,1-6,1c-1.28-.07-5.9-.68-6.91-1.3s-4.5-4.75-7.37-8.58-4.37-6.93-4.58-7.89S43.61,60,43.61,60l-.49.13s-.07,1-.92,1.08c-1.22.16-2-1.37-2.27-2.32-.53-1.57-.3-3.3-.86-4.87S35.93,47,38,45.61c1.79-1.21,3.39.51,4,2.14a15.1,15.1,0,0,1,.45,1.67l.35-.08s0-3.05,0-5.19c.09-4-1.13-8.42.36-12.26C48,19.21,52.66,18.73,64,18.36,74.19,18,79.89,26.26,80.65,30a37.35,37.35,0,0,1,.9,9.18C81.4,42,81,49,81,49l.33.07a29.33,29.33,0,0,1,1.35-3.4A1.76,1.76,0,0,1,86,47c-.3,1.1-.84,4.25-1.07,5.51a17.33,17.33,0,0,0,0,2.79c0,.85-.37,3.79-1.61,3.76C82.51,59,80.62,59,81,55.18Z" fill="#d19a75" stroke="#020202" stroke-miterlimit="10" stroke-width="0.75"/></g><g id="collar"><rect x="48.89" y="87.98" width="30.1" height="27.81" fill="#fff" stroke="#020202" stroke-miterlimit="10" stroke-width="0.75"/><path id="Collar-2" data-name="Collar" d="M46.28,83.12A6.65,6.65,0,0,0,47,81.07a7.43,7.43,0,0,1,.72-2.56c.4-.43,1.68-.51,1.68-.51s-1,1.53-.47,2.08a24.58,24.58,0,0,0,4,3.07c1.62.95,8.6,4.56,9.35,4.91s-.09.52-.52.55a9.18,9.18,0,0,0-4.19,1.87c-1.06,1.13-7.9,8-7.9,8S45.75,83.65,46.28,83.12Z" fill="#fff" stroke="#020202" stroke-miterlimit="10" stroke-width="0.75"/><path id="collar-3" data-name="collar" d="M76.69,77.68s.77-.36,1,.32.4,2,.47,2.38a21.69,21.69,0,0,0,2.92,2.5L78,97.62s-6.77-5-9.34-6.31-6.07-2.87-5.91-3.07,13.32-7,13.95-9.85a.86.86,0,0,0,0-.39Z" fill="#fff" stroke="#020202" stroke-miterlimit="10" stroke-width="0.75"/></g><g id="tie"><path d="M58,107.07S59,102,59.39,100.55c.29-1.1,1.28-4.92,1.24-5.28s1.81-.36,2.47-.41c1.24-.09,2.29,0,2.53.73a50.29,50.29,0,0,1,1.28,5.46c.24,1.66,1.63,9.92,1.7,10.39s1.13,3.31.89,3.71-4.23.73-5.44.43-6.69.21-6.53-.39S57.92,107.38,58,107.07Z" fill="#f44711" stroke="#020202" stroke-miterlimit="10" stroke-width="0.75"/><path d="M67.27,90.58a.82.82,0,0,1-.18.44A13.38,13.38,0,0,1,66,92.3a1.43,1.43,0,0,0-.47,1.08,3.91,3.91,0,0,0,.28.63.51.51,0,0,1-.13.63.65.65,0,0,1-.24.06,28.12,28.12,0,0,1-4.94.1.73.73,0,0,1-.33-.08c-.27-.18-.17-.6,0-.87s.4-.58.29-.88a.84.84,0,0,0-.38-.39c-.57-.37-1.22-.46-1.78-.84a2.12,2.12,0,0,1-.63-.56c-.68-1,4.14-2.94,5.06-2.94,1.29,0,1.85.66,2.72,1.07a9.7,9.7,0,0,1,1.37.78C67.1,90.28,67.25,90.41,67.27,90.58Z" fill="#f44711" stroke="#020202" stroke-miterlimit="10" stroke-width="0.75"/></g><g id="hair"><path d="M44.05,44.93s-1.28,6.14-2,4.44-.6-2.73-1.2-4S38.51,40.58,38.68,40a71,71,0,0,0,0-7.33c-.07-2.22-.58-7,.36-9a21.76,21.76,0,0,1,4-5.2c.42-.26,1.36-.77,1.36-.77A5.63,5.63,0,0,1,47,12.94c2.81-1.79,9.72-5.23,17-5.47S79.79,14.05,81.33,16a12.33,12.33,0,0,1,2,4.52s2,2.65,2,3.5a17.88,17.88,0,0,1,0,2.38c-.15,2.81,2.65,9.18-.17,11.53-.51.42-.94.85-.94.85a34,34,0,0,1-.93,5.2c-.52,1.37-.77,3.58-1.62,3.93a7.14,7.14,0,0,0-1.37.7c.13-3,.4-6,.37-9s-.08-4.72-2.33-6.75a6.56,6.56,0,0,0-4.86-1.45c-2.56.09-6.93,1.71-8.47-.25s.62-4.1-2.11-4.44c-2.42-.3-5,.48-7.39.58-1.48.06-4.13,0-5.41-.92l-.68-.51a13.49,13.49,0,0,1-1.28,3.41,10,10,0,0,0-1.36,4c-.26,1.53-1.45,1.77-2,3.1S44.48,43.13,44.05,44.93Z" fill="#23211b" stroke="#000" stroke-miterlimit="10" stroke-width="0.75"/></g><g id="eyes"><path id="Eye" d="M56.89,45.28c0,1.4-.58,2.53-1.29,2.53s-1.29-1.13-1.29-2.53,0-2.54,1.29-2.54C56.48,42.74,56.89,43.88,56.89,45.28Z" fill="#fff" stroke="#020202" stroke-miterlimit="10" stroke-width="0.75"/><path id="Eye-2" data-name="Eye" d="M73.52,44.82c0,1.51-.58,2.73-1.29,2.73s-1.3-1.22-1.3-2.73,0-2.73,1.3-2.73C73.1,42.09,73.52,43.31,73.52,44.82Z" fill="#fff" stroke="#020202" stroke-miterlimit="10" stroke-width="0.75"/><path id="undereye" d="M56.65,49.21a4,4,0,0,1-2.18,1.1c-1.14,0-2.75-.59-3-1.39" fill="none" stroke="#020202" stroke-miterlimit="10" stroke-width="0.75"/><path id="undereye-2" data-name="undereye" d="M68.55,49.36a7.17,7.17,0,0,0,3.06,1.31,3.52,3.52,0,0,0,2.58-1.58" fill="none" stroke="#020202" stroke-miterlimit="10" stroke-width="0.75"/><path id="eyebrow" d="M66.89,37.8s2-2,4-2,3,2,5,3" fill="none" stroke="#020202" stroke-miterlimit="10" stroke-width="0.75"/><path id="eyebrow-2" data-name="eyebrow" d="M60.89,38.8a12.38,12.38,0,0,0-3-2,4.71,4.71,0,0,0-6,1c-2,2-2,2-3,2" fill="none" stroke="#020202" stroke-miterlimit="10" stroke-width="0.75"/></g><g id="nose"><path d="M64.86,48.75s2.12,8.33,2.21,9.07,1.18,3.45.84,3.87-.34,1.49-1.11,1.66a15.09,15.09,0,0,1-2.9-.1,4.2,4.2,0,0,1-1.46-.51s-1.15.32-1.52.13a1.78,1.78,0,0,1-.75-1.32,5.07,5.07,0,0,1,.93-1.42" fill="none" stroke="#020202" stroke-miterlimit="10" stroke-width="0.75"/></g><g id="sweater"><path id="Sweater-2" data-name="Sweater" d="M124.09,126.16S121.39,114,119,109.33a28.16,28.16,0,0,0-12.91-12.11C100.14,94.55,80.11,81.8,80.1,82.53s-2.43,15-7.29,21.8-9,9.6-9.62,9.6S55.71,108.68,53,103,47.39,86.94,47,85.87s-.76-2.75-.76-2.75S21.07,96.32,18.55,97.56s-6.26,2.82-8.7,5.87-7,14.88-7.79,18.37S1,126.44,1,126.44Z" fill="#91e3f9" stroke="#020202" stroke-miterlimit="10" stroke-width="0.75"/></g><g id="alligator"><path d="M90.17,118.77c-.22,0-.45,0-.67,0a3.53,3.53,0,0,1-1.19-.27l-.23-.13a1.88,1.88,0,0,0-.49-.25,1.35,1.35,0,0,0-.41-.07,2.17,2.17,0,0,0-1,.31l-.19.1a1.69,1.69,0,0,1-.67.29h0a1.27,1.27,0,0,1-.74-.28,1.76,1.76,0,0,0-1-.37,1.38,1.38,0,0,0-.56.19l-.24.12-.21.07a3.08,3.08,0,0,1-.68.07,2.56,2.56,0,0,1-.55-.05,1.73,1.73,0,0,1-.77-.57,1.55,1.55,0,0,1-.29-.68,3.24,3.24,0,0,1,.46-2.76,2.82,2.82,0,0,1,1.56-.79,11.74,11.74,0,0,1,1.17-.16l.72-.08.21,0a4.62,4.62,0,0,1,.73-.07h.13a1.16,1.16,0,0,1,.82.35.54.54,0,0,1,0,.69.85.85,0,0,1-.45.21,5,5,0,0,1-1.1.09h-.37a5.12,5.12,0,0,0-.84.09,3.17,3.17,0,0,0-.41.12.39.39,0,0,0,0,.77,1.27,1.27,0,0,0,.34,0h.21l.37,0c.32,0,.64,0,1,0a4,4,0,0,1,.9.09l.19,0a2.6,2.6,0,0,0,.63.11,2.49,2.49,0,0,0,.72-.16,1.58,1.58,0,0,1,.52-.13.41.41,0,0,1,.16,0,1.26,1.26,0,0,0,.33.11h.1a1.7,1.7,0,0,0,.26,0L91,115.2a.64.64,0,0,1,.2,0c.07,0,.09,0,.1,0a.4.4,0,0,1,.09.15,2.2,2.2,0,0,1,.15.72.12.12,0,0,1-.09.11l-.4.15c-.3.11-.59.23-.9.31a3.06,3.06,0,0,1-.63.12h0l-.24,0-.27,0h-.12c-.28,0-.36.17-.38.29s.12.34.46.47a2.42,2.42,0,0,0,.91.17l.29,0h.12l.25,0a1.44,1.44,0,0,1,.48.14,1.54,1.54,0,0,0,.62.17h0a1.13,1.13,0,0,1-.76.77A2.55,2.55,0,0,1,90.17,118.77Z" fill="#08af2b"/><path d="M85.12,113.57h.1a.93.93,0,0,1,.65.26.31.31,0,0,1,0,.36.64.64,0,0,1-.32.14,5.09,5.09,0,0,1-1,.08h-.38a5.84,5.84,0,0,0-.88.09,4.19,4.19,0,0,0-.47.14.63.63,0,0,0-.45.59v.1a.63.63,0,0,0,.52.55,1.56,1.56,0,0,0,.4,0h.22l.37,0c.32,0,.63,0,.94,0a4.31,4.31,0,0,1,.85.08l.18,0a2.42,2.42,0,0,0,.69.12h.11a2.41,2.41,0,0,0,.69-.17,1.87,1.87,0,0,1,.44-.11h.08l.06,0a1.41,1.41,0,0,0,.31.1h.14a1.3,1.3,0,0,0,.31,0l2.34-.48.1,0h0a1.86,1.86,0,0,1,.13.54l-.32.12c-.31.11-.59.22-.89.3a2.58,2.58,0,0,1-.59.11l-.18,0-.3,0h-.14c-.49.06-.59.37-.6.5-.07.47.44.68.61.75a2.87,2.87,0,0,0,1,.18l.31,0h.13l.22,0h.06a1.07,1.07,0,0,1,.32.12,3.09,3.09,0,0,0,.4.14,1.07,1.07,0,0,1-.48.33,2,2,0,0,1-.64.09c-.21,0-.43,0-.64,0a3,3,0,0,1-1.11-.25,1.32,1.32,0,0,1-.2-.12,3.13,3.13,0,0,0-.55-.27,1.57,1.57,0,0,0-.49-.08,2.43,2.43,0,0,0-1.15.34l-.19.11a1.56,1.56,0,0,1-.62.25,1.07,1.07,0,0,1-.54-.24,2,2,0,0,0-1.16-.41h0a1.4,1.4,0,0,0-.64.23l-.18.09-.13,0-.07,0a2.7,2.7,0,0,1-.63.07,2.74,2.74,0,0,1-.5,0,1.62,1.62,0,0,1-.63-.5,1.35,1.35,0,0,1-.24-.57,3,3,0,0,1,.41-2.54,2.72,2.72,0,0,1,1.42-.71c.37-.07.75-.11,1.15-.15l.73-.08.21,0a4.48,4.48,0,0,1,.7-.07m0-.5a7.93,7.93,0,0,0-1,.1c-.64.09-1.28.11-1.91.24a3.13,3.13,0,0,0-1.69.87,3.3,3.3,0,0,0-.52,3,1.66,1.66,0,0,0,.35.8,2,2,0,0,0,.91.65,2.88,2.88,0,0,0,.59.05,3.05,3.05,0,0,0,.74-.08l.21-.07c.21-.06.49-.29.71-.3h0c.67,0,1,.65,1.66.65h.09a2.54,2.54,0,0,0,1-.41,1.9,1.9,0,0,1,.91-.28,1,1,0,0,1,.34.06,4,4,0,0,1,.67.36,3.74,3.74,0,0,0,1.29.3c.23,0,.46,0,.69,0a2.71,2.71,0,0,0,.8-.11,1.32,1.32,0,0,0,.94-1.06.14.14,0,0,0,0-.11c0-.09-.18-.09-.28-.09-.35,0-.65-.26-1-.3h-.12c-.13,0-.26,0-.39,0l-.27,0a2.2,2.2,0,0,1-.81-.15c-.15-.06-.52-.24-.15-.28H89c.16,0,.32,0,.48,0h0a2.62,2.62,0,0,0,.68-.12c.46-.12.89-.3,1.33-.46a.39.39,0,0,0,.21-.14.33.33,0,0,0,0-.22,2.21,2.21,0,0,0-.17-.8.59.59,0,0,0-.17-.26.43.43,0,0,0-.25-.07,1.07,1.07,0,0,0-.25,0l-2.34.48-.21,0h-.06a1.51,1.51,0,0,1-.3-.1.59.59,0,0,0-.23,0c-.38,0-.77.26-1.17.28h-.07a3.49,3.49,0,0,1-.77-.15,4.31,4.31,0,0,0-1-.09c-.45,0-.9,0-1.35.07h-.18a1.27,1.27,0,0,1-.28,0c-.08,0-.13,0-.14-.14s.06-.13.15-.16a2.59,2.59,0,0,1,.37-.11,5.42,5.42,0,0,1,.8-.08,8.63,8.63,0,0,0,1.52-.1,1.14,1.14,0,0,0,.58-.29.8.8,0,0,0,0-1,1.37,1.37,0,0,0-1-.44Z"/></g><path id="mouth" d="M54,63.81a4.7,4.7,0,0,1,2.42,1.83,8.72,8.72,0,0,0,4.5,3c2.52.65,3.7.86,3.44,2.15s-2.2,1.75-3.44,2.28-4.56.09-6-1a5.06,5.06,0,0,1-2.29-3.54C52.18,66.71,52.53,63.06,54,63.81Z" fill="#fff" stroke="#020202" stroke-miterlimit="10" stroke-width="0.75"/></g></svg>