<svg xmlns="http://www.w3.org/2000/svg" viewBox="0 0 125 125"><title>Artboard 3</title><g id="person_7" data-name="person 7"><g id="head_copy_2" data-name="head copy 2"><path id="neck" d="M80.11,82.94s-3.6-2-3.6-2.58-.41-9-.41-9H49.5s.33,8.21-.28,8.9c-1.75,2-5.55,3.45-6.64,6.12-1.72,4.22,4,9.18,6.78,10.37,5.92,2.54,14.29,2.49,20.61,1a23.11,23.11,0,0,0,12.24-7.5C84.11,87.84,84.53,85.34,80.11,82.94Z" fill="#fce7d4" stroke="#020202" stroke-miterlimit="10" stroke-width="0.75"/><path id="face-2" data-name="face" d="M80.83,54.1s-.55,9.4-.74,10.17a13.35,13.35,0,0,1-1.51,3.65,69.75,69.75,0,0,1-5.64,7.71c-1,1.07-3.19,4.22-4.39,4.56a28.78,28.78,0,0,1-6,1c-1.29-.07-5.9-.68-6.92-1.3s-4.49-4.75-7.36-8.58-4.37-6.93-4.58-7.89-.27-4.44-.27-4.44l-.49.13s-.07,1-.92,1.09c-1.22.15-2-1.38-2.27-2.33-.53-1.57-.3-3.3-.86-4.86s-3.14-7.06-1.09-8.45c1.79-1.21,3.39.51,4,2.14a15.1,15.1,0,0,1,.45,1.67l.35-.08s0-3,0-5.19c.09-4-1.13-8.42.36-12.26,4.91-12.68,9.55-13.16,20.93-13.53,10.15-.34,15.85,7.9,16.61,11.67a37.35,37.35,0,0,1,.9,9.18c-.15,2.8-.53,9.76-.53,9.76l.33.07a29.33,29.33,0,0,1,1.35-3.4,1.76,1.76,0,0,1,3.26,1.32c-.3,1.09-.84,4.24-1.07,5.5a15.3,15.3,0,0,0,0,2.79c0,.85-.37,3.79-1.62,3.76C82.33,57.9,80.44,58,80.83,54.1Z" fill="#fce7d4" stroke="#020202" stroke-miterlimit="10" stroke-width="0.75"/></g><g id="sweater_copy_2" data-name="sweater copy 2"><g id="Sweater-4" data-name="Sweater"><path d="M1.74,125.15a25.69,25.69,0,0,1,.64-5.09c.73-3.4,5.3-15.19,7.72-18.21,2.13-2.67,5.24-4.17,7.73-5.37l.84-.41C21,94.94,40.75,84.57,43.91,82.91c.14.58.41,1.58.65,2.31,0,.11.07.25.11.41a11.25,11.25,0,0,0,6.25,7.64C54,94.78,59.82,95.83,65,95.83c3.1,0,8.67-.39,11.15-3a16.31,16.31,0,0,0,4.31-11.6c1.28.6,5.47,3.11,9.54,5.54,6,3.57,12.79,7.63,15.87,9a27.7,27.7,0,0,1,12.73,11.94c2.13,4,4.83,14.83,5.4,17.19Z" fill="#fff"/><path d="M80.81,81.8c1.71.9,5.53,3.18,9,5.24,6,3.58,12.8,7.64,15.91,9a27.38,27.38,0,0,1,12.55,11.77c2,3.8,4.5,13.59,5.26,16.64l-121.39.27a26.78,26.78,0,0,1,.63-4.63c.73-3.38,5.25-15.06,7.64-18.06,2.08-2.6,5.14-4.08,7.61-5.26l.84-.41c2.25-1.11,20.58-10.72,24.82-13,.15.57.35,1.31.54,1.88,0,.1.07.23.11.39a11.61,11.61,0,0,0,6.44,7.88c3.17,1.53,9,2.6,14.23,2.6,3.16,0,8.85-.41,11.42-3.17A16.55,16.55,0,0,0,80.81,81.8m-.71-1.12s0,0,0,0a16.28,16.28,0,0,1-4.2,11.82c-2,2.11-6.27,2.93-10.87,2.93-5.25,0-10.88-1.07-13.9-2.53a11,11,0,0,1-6.17-7.82c-.35-1.07-.76-2.76-.76-2.76S21,94.5,18.5,95.74s-6.25,2.82-8.69,5.87S2.77,116.49,2,120a23.28,23.28,0,0,0-.64,5.54l123.09-.27s-3.11-13.1-5.55-17.74A28.11,28.11,0,0,0,106,95.4c-5.74-2.6-24.84-14.72-25.9-14.72Z"/></g></g><g id="hair_copy_2" data-name="hair copy 2"><path d="M48,17.94s1.72-7.3,5.84-9.57c5.06-2.79,9.71-1.1,14.27,1.24a40.06,40.06,0,0,1,10,7.12c3.34,3,7.43,8.17,7.65,9.06a8.43,8.43,0,0,1,0,2.89c-.11.56-1.2,1.39-1.2,1.39s.71,5.94-.78,8.46c-2,3.39-2.11,8.29-2.45,9.51s-.77.77-.77.62.09-10.3-.28-11.52-1.28-2.45-.84-3.45a15.12,15.12,0,0,0,.61-3.56S75.53,26.74,74.53,26,70,23.4,68.3,23.34a15.75,15.75,0,0,0-5.39.67c-1.95.61-2.37,1.83-2.93,1.78s-3.19-2.11-6.69-2.22-5.4-.06-6.85,1.44-2.83,3.06-2.61,5.79.12,3.39,0,3.89a10.34,10.34,0,0,0-.87,3c0,1.06.11,11.12,0,11.46s-.5-.11-.78-1.06-.72-5.78-.83-6.73-2.62-6.56-2.78-9.12-.89-5.9.39-9.18,2.45-4.92,3.5-5.75S47,17.26,48,17.94Z" fill="#8e570e" stroke="#000" stroke-miterlimit="10" stroke-width="0.75"/></g><g id="nose_copy_2" data-name="nose copy 2"><path d="M62.15,53.8s6.61-2.26,6,1.65-6.76,3.39-6.76,3.39" fill="#fce7d4" stroke="#020202" stroke-miterlimit="10" stroke-width="0.75"/></g><g id="hat_copy" data-name="hat copy"><path d="M40.93,20.34s.82-6.72,3.92-9.56,4.21-5,7.42-6.34a23.74,23.74,0,0,1,8.64-2c2.44,0,7.87,1.53,12,3.27a14.39,14.39,0,0,1,8,7.74,45.38,45.38,0,0,1,2.22,7.88C83.29,23,41.22,22.46,40.93,20.34Z" fill="#f44711" stroke="#020202" stroke-miterlimit="10" stroke-width="0.75"/><path d="M39.23,37.76s-1.9-4.15.81-6.12,9.13-6.55,18.44-5.9,11.07-1.27,17.72,1.88,9.3,7.3,9.08,8.17,2-5,1.53-8.17-.2-4.72-5.52-8.65a28.09,28.09,0,0,0-17.5-5.46c-5.76.22-12.48-.27-16.09,2.05S39.18,20.72,38.52,24,36.16,35.14,39.23,37.76Z" fill="#f44711" stroke="#020202" stroke-miterlimit="10" stroke-width="0.75"/></g><g id="eyes-4" data-name="eyes"><path d="M74.78,40.24a21.79,21.79,0,0,1,4.92.55,44.9,44.9,0,0,1-1.57,5.85,34.58,34.58,0,0,1-4.81.53c-.43,0-1.11,0-1.93,0a16.05,16.05,0,0,1-3.5-.26,32.64,32.64,0,0,1-2.48-5.4A41.76,41.76,0,0,1,73,40.31c.58,0,1.17-.07,1.76-.07m0-2c-.61,0-1.25,0-1.91.08-5.32.4-9.85,1.6-9.85,2.21s2.65,7.53,3.76,8.13a12.91,12.91,0,0,0,4.61.55c.74,0,1.45,0,2-.05,2-.1,5.94-.44,6.27-1s2.25-6.58,2.14-8.79a21.38,21.38,0,0,0-7-1.08Z"/><path d="M49.34,40.24h0c.59,0,1.18,0,1.76.07a41.76,41.76,0,0,1,7.61,1.24A34.4,34.4,0,0,1,56.24,47a16.57,16.57,0,0,1-3.51.26c-.82,0-1.5,0-1.93,0h-.22c-.95,0-3.24-.17-4.32-.37a46.9,46.9,0,0,1-1.81-6,22.33,22.33,0,0,1,4.89-.54m0-2a21.31,21.31,0,0,0-7.05,1.08c-.11,2.21,2.11,8.38,2.44,9s4,.76,6,.86c.58,0,1.28.05,2,.05a12.91,12.91,0,0,0,4.61-.55c1.11-.6,3.76-7.53,3.76-8.13s-4.53-1.81-9.85-2.21c-.66,0-1.3-.08-1.91-.08Z"/><path d="M59.66,42.85s2.91-1.06,5.11,0" fill="none" stroke="#000" stroke-miterlimit="10" stroke-width="2"/><path id="Eye" d="M55.13,44.75c0,1.65-.58,1.24-1.29,1.24s-1.29.41-1.29-1.24,0-3,1.29-3C54.71,41.77,55.13,43.11,55.13,44.75Z" fill="#fff" stroke="#020202" stroke-miterlimit="10" stroke-width="0.75"/><path id="Eye-2" data-name="Eye" d="M75.34,44.21c0,1.78-.58,1.31-1.3,1.31s-1.29.47-1.29-1.31,0-3.21,1.3-3.21C74.92,41,75.34,42.44,75.34,44.21Z" fill="#fff" stroke="#020202" stroke-miterlimit="10" stroke-width="0.75"/><path d="M67.79,37.71s4.93-4.5,7.55-4.32" fill="none" stroke="#020202" stroke-miterlimit="10" stroke-width="0.5"/><path d="M58.21,38.9c-2.06-.93-6.7-3.95-8.78-3.47" fill="none" stroke="#020202" stroke-miterlimit="10" stroke-width="0.5"/></g><g id="mouth_copy_2" data-name="mouth copy 2"><path d="M57.5,69.3s3.31-1.1,5-.86,4.49,2.43,5.88,2.7" fill="none" stroke="#020202" stroke-miterlimit="10" stroke-width="0.75"/></g><g id="jacket"><path d="M121.66,110.61c-.21-.77-.43-1.53-.63-2.3-1.12-4.29-2-8.88-4.83-12.26-2.26-2.69-5.55-4.28-8.85-5.5-9.19-3.41-19.2-5.48-28-9.73,0,3.64-1.64,8.06-3.27,11.32-1.26,2.52-2.62,5.16-5,6.68-.7.45-2.33.86-2.92,1.45,0,0,.12,1.63.09,2.73q-.09,3.85-.09,7.71,0,7.73.3,15.43l56.29-.53C124.46,120.13,123.06,115.56,121.66,110.61Z" fill="#073e75" stroke="#000" stroke-miterlimit="10" stroke-width="0.75"/><path d="M55.69,99.08a12.84,12.84,0,0,1-2.44-2.55,40.77,40.77,0,0,1-7.17-14.68c-9.06,3.67-26,7.46-34.36,11.32-7.37,3.39-9.45,17.51-10.63,32.45l56.23.52q.61-13,.11-26.13A6.08,6.08,0,0,1,55.69,99.08Z" fill="#073e75" stroke="#000" stroke-miterlimit="10" stroke-width="0.75"/><polygon points="21.02 115.93 21.29 125.71 43.14 125.93 43.41 115.45 21.02 115.93" fill="#073e75" stroke="#000" stroke-miterlimit="10" stroke-width="0.75"/></g><g id="jacket_shearling" data-name="jacket shearling"><line x1="50.22" y1="103.68" x2="50.22" y2="125.52" fill="#60a5c4" stroke="#000" stroke-miterlimit="10" stroke-width="0.75"/><line x1="80.07" y1="103.68" x2="80.07" y2="125.52" fill="#60a5c4" stroke="#000" stroke-miterlimit="10" stroke-width="0.75"/><path d="M61,126.37a22.79,22.79,0,0,1,0-3.51,46,46,0,0,0,.37-4.9,29.41,29.41,0,0,0-.45-3.07,19.55,19.55,0,0,0,.45-3.4c-.12-.79.23-7.92.17-9.25s-2.94-2.37-4.09-3-2.88-2.41-3.73-2.83-1.81-.66-1.93-1.27-.73-2.24-.73-2.24a6.93,6.93,0,0,1-.77-2.55c0-1.08-.81-4.25-.81-5.58s-.47-3.52-.29-4.12.55-2.12.55-2.12V73.18a4.05,4.05,0,0,0-1.27,0c-.51.11-.65.81-.66.89s-.73.41-.86.48c-.95.51-1.54.61-1.68,1.75a3.58,3.58,0,0,1-1,2c-.4.39-.9.68-1.27,1.1a5.64,5.64,0,0,0-.91,1.69,4.81,4.81,0,0,0-.13.66c-.21.9-1.34,1.92-1.73,2.85-.17.4-.07.84-.26,1.25s-.56.64-.67,1.12a11.67,11.67,0,0,0-.23,2.13c0,.77,0,1.54,0,2.32,0,1.27-.12,2.53-.14,3.8,0,.85.17,1.7.23,2.55.05.65,0,1.3,0,2a7,7,0,0,1,.29,1.7,2.08,2.08,0,0,0-.08.74c.07.29.27.46.32.76s-.08.64,0,1,.18.89-.06,1.22c0,0-.77,1-.63,1.63.24,1,1.51,1.07,2.35,1a27.81,27.81,0,0,0,3.17-.18c.58-.08.77-.8,1.19-1.12s1.23-.09,1.82-.46a5.51,5.51,0,0,0,.82-.7c.92-.87,2-1.9,3.39-1.69a8.61,8.61,0,0,1,1.15.18c.78.26,1.14.44,1.92,0l1.27.19a1.11,1.11,0,0,1,.67.9c.1.6.07,1.21.22,1.81.21.81-.72,1.49-.31,2.25a17.28,17.28,0,0,0,0,3.27c.06.52.19,1,.25,1.54.12,1.09-.74,2.21-.74,3.29a6.68,6.68,0,0,0,.3,1.82,35.16,35.16,0,0,0,.31,3.57,22.08,22.08,0,0,1,0,4.07" fill="#f9f7e1" stroke="#020202" stroke-miterlimit="10" stroke-width="0.75"/><path d="M64.84,126.37a22.79,22.79,0,0,0,0-3.51,46,46,0,0,1-.36-4.9,30,30,0,0,1,.44-3.07,19.7,19.7,0,0,1-.44-3.41c.37-2.48-.24-4.93,0-7.4s1.9-3.76,3.89-4.81c1.15-.61,2.88-2.41,3.73-2.83s1.82-.66,1.94-1.27.72-2.24.72-2.24a6.87,6.87,0,0,0,.78-2.55c0-1.08.81-4.25.81-5.58s.46-3.52.28-4.12-.54-2.12-.54-2.12V73.18a4,4,0,0,1,1.27,0c.51.11.64.81.66.89s.73.41.86.48c.94.51,1.53.61,1.68,1.75a3.57,3.57,0,0,0,1,2c.4.39.9.68,1.28,1.1a5.84,5.84,0,0,1,.9,1.69,3.67,3.67,0,0,1,.13.66c.21.9,1.34,1.92,1.74,2.85.17.4.07.84.25,1.25s.56.64.68,1.12a12.61,12.61,0,0,1,.22,2.13c0,.77,0,1.54,0,2.32,0,1.27.11,2.53.14,3.8,0,.85-.17,1.7-.24,2.55-.1,1.34.21,2.68.08,4-.11,1.14-.9,2.16-.12,3.2a6.48,6.48,0,0,1,0,1.62c-.24,1-.85,1.08-1.68,1.07a30.31,30.31,0,0,1-3.17-.18c-.58-.08-.77-.81-1.19-1.12s-1.63,0-2.22-.36c-.3-.19-.47-.59-.82-.7-4.35-1.37-7.72-.11-8.62,1.34-.44.71.73,1.49.32,2.25a17.28,17.28,0,0,1,0,3.27c-.06.52-.2,1-.26,1.54-.12,1.09.74,2.21.74,3.29a6.68,6.68,0,0,1-.3,1.82s-.06,1.93-.3,3.57a22.48,22.48,0,0,0,0,4.07" fill="#f9f7e1" stroke="#020202" stroke-miterlimit="10" stroke-width="0.75"/></g><circle id="button" cx="74.63" cy="117.68" r="2.59" fill="#e8e9ea" stroke="#000" stroke-miterlimit="10" stroke-width="0.75"/><g id="stubble"><line x1="49.22" y1="62.16" x2="49.22" y2="62.84" fill="#60a5c4" stroke="#000" stroke-miterlimit="10" stroke-width="0.75"/><line x1="46.8" y1="56.21" x2="46.8" y2="56.89" fill="#60a5c4" stroke="#000" stroke-miterlimit="10" stroke-width="0.75"/><line x1="48.28" y1="66.03" x2="48.28" y2="66.71" fill="#60a5c4" stroke="#000" stroke-miterlimit="10" stroke-width="0.75"/><line x1="54.47" y1="63.19" x2="54.47" y2="63.87" fill="#60a5c4" stroke="#000" stroke-miterlimit="10" stroke-width="0.75"/><line x1="51.3" y1="68.17" x2="51.3" y2="68.86" fill="#60a5c4" stroke="#000" stroke-miterlimit="10" stroke-width="0.75"/><line x1="52.22" y1="57.27" x2="52.22" y2="57.96" fill="#60a5c4" stroke="#000" stroke-miterlimit="10" stroke-width="0.75"/><line x1="71.56" y1="57.27" x2="71.56" y2="57.96" fill="#60a5c4" stroke="#000" stroke-miterlimit="10" stroke-width="0.75"/><line x1="76.48" y1="56.93" x2="76.48" y2="57.62" fill="#60a5c4" stroke="#000" stroke-miterlimit="10" stroke-width="0.75"/><line x1="70.46" y1="62.53" x2="70.46" y2="63.21" fill="#60a5c4" stroke="#000" stroke-miterlimit="10" stroke-width="0.75"/><line x1="67.19" y1="64.87" x2="67.19" y2="65.56" fill="#60a5c4" stroke="#000" stroke-miterlimit="10" stroke-width="0.75"/><line x1="65.94" y1="75.91" x2="65.94" y2="76.59" fill="#60a5c4" stroke="#000" stroke-miterlimit="10" stroke-width="0.75"/><line x1="59.05" y1="76.93" x2="59.05" y2="77.62" fill="#60a5c4" stroke="#000" stroke-miterlimit="10" stroke-width="0.75"/><line x1="61.1" y1="74.2" x2="61.1" y2="74.89" fill="#60a5c4" stroke="#000" stroke-miterlimit="10" stroke-width="0.75"/><line x1="75.12" y1="64.95" x2="75.12" y2="65.63" fill="#60a5c4" stroke="#000" stroke-miterlimit="10" stroke-width="0.75"/><line x1="78.59" y1="62.84" x2="78.59" y2="63.53" fill="#60a5c4" stroke="#000" stroke-miterlimit="10" stroke-width="0.75"/></g><g id="cigarette_copy" data-name="cigarette copy"><path id="cigarette-2" data-name="cigarette" d="M29.47,50.83s-6.93-3.65-5.07-8.17,9-11.2,7.54-6.14S24.66,47.41,20.42,43.8,14.8,29.47,16.8,27.23" fill="none" stroke="#000" stroke-miterlimit="10" stroke-width="0.75"/><path d="M57.76,69.39l-8.28,10s-.71.4.22.93,1.58.92,1.58.92l1.46-1.67c1.11-1.26,2.55-3,3.67-4.27l3.43-3.86c.41-.47.67-.94,1.09-1.42l.59-.68a3.44,3.44,0,0,0,.47-.54.2.2,0,0,0,0-.21c-.11-.2-.7-.06-.87-.05-.42,0-.83.06-1.25.11A5.44,5.44,0,0,0,57.76,69.39Z" fill="#fff" stroke="#000" stroke-miterlimit="10" stroke-width="0.75"/></g></g></svg>