<svg width="300" height="283" viewBox="0 0 300 283" fill="none" xmlns="http://www.w3.org/2000/svg">
<g clip-path="url(#clip0)">
<path d="M184.979 169.995C184.979 169.995 183.325 169.284 183.325 167.782C183.325 166.36 183.325 151.186 183.325 151.186L118.803 154.426C118.803 154.426 119.512 174.184 118.015 175.843C118.015 175.843 110.294 181.533 112.5 186.196C117.148 195.996 130.383 201.844 140.467 203.425C152.994 205.401 171.822 203.425 182.694 196.47C189.863 191.886 194.512 174.184 184.979 169.995Z" fill="#FCE7D4" stroke="#020202" stroke-width="1.75" stroke-miterlimit="10"/>
<path d="M194.748 109.062C194.748 109.062 193.409 131.902 192.936 133.799C192.463 135.696 191.912 137.988 189.312 142.65C186.712 147.392 178.046 158.773 175.683 161.381C173.319 163.989 167.962 171.655 165.047 172.524C162.132 173.393 153.624 175.053 150.473 174.816C147.4 174.658 136.213 173.156 133.692 171.655C131.171 170.153 122.82 160.116 115.809 150.79C108.876 141.465 105.173 133.957 104.701 131.586C104.228 129.215 104.07 120.838 104.07 120.838L102.889 121.154C102.889 121.154 102.731 123.525 100.683 123.762C97.6891 124.157 95.9559 120.443 95.1681 118.151C93.9076 114.278 94.459 110.09 93.041 106.296C91.6229 102.345 85.3992 89.1466 90.3624 85.7483C94.6954 82.8241 98.5557 87.0127 99.9738 90.9643C100.604 92.6239 101.077 94.9948 101.077 94.9948L101.943 94.7578C101.943 94.7578 101.786 87.3289 101.943 82.1128C102.18 72.4711 99.1859 61.6439 102.81 52.3183C114.706 21.4963 125.972 20.3108 153.545 19.3625C178.125 18.5722 191.991 38.5669 193.803 47.7345C195.221 54.9263 196.402 62.6713 196.008 70.1002C195.615 76.8968 194.748 93.8094 194.748 93.8094L195.536 93.9674C195.536 93.9674 197.348 88.3563 198.845 85.6692C200.263 82.9822 203.729 82.7451 204.911 83.7725C206.092 84.7999 207.432 86.2224 206.723 88.9095C206.014 91.5965 204.674 99.2625 204.123 102.345C203.729 104.558 204.044 106.849 204.044 109.141C204.044 111.196 203.178 118.388 200.105 118.309C198.451 118.309 193.803 118.388 194.748 109.062Z" fill="#FCE7D4" stroke="#020202" stroke-width="1.75" stroke-miterlimit="10"/>
<path d="M0.787842 282.377C0.787842 282.377 1.49688 279.611 3.38763 271.075C5.27839 262.54 16.3866 233.852 22.2952 226.423C28.2038 218.994 37.2637 215.121 43.4086 212.118C49.5536 209.115 110.688 177.029 110.688 177.029C110.688 177.029 127.547 189.516 150.63 189.516C173.634 189.516 192.7 175.606 192.7 175.606C192.7 173.867 241.308 204.848 255.646 211.328C269.984 217.809 281.014 229.505 286.922 240.806C292.831 252.108 299.37 281.744 299.37 281.744" fill="#202133"/>
<path d="M0.787842 282.377C0.787842 282.377 1.49688 279.611 3.38763 271.075C5.27839 262.54 16.3866 233.852 22.2952 226.423C28.2038 218.994 37.2637 215.121 43.4086 212.118C49.5536 209.115 110.688 177.029 110.688 177.029C110.688 177.029 127.547 189.516 150.63 189.516C173.634 189.516 192.7 175.606 192.7 175.606C192.7 173.867 241.308 204.848 255.646 211.328C269.984 217.809 281.014 229.505 286.922 240.806C292.831 252.108 299.37 281.744 299.37 281.744" stroke="black" stroke-width="1.75" stroke-miterlimit="10"/>
<path d="M103.834 89.6998C103.834 99.6576 112.185 107.719 122.426 107.719C132.668 107.719 141.019 99.6576 141.019 89.6998C141.019 79.7419 143.776 71.6808 122.426 71.6808C105.016 71.7598 103.834 79.8209 103.834 89.6998Z" stroke="#020202" stroke-width="1.75" stroke-miterlimit="10"/>
<path d="M191.203 89.3837C191.203 99.1044 183.009 107.008 173.004 107.008C162.92 107.008 154.806 99.1044 154.806 89.3837C154.806 79.6629 152.127 71.6808 173.004 71.6808C190.1 71.7598 191.203 79.6629 191.203 89.3837Z" stroke="#020202" stroke-width="1.75" stroke-miterlimit="10"/>
<path d="M155.515 86.3014C155.515 86.3014 146.849 82.1128 141.098 86.3014" stroke="#020202" stroke-width="1.75" stroke-miterlimit="10"/>
<path d="M110.53 176.95C111.082 176.397 111.87 173.551 112.185 171.971C112.5 170.39 112.973 166.755 113.918 165.727C114.863 164.7 118.015 164.463 118.015 164.463C118.015 164.463 115.572 168.177 116.833 169.521C118.172 170.864 122.584 174.658 126.523 177.029C130.462 179.321 147.4 188.093 149.212 188.962C151.024 189.832 148.976 190.227 147.952 190.306C146.927 190.385 139.286 191.254 136.765 193.941C134.244 196.707 118.645 214.331 118.645 214.331C118.645 214.331 109.27 178.293 110.53 176.95Z" fill="#202133" stroke="black" stroke-width="1.75" stroke-miterlimit="10"/>
<path d="M184.27 163.752C184.27 163.752 186.161 162.882 186.633 164.542C187.106 166.202 187.579 169.521 187.736 170.311C187.894 171.18 194.827 176.397 194.827 176.397L187.421 212.276C187.421 212.276 171.035 200.185 164.732 196.944C158.508 193.625 150 189.99 150.394 189.516C150.788 189.041 182.694 172.524 184.191 165.569C184.27 165.253 184.27 164.937 184.191 164.621V163.752H184.27Z" fill="#202133" stroke="black" stroke-width="1.75" stroke-miterlimit="10"/>
<path d="M141.649 190.938V281.823" stroke="#020202" stroke-width="1.75" stroke-miterlimit="10"/>
<path d="M162.132 194.732V281.823" stroke="#020202" stroke-width="1.75" stroke-miterlimit="10"/>
<path d="M151.891 231.165C154.588 231.165 156.775 228.971 156.775 226.265C156.775 223.559 154.588 221.365 151.891 221.365C149.193 221.365 147.006 223.559 147.006 226.265C147.006 228.971 149.193 231.165 151.891 231.165Z" fill="white" stroke="#020202" stroke-width="1.75" stroke-miterlimit="10"/>
<path d="M151.891 270.996C154.588 270.996 156.775 268.802 156.775 266.096C156.775 263.39 154.588 261.196 151.891 261.196C149.193 261.196 147.006 263.39 147.006 266.096C147.006 268.802 149.193 270.996 151.891 270.996Z" fill="white" stroke="#020202" stroke-width="1.75" stroke-miterlimit="10"/>
<path d="M136.292 84.958C136.292 88.3563 134.874 91.1224 133.141 91.1224C131.408 91.1224 129.99 88.3563 129.99 84.958C129.99 81.5597 129.99 78.7936 133.141 78.7936C135.268 78.7936 136.292 81.5597 136.292 84.958Z" fill="white" stroke="#020202" stroke-width="1.75" stroke-miterlimit="10"/>
<path d="M176.628 83.8515C176.628 87.4869 175.21 90.4901 173.477 90.4901C171.744 90.4901 170.326 87.4869 170.326 83.8515C170.326 80.2161 170.326 77.213 173.477 77.213C175.604 77.1339 176.628 80.1371 176.628 83.8515Z" fill="white" stroke="#020202" stroke-width="1.75" stroke-miterlimit="10"/>
<path d="M135.741 94.5207C135.741 94.5207 133.22 97.0497 130.462 97.2078C127.705 97.2868 123.766 95.7852 123.135 93.8094" stroke="#020202" stroke-width="1.75" stroke-miterlimit="10"/>
<path d="M164.575 94.9159C164.575 94.9159 168.986 98.0771 171.98 98.0771C174.974 98.0771 177.81 95.153 178.204 94.2046" stroke="#020202" stroke-width="1.75" stroke-miterlimit="10"/>
<path d="M155.593 93.4143C155.593 93.4143 160.714 113.646 160.951 115.464C161.187 117.282 163.787 123.841 162.999 124.869C162.054 126.054 162.211 128.504 160.32 128.899C158.508 129.294 154.648 128.741 153.309 128.662C151.891 128.662 149.764 127.398 149.764 127.398C149.764 127.398 146.927 128.188 146.061 127.714C145.194 127.239 144.091 125.422 144.249 124.552C144.406 123.683 146.061 121.549 146.534 121.075" stroke="#020202" stroke-width="1.75" stroke-miterlimit="10"/>
<path d="M194.905 31.9284C194.512 31.9284 194.118 31.9284 193.724 32.0074C194.512 32.5607 195.063 30.98 194.748 30.1107C190.73 17.7819 179.858 8.53533 167.647 4.34671C154.569 -0.158041 135.74 -1.3435 123.844 6.48054C112.658 13.7514 103.992 24.6576 99.501 37.2235C98.0042 41.3331 96.98 45.6798 95.168 49.6313C93.356 53.5828 90.5987 57.3763 86.6596 59.273C82.7205 61.1698 77.521 60.7746 74.606 57.5344C72.7941 62.7504 74.1333 68.9938 77.9936 72.9453C81.8539 76.8969 87.9989 78.4775 93.2773 76.7388L93.6712 84.4838C97.2163 85.9854 100.21 88.9886 101.628 92.624C104.385 87.8031 103.519 81.5597 105.961 76.5807C108.009 72.3131 112.342 68.9938 112.658 64.331C113.13 57.3763 104.464 51.37 120.614 42.5185C120.93 42.3605 121.402 42.2024 121.796 42.2024C127.232 41.9653 132.038 45.4427 136.843 48.0507C144.958 52.3974 154.491 54.2941 163.55 52.8715C172.61 51.449 181.197 46.391 186.555 38.8831C184.9 44.7314 183.876 50.8958 184.9 56.9021C185.924 62.9084 188.839 68.4406 191.203 74.0518C193.251 78.8726 195.536 84.1677 195.378 89.3047C195.378 90.095 196.402 90.4111 196.796 89.6998C197.505 88.4353 198.057 87.0918 198.766 85.6693C199.632 83.8516 200.42 82.0339 200.972 80.0581C204.202 69.1519 203.571 57.1392 199.238 46.6281C199.002 45.9959 198.687 45.3636 198.766 44.6524C198.923 42.9927 201.287 42.2814 202.784 43.0717C204.28 43.862 205.147 45.4427 205.856 47.0233C207.117 43.4669 206.408 39.1992 204.044 36.1961C201.681 33.509 198.293 31.9284 194.905 31.9284Z" fill="#7F500B" stroke="#020202" stroke-width="1.75" stroke-miterlimit="10"/>
<path d="M129.281 130.005C132.274 131.507 132.038 130.796 135.189 134.431C138.104 137.909 141.649 140.596 146.14 141.781C152.206 143.362 155.121 143.915 154.491 146.997C153.86 150.079 149.133 151.265 146.14 152.529C143.146 153.794 135.11 152.766 131.644 150.158C128.178 147.55 127.232 146.049 126.05 141.544C124.869 137.118 125.735 128.188 129.281 130.005Z" fill="white" stroke="#020202" stroke-width="1.75" stroke-miterlimit="10"/>
</g>
<defs>
<clipPath id="clip0">
<rect width="300" height="282.535" fill="white"/>
</clipPath>
</defs>
</svg>
