<svg xmlns="http://www.w3.org/2000/svg" viewBox="0 0 125 125"><title>1 collar</title><g id="shirt"><rect x="48.32" y="87.98" width="30.1" height="27.81" fill="#fff" stroke="#020202" stroke-miterlimit="10" stroke-width="0.75"/><path id="Collar" d="M45.71,83.12a6.65,6.65,0,0,0,.69-2.05,7.43,7.43,0,0,1,.72-2.56c.4-.43,1.68-.51,1.68-.51s-1,1.53-.48,2.08a24.76,24.76,0,0,0,4,3.07c1.62.95,8.6,4.56,9.35,4.91s-.09.52-.53.55-3.56.38-4.61,1.5-7.47,8.38-7.47,8.38S45.18,83.65,45.71,83.12Z" fill="#fff" stroke="#020202" stroke-miterlimit="10" stroke-width="0.75"/><path id="collar-2" data-name="collar" d="M76.12,77.68s.77-.36,1,.32.4,2,.46,2.38a22.37,22.37,0,0,0,2.93,2.5L77.42,97.62s-6.77-5-9.34-6.31S62,88.44,62.17,88.24s13.32-7,14-9.85a.86.86,0,0,0,0-.39Z" fill="#fff" stroke="#020202" stroke-miterlimit="10" stroke-width="0.75"/><line x1="59.59" y1="88.84" x2="59.59" y2="111.46" fill="#fff" stroke="#020202" stroke-miterlimit="10" stroke-width="0.75"/><line x1="65.74" y1="90.01" x2="65.74" y2="111.92" fill="#fff" stroke="#020202" stroke-miterlimit="10" stroke-width="0.75"/><circle id="button" cx="62.65" cy="96.18" r="1.13" fill="#fff" stroke="#020202" stroke-miterlimit="10" stroke-width="0.75"/><circle id="button-2" data-name="button" cx="62.65" cy="104.87" r="1.13" fill="#fff" stroke="#020202" stroke-miterlimit="10" stroke-width="0.75"/></g></svg>