<svg xmlns="http://www.w3.org/2000/svg" viewBox="0 0 125 125"><title>2 collar</title><g id="collar"><rect x="48.89" y="87.98" width="30.1" height="27.81" fill="#fff" stroke="#020202" stroke-miterlimit="10" stroke-width="0.75"/><g id="tie"><path d="M58,107.07S59,102,59.39,100.55c.29-1.1,1.28-4.92,1.24-5.28s1.81-.36,2.47-.41c1.24-.09,2.29,0,2.53.73a50.29,50.29,0,0,1,1.28,5.46c.24,1.66,1.63,9.92,1.7,10.39s1.13,3.31.89,3.71-4.23.73-5.44.43-6.69.21-6.53-.39S57.92,107.38,58,107.07Z" fill="#f44711" stroke="#020202" stroke-miterlimit="10" stroke-width="0.75"/><path d="M68,90.14c-.16.25-.8.91-1,1.21s-1.27,1.3-1.41,1.59.38,1.27.32,1.6-5.38.44-5.78.16.4-1.23.44-1.59-.68-1-1.07-1.46A9.18,9.18,0,0,1,58.6,90s-3.08-.59-1.07-1.42,10.26.53,11.46.77S68.12,90,68,90.14Z" fill="#f44711" stroke="#020202" stroke-miterlimit="10" stroke-width="0.75"/></g><path id="Collar-2" data-name="Collar" d="M46.28,83.12A6.65,6.65,0,0,0,47,81.07a7.43,7.43,0,0,1,.72-2.56c.4-.43,1.68-.51,1.68-.51s-1,1.53-.47,2.08a24.58,24.58,0,0,0,4,3.07c1.62.95,8.6,4.56,9.35,4.91s-.09.52-.52.55-3.57.38-4.62,1.5-7.47,8.38-7.47,8.38S45.75,83.65,46.28,83.12Z" fill="#fff" stroke="#020202" stroke-miterlimit="10" stroke-width="0.75"/><path id="collar-3" data-name="collar" d="M76.69,77.68s.77-.36,1,.32.4,2,.47,2.38a21.69,21.69,0,0,0,2.92,2.5L78,97.62s-6.77-5-9.34-6.31-6.07-2.87-5.91-3.07,13.32-7,13.95-9.85a.86.86,0,0,0,0-.39Z" fill="#fff" stroke="#020202" stroke-miterlimit="10" stroke-width="0.75"/></g></svg>