<svg width="1603" height="1029" viewBox="0 0 1603 1029" fill="none" xmlns="http://www.w3.org/2000/svg">
<path d="M540 653.664H226.7V1027.92H540V653.664Z" fill="#3D3D3D"/>
<path d="M539.3 654.37V1027.11H227.5V654.37H539.3ZM540.8 652.857H226V1028.63H540.8V652.857Z" fill="black"/>
<path d="M511.8 682.119H255V999.365H511.8V682.119Z" fill="white"/>
<path d="M499.3 694.531H267.5V988.367H499.3V694.531Z" fill="#F2EFEA"/>
<path d="M511.1 682.826V998.558H255.7V682.826H511.1ZM512.6 681.312H254.2V1000.07H512.5V681.312H512.6Z" fill="black"/>
<path d="M498.5 695.338V987.66H268.3V695.338H498.5ZM500 693.824H498.5H268.3H266.8V695.338V987.66V989.174H268.3H498.6H500.1V987.66V695.338V693.824H500Z" fill="black"/>
<path d="M416.7 871.014C416.7 871.014 436.9 877.976 440.6 879.995C455.8 888.168 472 894.727 476.9 915.412C480.4 930.346 482.5 941.547 483.8 953.655C485 964.351 486.8 973.231 486.8 987.862L399.3 988.165L276.6 988.568C275.7 983.725 277.3 978.68 277.3 973.735C277.3 971.314 276.8 968.892 276.8 966.47C276.8 961.829 278.6 957.49 278.6 952.848C278.6 949.316 279.4 945.886 279.4 942.253C279.4 928.53 287.7 906.734 297.9 897.249C313.4 882.921 338.1 876.16 355.9 867.381C356 867.381 412.8 870.61 416.7 871.014Z" fill="#F7BB92" stroke="#020202" stroke-width="1.5" stroke-miterlimit="10"/>
<path d="M356 867.381L341.5 873.738C341.5 881.104 341.5 888.471 341.5 895.837C341.5 901.487 341.5 907.138 341.5 912.789C341.5 924.191 343.9 933.373 352.5 940.84C361.4 948.509 372.8 953.454 384.4 953.655C393.8 953.857 403.3 951.94 411.9 947.803C417.4 945.078 423.4 941.345 426.5 935.492C430.4 928.126 428.7 918.641 429 910.569C429.4 898.965 429.7 887.26 429.8 875.656C429.8 875.656 424.6 873.032 416.7 871.014C399.7 866.574 369.9 865.565 356 867.381Z" fill="#A56621" stroke="black" stroke-width="1.5" stroke-miterlimit="10"/>
<path d="M355.3 885.746C355.3 885.746 357.3 872.931 357 869.5C356.7 866.07 357 853.255 357 853.255C357 853.255 352.1 845.687 351.7 843.971C351.2 841.751 348.9 835.697 347.2 831.964C344.7 826.515 345.1 818.745 348.4 818.039C351.7 817.332 355.6 820.36 357 822.378C358.4 824.396 363.1 831.661 363.1 831.661C363.1 831.661 363.6 821.772 365.1 818.341C366.6 815.012 375.7 800.986 376.7 795.638C377.7 790.189 377.3 788.877 377.3 788.877C377.3 788.877 386.4 794.629 392.9 790.794C399.4 786.96 406.6 782.924 406.6 782.924C406.6 782.924 408.8 789.281 410.7 790.189C412.6 791.097 423.1 792.712 424.6 796.748C426 800.784 427.3 811.177 426.6 821.47C425.9 831.762 424.3 853.456 422.1 859.107C419.9 864.758 414.8 873.638 414.8 873.638L416.9 882.921" fill="#A56621"/>
<path d="M355.3 885.746C355.3 885.746 357.3 872.931 357 869.5C356.7 866.07 357 853.255 357 853.255C357 853.255 352.1 845.687 351.7 843.971C351.2 841.751 348.9 835.697 347.2 831.964C344.7 826.515 345.1 818.745 348.4 818.039C351.7 817.332 355.6 820.36 357 822.378C358.4 824.396 363.1 831.661 363.1 831.661C363.1 831.661 363.6 821.772 365.1 818.341C366.6 815.012 375.7 800.986 376.7 795.638C377.7 790.189 377.3 788.877 377.3 788.877C377.3 788.877 386.4 794.629 392.9 790.794C399.4 786.96 406.6 782.924 406.6 782.924C406.6 782.924 408.8 789.281 410.7 790.189C412.6 791.097 423.1 792.712 424.6 796.748C426 800.784 427.3 811.177 426.6 821.47C425.9 831.762 424.3 853.456 422.1 859.107C419.9 864.758 414.8 873.638 414.8 873.638L416.9 882.921" stroke="black" stroke-width="1.5" stroke-miterlimit="10"/>
<path d="M384.2 953.655C384.2 953.655 384.9 939.529 385.4 935.593Z" fill="#7F4C0E"/>
<path d="M384.2 953.655C384.2 953.655 384.9 939.529 385.4 935.593" stroke="black" stroke-width="1.5" stroke-miterlimit="10"/>
<path d="M382.5 879.894C382.5 879.894 387.9 888.672 396.7 888.471C405 888.269 407 877.573 407 877.573" fill="#A56621"/>
<path d="M382.5 879.894C382.5 879.894 387.9 888.672 396.7 888.471C405 888.269 407 877.573 407 877.573" stroke="black" stroke-width="1.5" stroke-miterlimit="10"/>
<path d="M383.6 894.525C383.6 894.525 377.9 893.112 374.7 891.7" stroke="#020202" stroke-width="1.5" stroke-miterlimit="10"/>
<path d="M384.4 882.517C384.4 882.517 376.8 881.407 374.7 877.573" stroke="#231F20" stroke-width="1.5" stroke-miterlimit="10"/>
<path d="M406.5 782.318C406.5 782.318 406.6 783.025 406.5 784.235C406.4 786.556 407.8 788.574 409.6 789.684C413.5 792.005 418.2 792.409 422.1 794.528C426.9 797.151 426.1 804.316 426.7 808.957C427.3 813.902 426 835.193 423.3 853.557C422.7 857.795 421.1 862.538 419.1 866.17C416.2 871.518 411.1 876.362 406.1 879.591" stroke="#231F20" stroke-width="1.5" stroke-miterlimit="10"/>
<path d="M358.3 851.741C358.3 851.741 359.3 852.649 360.7 851.539C362.1 850.429 362.5 851.338 362.5 851.338" stroke="#231F20" stroke-width="1.5" stroke-miterlimit="10"/>
<path d="M352.4 846.494C351.4 844.476 351.6 840.642 350.1 838.321C348.6 836 346.2 829.643 345.6 826.918C345 824.093 346.1 818.947 348.4 818.14C350.7 817.433 353.8 816.424 356.2 820.763C358.6 825.102 363 831.762 363 831.762C363 831.762 363.2 821.671 365.9 816.122C368.7 810.572 375.4 801.995 375.5 799.371C375.6 796.748 378.9 792.005 377.6 790.29C376.3 788.675 375.3 790.492 383.5 791.501C391.7 792.51 403.6 788.272 406.4 783.025" stroke="#231F20" stroke-width="1.5" stroke-miterlimit="10"/>
<path d="M352.7 854.465C349.5 854.465 346.9 851.943 346.6 848.613C346.3 845.081 348.8 841.953 352.2 841.651C352.4 841.651 352.6 841.651 352.7 841.651C355.9 841.651 358.5 844.274 358.8 847.503C359.1 851.035 356.6 854.163 353.2 854.465C353.1 854.465 352.9 854.465 352.7 854.465Z" fill="white"/>
<path d="M352.8 842.357C355.6 842.357 357.9 844.678 358.2 847.503C358.5 850.631 356.3 853.456 353.3 853.658C353.1 853.658 353 853.658 352.8 853.658C350 853.658 347.7 851.438 347.4 848.411C347.1 845.283 349.3 842.458 352.3 842.256C352.4 842.357 352.6 842.357 352.8 842.357ZM352.8 840.843C352.6 840.843 352.4 840.843 352.2 840.843C348.4 841.146 345.6 844.678 345.9 848.613C346.2 852.347 349.2 855.172 352.8 855.172C353 855.172 353.2 855.172 353.4 855.172C357.2 854.869 360 851.337 359.7 847.402C359.3 843.669 356.3 840.843 352.8 840.843Z" fill="black"/>
<path d="M409.6 801.288C409.6 801.288 415.3 796.95 418.5 804.82" stroke="#231F20" stroke-width="1.5" stroke-miterlimit="10"/>
<path d="M388.2 800.582C388.2 800.582 383.5 798.766 380.7 803.004" stroke="#231F20" stroke-width="1.5" stroke-miterlimit="10"/>
<path d="M410.7 832.67C410.8 834.184 411.9 835.394 413.1 835.193C414.3 835.092 415.2 833.78 415 832.266C414.9 830.753 413.8 829.542 412.6 829.744C411.4 829.744 410.5 831.156 410.7 832.67Z" fill="white" stroke="#020202" stroke-width="1.5" stroke-miterlimit="10"/>
<path d="M384.8 832.266C384.9 833.78 386 834.991 387.2 834.789C388.4 834.688 389.3 833.376 389.1 831.863C389 830.349 387.9 829.138 386.7 829.34C385.5 829.34 384.7 830.753 384.8 832.266Z" fill="white" stroke="#020202" stroke-width="1.5" stroke-miterlimit="10"/>
<path d="M415.7 841.348C415.7 841.348 415.5 842.155 412.9 841.651C410.3 841.045 409.7 839.834 409.7 839.834" stroke="#231F20" stroke-width="1.5" stroke-miterlimit="10"/>
<path d="M388.5 839.532C388.5 839.532 386.1 842.76 384.1 842.155C382 841.55 380.9 840.238 380.9 840.238" stroke="#231F20" stroke-width="1.5" stroke-miterlimit="10"/>
<path d="M389 810.067C389 810.067 384.5 804.921 381.5 810.773C378.4 816.626 377.3 819.35 377.3 819.35" stroke="#231F20" stroke-width="1.5" stroke-miterlimit="10"/>
<path d="M410.4 810.975C410.4 810.975 413.4 807.545 416.8 812.186C420.2 816.828 421.3 820.965 421.3 820.965" stroke="#231F20" stroke-width="1.5" stroke-miterlimit="10"/>
<path d="M398.1 840.339C398.1 840.339 401.4 846.797 404.6 848.815C418.3 857.694 393.9 863.244 392.8 855.676" stroke="#231F20" stroke-width="1.5" stroke-miterlimit="10"/>
<path d="M346.8 818.442C346.8 818.442 342.7 804.114 342.7 797.555C342.7 783.731 349.7 770.21 349.7 770.21C349.7 770.21 349.1 764.256 350.4 759.615C351.8 754.973 361.1 744.378 370.3 743.47C379.6 742.562 386.2 743.974 388.2 744.882C390.1 745.791 396 750.029 396 750.029C396 750.029 404 745.791 412.8 746.598C421.6 747.506 429.1 749.524 431.9 753.358C434.7 757.193 438 760.825 438.3 767.183C438.6 773.54 438 779.796 438 779.796C438 779.796 439.7 784.841 439.5 789.785C439.3 794.73 435.7 805.123 433.7 809.563C431.7 814.103 426.5 821.469 426.5 821.469C426.5 821.469 426.1 805.224 426.2 802.298C426.3 799.371 423.7 794.023 420.2 793.115C416.7 792.207 410.8 791.702 409.6 789.583C408.4 787.364 406.5 782.924 406.5 782.924C406.5 782.924 404.9 783.731 400.7 786.153C396.5 788.574 394.7 791.299 391.4 792.51C388 793.821 383.6 792.207 382 791.803C380.9 791.501 377.3 788.776 377.3 788.776C377.3 788.776 378.5 794.73 376.9 799.069C375.3 803.407 372 808.655 368.5 813.397C365.1 818.241 363.1 831.459 363.1 831.459C363.1 831.459 354.6 819.451 352.7 818.14C350.4 817.03 346.8 818.442 346.8 818.442Z" fill="#231F20" stroke="black" stroke-width="1.5" stroke-miterlimit="10"/>
<path d="M353.3 818.947C356.3 821.167 359.1 825.506 359.1 825.506C361.2 820.158 362.4 815.012 364.5 809.765C367 803.408 370.4 797.858 373.5 791.803C374.7 789.583 375.6 787.061 377.8 785.749C382.3 782.924 387.1 779.897 391 776.365C392.7 774.75 395.8 771.017 398.3 771.017C400.3 771.017 405.4 776.668 407.3 777.374C410.4 778.383 412.2 780.502 414.9 782.52C422.2 788.171 423.8 796.041 424.8 803.206C425.7 809.26 426.5 819.552 426.7 825.708L433.6 809.664C433.6 809.664 434.5 783.025 421.3 774.952C411.9 769.201 401.2 770.109 395.9 770.311C389.1 770.512 380.4 769.604 374.6 773.136C366.8 777.878 360.7 784.538 357.3 792.812C354.4 799.775 349.7 810.471 347.2 817.534C347.3 817.534 350.8 817.131 353.3 818.947Z" fill="#F44711" stroke="#020202" stroke-width="1.5" stroke-miterlimit="10"/>
<path d="M399.4 768.999C399.4 768.999 397.3 760.119 386.4 761.935C375.5 763.752 372.7 770.714 367 770.916C361.3 771.219 357.4 771.622 357.4 771.622C357.4 771.622 366.8 780.3 374.9 780.805C382.9 781.309 393.2 778.888 399.4 768.999Z" fill="#F44711" stroke="#020202" stroke-width="1.5" stroke-miterlimit="10"/>
<path d="M398 769.402C396.5 763.146 404.2 758.101 409.5 759.11C415.6 760.321 419.7 765.164 424.5 768.898C429.1 772.43 433.8 771.824 439.2 772.53C439.2 772.53 430.4 778.282 422.5 778.887C417.9 779.19 410.2 778.887 406.2 776.668C402.8 774.75 399.6 774.044 398.3 770.109C398.2 769.907 398.1 769.604 398 769.402Z" fill="#F44711" stroke="#020202" stroke-width="1.5" stroke-miterlimit="10"/>
<path d="M389.6 865.767C389.1 865.262 388.5 864.657 388.1 864.152C387.4 863.345 385.2 860.015 383.8 860.52C382.3 861.024 382.4 866.171 382.4 867.583C382.4 869.097 382.6 870.711 383.4 871.922C384.3 873.133 385.7 873.738 387 874.142C388.7 874.747 390.4 875.151 392.1 875.454C393.1 875.656 394.2 875.757 395.2 875.555C396.2 875.252 397.2 874.546 397.4 873.436C397.6 872.326 397.1 871.216 396.3 870.509C395.5 869.803 394.5 869.299 393.6 868.794C392.2 867.987 390.8 866.978 389.6 865.767Z" fill="white" stroke="#020202" stroke-width="1.5" stroke-miterlimit="10"/>
<path d="M448.9 948.711C449.4 954.866 446.3 964.149 448.7 967.984C453.3 975.451 453.3 987.66 453.3 987.66" stroke="#231F20" stroke-width="1.5" stroke-miterlimit="10"/>
<path d="M310.1 948.711C311.4 953.554 314.2 960.214 310.9 964.957C303.7 975.552 309 988.568 309 988.568" stroke="#231F20" stroke-width="1.5" stroke-miterlimit="10"/>
<path d="M1567.4 78.5043H1202.7V375.771H1567.4V78.5043Z" fill="#3D3D3D"/>
<path d="M1566.7 79.2106V374.964H1203.5V79.2106H1566.7ZM1568.2 77.697H1202V376.477H1568.2V77.697Z" fill="black"/>
<path d="M1553 92.5301H1216.3V361.947H1553V92.5301Z" fill="#F2EFEA"/>
<path d="M1552.3 93.2364V361.14H1217.1V93.2364H1552.3ZM1553.8 91.7228H1552.3H1217.1H1215.6V93.2364V361.14V362.653H1217.1H1552.3H1553.8V361.14V93.2364V91.7228Z" fill="black"/>
<path d="M1379.9 284.755L1436.6 296.258L1417.7 361.846H1406.8L1372.5 289.8L1379.9 284.755Z" fill="#3BC3ED" stroke="#020202" stroke-width="1.5" stroke-miterlimit="10"/>
<path d="M1438.4 223.808C1438.4 223.808 1437.3 242.879 1436.9 244.392C1436.5 246.007 1436 247.823 1433.9 251.759C1426.3 265.583 1414.3 281.727 1396.7 278.599C1385.2 276.581 1379.5 267.399 1373 258.62C1367.2 250.85 1364.2 244.594 1363.8 242.576C1363.4 240.659 1363.3 233.596 1363.3 233.596L1362.3 233.898C1362.3 233.898 1362.2 235.916 1360.5 236.118C1358 236.421 1356.6 233.293 1355.9 231.376C1354.8 228.147 1355.3 224.716 1354.2 221.487C1353 218.258 1347.9 207.158 1352 204.333C1355.6 201.911 1358.8 205.342 1360 208.672C1360.5 210.085 1360.9 212.103 1360.9 212.103L1361.6 211.901C1361.6 211.901 1361.5 205.746 1361.6 201.407C1361.8 193.334 1359.3 184.354 1362.3 176.584C1372.2 150.853 1381.5 149.945 1404.3 149.138C1424.7 148.432 1436.1 165.182 1437.7 172.851C1438.9 178.804 1439.8 185.363 1439.5 191.417C1439.2 197.068 1438.4 211.195 1438.4 211.195L1439.1 211.296C1439.1 211.296 1440.6 206.654 1441.8 204.434C1443 202.214 1445.8 202.012 1446.9 202.82C1448 203.627 1449 204.939 1448.4 207.058C1447.8 209.277 1446.7 215.634 1446.3 218.258C1446 220.074 1446.2 221.992 1446.2 223.909C1446.2 225.624 1445.5 231.578 1443 231.477C1441.4 231.477 1437.6 231.578 1438.4 223.808Z" fill="#F4BC95" stroke="#020202" stroke-width="1.5" stroke-miterlimit="10"/>
<path d="M1410.6 196.362C1410.9 197.976 1411.6 197.774 1413.2 201.003C1414.8 204.232 1414.2 204.636 1414.4 207.159C1414.7 209.681 1419.2 207.966 1422.4 214.222C1424.6 218.359 1424 221.083 1423.4 225.624C1423.1 227.743 1423.6 232.99 1422.3 234.706C1421 236.32 1418.7 236.522 1416.7 236.219C1412.4 235.412 1405.9 233.898 1402.8 230.569C1400.9 228.55 1402.9 226.028 1399.9 224.716C1397.9 223.808 1394.4 225.321 1393 223.303C1392 221.891 1391.8 214.121 1394.6 214.726" stroke="#020202" stroke-width="1.5" stroke-miterlimit="10"/>
<path d="M1333.4 217.653L1353.2 206.25L1369.8 276.783H1330.7L1322.7 243.686L1333.4 217.653Z" fill="#BA9E27" stroke="#020202" stroke-width="1.5" stroke-miterlimit="10"/>
<path d="M1512.1 362.048C1512.1 362.048 1513.9 347.518 1508.5 334.602C1503.1 321.686 1500 320.576 1495.7 312.504C1491.4 304.431 1483 301.303 1472.5 293.432C1462 285.562 1447.6 275.673 1447.6 275.673C1447.6 275.673 1448.1 264.574 1448.1 257.006C1448.1 249.438 1447 243.989 1450.2 237.531C1453.4 231.073 1453.4 219.671 1453.9 211.094C1454.4 202.517 1452.3 187.986 1451.8 180.923C1451.3 173.86 1445.4 162.558 1441.6 155.596C1437.9 148.633 1433.7 143.185 1423 138.341C1412.3 133.498 1395.8 125.122 1385.1 121.692C1374.4 118.16 1368.5 115.536 1360.5 121.692C1352.5 127.847 1345.5 143.79 1341.3 154.789C1337.7 164.173 1330.8 178.804 1327.4 186.372C1324.1 193.94 1320.3 201.205 1319.8 208.167C1319.3 215.13 1317.4 221.891 1311.5 231.578C1305.6 241.264 1321.8 257.409 1321.2 263.564C1320.7 269.619 1320.5 277.691 1320.5 277.691C1320.5 279.81 1297.7 291.112 1294.6 293.332C1285.7 299.789 1279.2 307.862 1274.4 317.751C1271.5 323.805 1269.1 330.162 1266.4 336.317C1263.7 342.573 1263.3 343.683 1263.3 350.646C1263.3 355.994 1263.3 361.846 1263.3 361.846H1266.4H1311.8H1348H1362.3H1410.4H1413C1413 361.846 1413.2 361.039 1412.7 359.223C1412.7 359.223 1398.8 306.55 1394 300.496C1389.2 294.441 1374.4 277.489 1369.6 276.48C1364.8 275.471 1361.2 274.664 1352.8 269.821C1344.4 264.977 1328 248.63 1328 248.63C1328 248.63 1331.4 234.706 1335.6 230.871C1339.8 227.037 1350.8 209.681 1356 201.407C1361.2 193.133 1369.4 165.585 1381.9 159.935C1394.4 154.284 1410.1 157.715 1420 158.32C1429.9 158.926 1438.3 170.631 1438.7 178.703C1439.3 190.005 1440.1 223.909 1440.2 226.734C1440.4 231.678 1417.2 288.69 1415 300.496C1412.9 312.302 1416.1 361.543 1416.1 361.543L1512.1 362.048Z" fill="#F7DE48" stroke="#020202" stroke-width="1.5" stroke-miterlimit="10"/>
<path d="M1444.9 288.488C1444.9 288.488 1453.2 309.577 1456.5 319.769C1459 327.639 1462.2 341.161 1461.4 343.885L1463.1 355.085L1461 355.893L1459.3 344.49C1459.3 344.49 1454.2 333.694 1451.3 321.989C1448.2 309.577 1440.2 292.524 1440.2 292.524" fill="white"/>
<path d="M1444.9 288.488C1444.9 288.488 1453.2 309.577 1456.5 319.769C1459 327.639 1462.2 341.161 1461.4 343.885L1463.1 355.085L1461 355.893L1459.3 344.49C1459.3 344.49 1454.2 333.694 1451.3 321.989C1448.2 309.577 1440.2 292.524 1440.2 292.524" stroke="black" stroke-width="1.5" stroke-miterlimit="10"/>
<path d="M1348.5 286.773C1348.5 286.773 1348.3 302.413 1350.5 314.421C1352.2 323.704 1353.9 337.023 1352.7 340.051L1353.1 352.866L1350.7 353.572L1350.4 340.454C1350.4 340.454 1346.4 329.96 1344.7 316.338C1343 301.808 1343.5 287.681 1343.5 287.681" fill="white"/>
<path d="M1348.5 286.773C1348.5 286.773 1348.3 302.413 1350.5 314.421C1352.2 323.704 1353.9 337.023 1352.7 340.051L1353.1 352.866L1350.7 353.572L1350.4 340.454C1350.4 340.454 1346.4 329.96 1344.7 316.338C1343 301.808 1343.5 287.681 1343.5 287.681" stroke="black" stroke-width="1.5" stroke-miterlimit="10"/>
<path d="M1440.4 277.691C1442 278.599 1443.5 279.608 1444.9 280.819C1446.3 281.929 1447.3 283.241 1448.4 284.654C1448.5 284.855 1448.8 285.057 1448.9 285.259C1449.2 286.268 1444.8 289.094 1444 289.699C1442.7 290.809 1441.4 291.919 1440.2 293.029C1436.7 296.157 1433 299.184 1430.2 303.018C1427.7 306.449 1425.8 310.183 1424.4 314.118C1422.6 319.163 1421.5 324.41 1420.6 329.556C1419.3 336.62 1417.3 343.582 1415.5 350.646" stroke="#020202" stroke-width="1.5" stroke-miterlimit="10"/>
<path d="M1360.8 282.535C1360.8 282.535 1365.7 294.038 1371.7 316.035C1377.7 338.033 1386 361.846 1386 361.846" stroke="#020202" stroke-width="1.5" stroke-miterlimit="10"/>
<path d="M1328.2 248.933C1328.2 248.933 1325 255.997 1326.8 261.546C1328.5 267.096 1327.7 266.087 1330.3 273.251C1332.8 280.416 1341.8 288.488 1341.8 288.488C1341.8 288.488 1357.7 284.452 1361.2 282.03C1364.7 279.608 1365.6 278.498 1365.6 278.498" stroke="#020202" stroke-width="1.5" stroke-miterlimit="10"/>
<path d="M1437.1 209.883C1437.3 206.553 1437.9 203.324 1439.6 200.398C1441.9 207.259 1443.6 214.323 1444.6 221.386C1444.9 223.404 1444.9 225.826 1443.2 226.835C1445.4 228.954 1445.2 232.99 1442.7 234.807C1444.2 238.944 1443.1 243.888 1439.9 247.016C1440.1 249.337 1439.5 251.658 1438.1 253.575C1439.3 254.584 1440.6 255.694 1441.2 257.207C1441.8 258.721 1441.6 260.638 1440.3 261.546C1442.5 262.858 1443.6 265.684 1443.5 268.307C1443.4 270.931 1442.4 273.352 1441.3 275.774C1440.5 277.59 1439.6 279.407 1438.2 280.819C1436.8 282.232 1434.8 283.14 1432.9 282.737C1434.3 284.351 1433.5 286.874 1432 288.387C1430.5 289.901 1428.6 290.809 1427.2 292.423C1426.4 293.332 1425.9 294.442 1425 295.249C1423.8 296.359 1422.1 296.762 1420.8 297.771C1419.5 298.78 1418.6 300.193 1417.2 301C1414.4 302.514 1411.1 300.698 1408.5 298.881C1407.2 300.899 1404.8 302.211 1402.4 302.211C1400 302.211 1397.6 300.799 1396.4 298.68C1392.8 301.202 1387.3 300.294 1384.5 296.863C1381 297.973 1376.4 298.78 1374.4 295.652C1373.3 293.937 1373.6 291.616 1372.6 289.8C1371.7 288.084 1369.8 287.075 1369 285.36C1368.4 284.149 1368.4 282.636 1367.8 281.324C1367.4 280.416 1366.7 279.608 1366.2 278.801C1365.4 277.389 1361.2 277.792 1359.6 273.453C1357.5 267.702 1357.5 267.399 1356.5 262.959C1354.1 262.757 1348.8 262.555 1349.3 260.134C1349.4 259.528 1349.7 258.923 1349.7 258.317C1349.7 257.207 1348.9 256.4 1348.4 255.391C1347.4 253.474 1346.7 251.254 1347.9 249.539C1344.1 247.924 1342.7 246.007 1343 241.971C1343.2 237.834 1346.1 232.99 1343.5 229.761C1342.3 228.147 1343.8 224.312 1343.5 222.193C1343.2 219.772 1349.7 211.094 1350.9 209.076C1354.6 203.223 1358.9 198.582 1362.1 190.408C1362.4 202.315 1363.6 216.038 1363.9 227.945C1364.1 236.421 1364.7 245.704 1370.5 251.86C1371 252.364 1371.6 252.869 1372.3 253.171C1373.6 253.575 1374.9 252.969 1376 252.162C1378.6 250.144 1379.9 246.713 1382.5 244.796C1385.2 242.778 1388.9 242.576 1392.3 242.475C1398.9 242.274 1405.5 242.072 1412.1 241.87C1415.6 241.769 1419.2 241.668 1422.2 243.383C1426.1 245.603 1427.9 250.245 1429.3 254.483C1431.4 252.869 1429.8 249.539 1430 246.814C1430.3 243.989 1432.7 241.971 1434.4 239.65C1438.4 234.201 1438.1 226.835 1437.5 220.175C1437.3 216.845 1436.9 213.314 1437.1 209.883Z" fill="#EAE4E1" stroke="#020202" stroke-width="1.5" stroke-miterlimit="10"/>
<path d="M1396.3 194.545C1396.3 197.371 1395.1 199.691 1393.7 199.691C1392.3 199.691 1391.1 197.371 1391.1 194.545C1391.1 191.72 1391.1 189.399 1393.7 189.399C1395.4 189.399 1396.3 191.72 1396.3 194.545Z" fill="white" stroke="#020202" stroke-width="1.5" stroke-miterlimit="10"/>
<path d="M1429.6 193.637C1429.6 196.664 1428.4 199.187 1427 199.187C1425.6 199.187 1424.4 196.664 1424.4 193.637C1424.4 190.61 1424.6 188.39 1427 189.399C1429.6 190.61 1429.6 190.61 1429.6 193.637Z" fill="white" stroke="#020202" stroke-width="1.5" stroke-miterlimit="10"/>
<path d="M1396.3 202.315C1396.3 202.315 1394.5 205.847 1392.3 206.351C1390.1 206.856 1386.7 204.939 1385.9 203.425" stroke="#020202" stroke-width="1.5" stroke-miterlimit="10"/>
<path d="M1419.7 202.82C1419.7 202.82 1422.9 207.562 1425.4 207.562C1427.9 207.562 1430.7 203.021 1431 202.214" stroke="#020202" stroke-width="1.5" stroke-miterlimit="10"/>
<path d="M1419.9 180.419C1423.6 176.786 1425.1 178.602 1429.4 182.235C1431 183.547 1432.5 184.959 1434.3 186.069" stroke="#020202" stroke-width="1.5" stroke-miterlimit="10"/>
<path d="M1403.1 185.262C1403.1 185.262 1400.6 182.739 1395.7 180.318C1390.8 177.795 1384.5 173.759 1379.6 178.703C1374.7 183.648 1376 187.785 1373.6 187.785" stroke="#020202" stroke-width="1.5" stroke-miterlimit="10"/>
<path d="M1417.2 267.702C1415.6 268.408 1413.3 266.592 1412.3 265.683C1408.2 261.95 1402 261.042 1396.9 262.858C1391.5 264.775 1389.5 269.316 1387.8 266.188C1386.1 263.06 1388.8 259.427 1390.1 256.703C1391.7 253.373 1396.7 252.869 1399.8 252.667C1403.6 252.465 1408.8 252.768 1411.9 255.492C1414.1 257.51 1416 260.033 1417.4 262.656C1417.9 263.564 1418.7 264.977 1418.6 266.087C1418.3 266.894 1417.9 267.399 1417.2 267.702Z" fill="white" stroke="#020202" stroke-width="1.5" stroke-miterlimit="10"/>
<path d="M1401.3 252.868L1376.1 299.588L1365.8 293.13L1389.8 255.189L1401.3 252.868Z" fill="#020202" stroke="#020202" stroke-width="1.5" stroke-miterlimit="10"/>
<path d="M1373.5 280.718C1373.5 280.718 1375.4 280.92 1378.1 282.232C1380.8 283.544 1382.6 286.974 1382.6 286.974L1371.4 309.88L1364.5 295.551L1373.5 280.718Z" fill="#634A26" stroke="#020202" stroke-width="1.5" stroke-miterlimit="10"/>
<path d="M1342.5 296.157C1342.5 296.157 1341.4 308.064 1345.3 313.311C1349.3 318.558 1356.6 318.861 1361.8 318.255C1367 317.65 1370.4 313.109 1371.2 309.88C1372 306.651 1369.9 290.809 1368.7 288.791C1367.6 286.672 1342.7 294.341 1342.5 296.157Z" fill="#634A26" stroke="#020202" stroke-width="1.5" stroke-miterlimit="10"/>
<path d="M1362.3 283.846C1357.7 282.03 1352.5 280.617 1348.2 283.947C1345.7 285.864 1340.1 292.726 1342.6 296.157C1344.8 299.184 1350.2 301.606 1358.1 300.193C1366 298.78 1369 293.231 1368.3 290.002C1367.5 286.773 1369.6 286.672 1362.3 283.846Z" fill="#444131" stroke="#020202" stroke-width="1.5" stroke-miterlimit="10"/>
<path d="M1339.4 194.848C1338.7 192.426 1338.1 193.334 1339.4 187.482C1340.5 182.739 1343 179.914 1340.3 175.171C1339.1 172.851 1337.1 171.64 1334.8 169.924C1326.3 163.668 1322.2 163.567 1324.6 157.513C1327 151.459 1329.4 152.468 1328.3 149.441C1327.2 146.413 1327.6 145.404 1324.8 145.203C1322 145.001 1323.9 145.404 1319.8 145.203C1315.7 145.001 1315.7 145.304 1312.8 145.102C1310 144.9 1311.1 145.505 1307.1 145.102C1303.2 144.698 1301.9 145.304 1298.4 142.075C1294.9 138.745 1294.3 133.8 1289 138.038C1283.8 142.276 1281.6 144.395 1282 146.817C1282.4 149.239 1282.7 151.56 1285.1 151.055C1287.5 150.551 1285.1 150.853 1290.5 151.055C1295.9 151.257 1292.2 149.138 1299.9 152.569C1307.5 155.999 1308.4 156.807 1310.8 155.999C1313.2 155.293 1317.6 152.064 1317.3 157.513C1317.1 162.962 1313.2 166.393 1317.1 169.42C1321 172.447 1318.2 172.548 1324.9 173.456C1327.3 173.759 1330.6 173.557 1332.9 174.566C1336.3 176.181 1337.9 178.804 1337.1 182.134C1335.4 189.298 1333.6 188.895 1335.8 191.821C1338 194.747 1339.3 195.958 1339.3 195.958" fill="white"/>
<path d="M1339.4 194.848C1338.7 192.426 1338.1 193.334 1339.4 187.482C1340.5 182.739 1343 179.914 1340.3 175.171C1339.1 172.851 1337.1 171.64 1334.8 169.924C1326.3 163.668 1322.2 163.567 1324.6 157.513C1327 151.459 1329.4 152.468 1328.3 149.441C1327.2 146.413 1327.6 145.404 1324.8 145.203C1322 145.001 1323.9 145.404 1319.8 145.203C1315.7 145.001 1315.7 145.304 1312.8 145.102C1310 144.9 1311.1 145.505 1307.1 145.102C1303.2 144.698 1301.9 145.304 1298.4 142.075C1294.9 138.745 1294.3 133.8 1289 138.038C1283.8 142.276 1281.6 144.395 1282 146.817C1282.4 149.239 1282.7 151.56 1285.1 151.055C1287.5 150.551 1285.1 150.853 1290.5 151.055C1295.9 151.257 1292.2 149.138 1299.9 152.569C1307.5 155.999 1308.4 156.807 1310.8 155.999C1313.2 155.293 1317.6 152.064 1317.3 157.513C1317.1 162.962 1313.2 166.393 1317.1 169.42C1321 172.447 1318.2 172.548 1324.9 173.456C1327.3 173.759 1330.6 173.557 1332.9 174.566C1336.3 176.181 1337.9 178.804 1337.1 182.134C1335.4 189.298 1333.6 188.895 1335.8 191.821C1338 194.747 1339.3 195.958 1339.3 195.958" stroke="black" stroke-width="1.5" stroke-miterlimit="10"/>
<path d="M1602.2 564.867H1303.7V866.07H1602.2V564.867Z" fill="#3D3D3D"/>
<path d="M1601.5 565.574V865.262H1304.5V565.574H1601.5ZM1603 564.06H1303V866.776H1603V564.06Z" fill="black"/>
<path d="M1586.4 581.012H1319.5V849.925H1586.4V581.012Z" fill="#F2EFEA"/>
<path d="M1585.7 581.719V849.117H1320.3V581.719H1585.7ZM1587.2 580.205H1585.7H1320.3H1318.8V581.719V849.117V850.631H1320.3H1585.7H1587.2V849.117V581.719V580.205Z" fill="black"/>
<path d="M1482.6 756.789C1482.6 756.789 1481.2 756.184 1481.2 754.973C1481.2 753.762 1481.2 741.149 1481.2 741.149L1427.9 743.772C1427.9 743.772 1428.5 760.119 1427.3 761.532C1427.3 761.532 1424.1 765.467 1425.9 769.402C1427.7 773.338 1440.3 781.511 1448.9 782.823C1457.5 784.135 1478.7 782.318 1482.6 777.374C1486.4 772.53 1489.9 759.211 1482.6 756.789Z" fill="#D19A75" stroke="#020202" stroke-width="1.5" stroke-miterlimit="10"/>
<path d="M1490.7 706.135C1490.7 706.135 1489.6 725.105 1489.2 726.719C1488.8 728.334 1488.3 730.15 1486.2 734.086C1484.1 738.021 1476.9 747.506 1474.9 749.625C1472.9 751.744 1468.5 758.202 1466.1 758.807C1463.7 759.514 1456.7 760.926 1454.1 760.725C1451.5 760.523 1442.3 759.312 1440.3 758.101C1438.3 756.89 1431.3 748.515 1425.6 740.745C1419.9 732.976 1416.8 726.719 1416.4 724.802C1416 722.885 1415.9 715.822 1415.9 715.822L1414.9 716.124C1414.9 716.124 1414.8 718.143 1413.1 718.344C1410.7 718.647 1409.2 715.519 1408.5 713.703C1407.4 710.474 1407.9 707.043 1406.8 703.814C1405.6 700.585 1400.5 689.586 1404.6 686.761C1408.2 684.339 1411.4 687.77 1412.6 691.1C1413.1 692.513 1413.5 694.43 1413.5 694.43L1414.2 694.228C1414.2 694.228 1414.1 688.073 1414.2 683.734C1414.4 675.661 1411.9 666.681 1414.9 658.911C1424.7 633.281 1434 632.272 1456.8 631.566C1477.1 630.859 1488.5 647.509 1490.1 655.178C1491.3 661.131 1492.2 667.589 1491.9 673.744C1491.6 679.395 1490.8 693.421 1490.8 693.421L1491.5 693.522C1491.5 693.522 1493 688.88 1494.2 686.66C1495.4 684.44 1498.2 684.238 1499.2 685.046C1500.2 685.853 1501.3 687.064 1500.7 689.284C1500.1 691.504 1499 697.861 1498.6 700.383C1498.3 702.199 1498.5 704.117 1498.5 706.034C1498.5 707.749 1497.8 713.703 1495.3 713.602C1493.7 713.905 1489.9 714.005 1490.7 706.135Z" fill="#D19A75" stroke="#020202" stroke-width="1.5" stroke-miterlimit="10"/>
<path d="M1486.6 772.43H1426.3V828.634H1486.6V772.43Z" fill="white" stroke="#020202" stroke-width="1.5" stroke-miterlimit="10"/>
<path d="M1421.1 762.642C1421.5 762.238 1422.2 759.816 1422.5 758.505C1422.8 757.193 1423.1 754.166 1423.9 753.358C1424.7 752.45 1427.3 752.349 1427.3 752.349C1427.3 752.349 1425.3 755.477 1426.4 756.587C1427.5 757.697 1431.2 760.825 1434.4 762.844C1437.6 764.761 1451.6 772.026 1453.1 772.732C1454.6 773.439 1452.9 773.741 1452 773.842C1451.1 773.943 1445.7 775.356 1443.6 777.576C1441.5 779.896 1427.8 793.721 1427.8 793.721C1427.8 793.721 1420 763.752 1421.1 762.642Z" fill="white" stroke="#020202" stroke-width="1.5" stroke-miterlimit="10"/>
<path d="M1482 751.643C1482 751.643 1483.5 750.937 1483.9 752.248C1484.3 753.661 1484.7 756.386 1484.8 757.092C1484.9 757.798 1490.7 762.137 1490.7 762.137L1484.6 791.904C1484.6 791.904 1471 781.915 1465.9 779.089C1460.7 776.365 1453.8 773.237 1454.1 772.934C1454.4 772.53 1480.8 758.807 1482 753.056C1482.1 752.753 1482.1 752.551 1482 752.248V751.643V751.643Z" fill="white" stroke="#020202" stroke-width="1.5" stroke-miterlimit="10"/>
<path d="M1444.5 811.076C1444.5 811.076 1446.6 800.784 1447.4 797.858C1448 795.638 1450 787.969 1449.9 787.162C1449.8 786.354 1453.5 786.455 1454.8 786.354C1457.3 786.153 1459.4 786.254 1459.9 787.868C1460.4 789.482 1462 795.537 1462.4 798.867C1462.9 802.197 1465.7 818.947 1465.8 819.855C1465.9 820.662 1468.1 826.515 1467.6 827.322C1467.1 828.129 1459.1 828.836 1456.7 828.23C1454.3 827.625 1443.3 828.634 1443.6 827.423C1444 826.212 1444.4 811.682 1444.5 811.076Z" fill="#F44711" stroke="#020202" stroke-width="1.5" stroke-miterlimit="10"/>
<path d="M1463.1 777.677C1463.1 777.878 1463 778.181 1462.7 778.585C1462 779.695 1461.3 780.199 1460.5 781.208C1460 781.814 1459.4 782.621 1459.6 783.327C1459.7 783.832 1460 784.134 1460.2 784.639C1460.4 785.144 1460.4 785.648 1459.9 785.951C1459.8 786.052 1459.6 786.052 1459.4 786.052C1456.1 786.455 1452.8 786.455 1449.5 786.253C1449.3 786.253 1449 786.253 1448.8 786.052C1448.3 785.648 1448.5 784.841 1448.8 784.336C1449.1 783.832 1449.6 783.125 1449.4 782.52C1449.3 782.217 1448.9 781.915 1448.6 781.713C1447.5 781.006 1446.2 780.805 1445 779.997C1444.5 779.695 1444.1 779.291 1443.8 778.887C1442.4 776.768 1452.1 772.934 1453.9 772.934C1456.5 772.934 1457.6 774.246 1459.4 775.053C1460.3 775.558 1461.3 776.062 1462.1 776.668C1462.8 777.071 1463.1 777.374 1463.1 777.677Z" fill="#F44711" stroke="#020202" stroke-width="1.5" stroke-miterlimit="10"/>
<path d="M1416.6 685.449C1416.6 685.449 1414 697.861 1412.7 694.43C1411.4 690.999 1411.5 688.88 1410.3 686.357C1409.1 683.734 1405.5 676.67 1405.9 675.46C1406.2 674.249 1406 665.066 1405.9 660.627C1405.8 656.187 1404.7 646.5 1406.6 642.564C1408.5 638.629 1413.8 632.575 1414.6 632.07C1415.5 631.566 1417.3 630.557 1417.3 630.557C1417.3 630.557 1417 624.502 1422.6 620.87C1428.2 617.237 1442.1 610.275 1456.6 609.77C1471.1 609.266 1488.2 623.09 1491.3 627.025C1494.4 630.96 1495.4 636.207 1495.4 636.207C1495.4 636.207 1499.3 641.555 1499.5 643.271C1499.7 644.986 1499.5 647.912 1499.5 648.114C1499.2 653.765 1504.8 666.681 1499.2 671.423C1498.2 672.332 1497.3 673.139 1497.3 673.139C1497.3 673.139 1496.4 680.908 1495.4 683.633C1494.4 686.357 1493.9 690.898 1492.2 691.604C1490.5 692.311 1489.5 693.017 1489.5 693.017C1489.8 686.963 1490.3 680.908 1490.2 674.854C1490.1 668.8 1490 665.268 1485.5 661.232C1483.8 659.718 1480.9 658.104 1475.8 658.306C1470.7 658.508 1461.9 661.736 1458.8 657.801C1455.7 653.866 1460 649.527 1454.6 648.821C1449.8 648.215 1444.7 649.83 1439.8 650.031C1436.8 650.132 1431.5 650.132 1429 648.215C1427.6 647.206 1427.6 647.206 1427.6 647.206C1427.6 647.206 1426.6 651.646 1425 654.068C1423.4 656.489 1422.8 659.113 1422.3 662.14C1421.8 665.268 1419.4 665.773 1418.2 668.396C1417 671.02 1417.5 681.817 1416.6 685.449Z" fill="#23211B" stroke="black" stroke-width="1.5" stroke-miterlimit="10"/>
<path d="M1442.4 686.156C1442.4 688.981 1441.2 691.302 1439.8 691.302C1438.4 691.302 1437.2 688.981 1437.2 686.156C1437.2 683.33 1437.2 681.009 1439.8 681.009C1441.5 681.009 1442.4 683.33 1442.4 686.156Z" fill="white" stroke="#020202" stroke-width="1.5" stroke-miterlimit="10"/>
<path d="M1475.6 685.247C1475.6 688.275 1474.4 690.797 1473 690.797C1471.6 690.797 1470.4 688.275 1470.4 685.247C1470.4 682.22 1470.4 679.698 1473 679.698C1474.8 679.698 1475.6 682.22 1475.6 685.247Z" fill="white" stroke="#020202" stroke-width="1.5" stroke-miterlimit="10"/>
<path d="M1441.9 694.127C1441.9 694.127 1439.8 696.246 1437.5 696.347C1435.2 696.448 1432 695.136 1431.4 693.522" stroke="#020202" stroke-width="1.5" stroke-miterlimit="10"/>
<path d="M1465.7 694.43C1465.7 694.43 1469.3 697.053 1471.8 697.053C1474.3 697.053 1476.6 694.632 1477 693.824" stroke="#020202" stroke-width="1.5" stroke-miterlimit="10"/>
<path d="M1462.4 671.02C1462.4 671.02 1466.4 666.984 1470.4 666.984C1474.4 666.984 1476.4 671.02 1480.4 673.038" stroke="#020202" stroke-width="1.5" stroke-miterlimit="10"/>
<path d="M1450.4 673.038C1450.4 673.038 1448.4 671.02 1444.4 669.002C1440.4 666.984 1436.4 666.984 1432.4 671.02C1428.4 675.056 1428.4 675.056 1426.4 675.056" stroke="#020202" stroke-width="1.5" stroke-miterlimit="10"/>
<path d="M1458.3 693.219C1458.3 693.219 1462.5 710.07 1462.7 711.584C1462.9 713.097 1465.1 718.546 1464.4 719.454C1463.6 720.463 1463.7 722.481 1462.2 722.784C1460.7 723.087 1457.5 722.582 1456.4 722.582C1455.3 722.582 1453.5 721.573 1453.5 721.573C1453.5 721.573 1451.2 722.179 1450.4 721.876C1449.7 721.472 1448.8 719.959 1448.9 719.252C1449 718.546 1450.4 716.73 1450.8 716.326" stroke="#020202" stroke-width="1.5" stroke-miterlimit="10"/>
<path d="M1576.9 849.622C1576.9 849.622 1571.5 825.001 1566.6 815.617C1561.7 806.233 1552.6 796.546 1540.7 791.097C1528.9 785.648 1488.7 759.917 1488.7 761.431C1488.7 762.944 1483.8 791.702 1474.1 805.526C1464.4 819.35 1456.1 824.9 1454.8 824.9C1453.5 824.9 1439.8 814.305 1434.3 802.802C1428.8 791.4 1423.2 770.311 1422.5 768.091C1421.8 765.972 1421 762.541 1421 762.541C1421 762.541 1370.5 789.18 1365.5 791.702C1360.5 794.225 1353 797.353 1348.1 803.609C1343.2 809.764 1334 833.679 1332.5 840.742C1331 847.806 1330.4 850.127 1330.4 850.127L1576.9 849.622Z" fill="#91E3F9" stroke="#020202" stroke-width="1.5" stroke-miterlimit="10"/>
<path d="M1509 834.385C1508.6 834.385 1508.1 834.385 1507.7 834.284C1506.8 834.183 1506 834.083 1505.4 833.78C1505.3 833.679 1505.1 833.578 1505 833.477C1504.7 833.275 1504.4 833.074 1504 832.973C1503.7 832.872 1503.4 832.872 1503.1 832.872C1502.4 832.872 1501.7 833.074 1500.9 833.477C1500.8 833.578 1500.7 833.578 1500.5 833.679C1500.1 833.982 1499.6 834.184 1499.3 834.184H1499.2C1498.8 834.184 1498.4 833.982 1498 833.679C1497.5 833.376 1496.8 832.872 1495.9 832.872C1495.4 832.872 1495 833.074 1494.7 833.275C1494.6 833.376 1494.4 833.477 1494.3 833.477L1493.9 833.578C1493.5 833.679 1493.1 833.679 1492.6 833.679C1492.2 833.679 1491.9 833.679 1491.6 833.578C1491.3 833.477 1490.7 833.074 1490.2 832.468C1489.9 832.165 1489.8 831.661 1489.7 831.257C1489.5 830.147 1489.1 827.524 1490.6 825.909C1491.3 825.203 1492.3 824.698 1493.6 824.396C1494.4 824.194 1495.1 824.194 1495.9 824.093C1496.4 824.093 1496.9 823.992 1497.4 823.891L1497.8 823.79C1498.3 823.689 1498.8 823.689 1499.2 823.689C1499.3 823.689 1499.4 823.689 1499.4 823.689C1500 823.689 1500.6 823.992 1500.9 824.295C1501.2 824.598 1501.2 825.102 1501 825.405C1500.8 825.607 1500.5 825.707 1500.2 825.707C1499.5 825.909 1498.8 825.909 1498.1 825.909C1497.8 825.909 1497.6 825.909 1497.3 825.909C1496.8 825.909 1496.2 826.01 1495.6 826.111C1495.3 826.212 1495 826.212 1494.7 826.313C1494.5 826.414 1494 826.616 1493.9 827.322V827.423V827.524C1494 828.23 1494.6 828.331 1494.7 828.432C1494.9 828.533 1495.2 828.533 1495.4 828.533C1495.5 828.533 1495.7 828.533 1495.8 828.533L1496.5 828.432C1497.1 828.432 1497.8 828.331 1498.4 828.331C1499.1 828.331 1499.6 828.432 1500.1 828.533C1500.2 828.533 1500.3 828.634 1500.5 828.634C1500.9 828.735 1501.3 828.836 1501.8 828.836C1501.9 828.836 1501.9 828.836 1502 828.836C1502.5 828.836 1502.9 828.634 1503.3 828.533C1503.7 828.432 1504 828.331 1504.3 828.331C1504.4 828.331 1504.5 828.331 1504.5 828.331C1504.6 828.331 1504.6 828.331 1504.7 828.432C1504.8 828.533 1505 828.533 1505.3 828.634C1505.4 828.634 1505.5 828.634 1505.5 828.634C1505.7 828.634 1505.9 828.634 1506.1 828.533L1510.8 827.524C1510.9 827.524 1511.1 827.423 1511.2 827.423C1511.3 827.423 1511.3 827.423 1511.3 827.625C1511.5 828.028 1511.6 828.533 1511.6 828.936C1511.3 829.037 1511.1 829.138 1510.8 829.239C1510.2 829.441 1509.6 829.744 1509 829.845C1508.6 829.946 1508.2 830.046 1507.8 830.046C1507.6 830.046 1507.5 830.046 1507.4 830.046C1507.2 830.046 1507 830.046 1506.8 830.046C1506.7 830.046 1506.6 830.046 1506.5 830.046C1505.7 830.147 1505.6 830.551 1505.5 830.854C1505.4 831.661 1506.3 831.964 1506.6 832.065C1507.2 832.266 1507.8 832.367 1508.5 832.367C1508.7 832.367 1508.9 832.367 1509.1 832.367H1509.4C1509.6 832.367 1509.7 832.367 1509.9 832.367C1510 832.367 1510 832.367 1510.1 832.367C1510.3 832.367 1510.6 832.468 1510.8 832.569C1511.1 832.67 1511.5 832.872 1511.9 832.973C1511.7 833.477 1511.1 833.881 1510.6 834.083C1510 834.385 1509.5 834.385 1509 834.385Z" fill="#08AF2B"/>
<path d="M1498.9 824.698C1499 824.698 1499 824.698 1499.1 824.698C1499.5 824.698 1499.9 824.9 1500 825.001V825.102C1499.9 825.102 1499.8 825.203 1499.7 825.203C1499.1 825.304 1498.4 825.304 1497.7 825.405C1497.4 825.405 1497.2 825.405 1496.9 825.405C1496.4 825.405 1495.7 825.506 1495.1 825.607C1494.7 825.708 1494.4 825.808 1494.1 825.909C1493.1 826.212 1492.9 827.019 1492.9 827.524V827.625V827.726C1493 828.129 1493.2 828.936 1494.3 829.239C1494.6 829.34 1494.9 829.34 1495.2 829.34C1495.4 829.34 1495.5 829.34 1495.7 829.34C1495.9 829.34 1496.2 829.34 1496.5 829.239C1497.1 829.239 1497.8 829.138 1498.4 829.138C1499 829.138 1499.5 829.138 1500 829.34C1500.1 829.34 1500.2 829.441 1500.4 829.441C1500.8 829.542 1501.3 829.643 1501.9 829.643C1502 829.643 1502.1 829.643 1502.1 829.643C1502.7 829.643 1503.2 829.441 1503.6 829.239C1503.9 829.138 1504.2 829.037 1504.3 829.037H1504.4C1504.6 829.138 1504.8 829.239 1505.1 829.239C1505.2 829.239 1505.3 829.239 1505.5 829.239C1505.8 829.239 1506 829.138 1506.2 829.138L1508.5 828.634L1510.6 828.23C1510.6 828.331 1510.6 828.331 1510.6 828.432C1510.5 828.432 1510.4 828.533 1510.3 828.533C1509.7 828.735 1509.1 828.936 1508.6 829.138C1508.3 829.239 1507.9 829.34 1507.6 829.34C1507.5 829.34 1507.4 829.34 1507.3 829.34C1507.1 829.34 1506.9 829.239 1506.6 829.239C1506.5 829.239 1506.4 829.239 1506.3 829.239C1504.9 829.34 1504.7 830.349 1504.7 830.652C1504.6 831.257 1504.8 832.165 1506.2 832.67C1506.9 832.973 1507.6 833.074 1508.4 833.074C1508.6 833.074 1508.9 833.074 1509.1 833.074C1509.2 833.074 1509.3 833.074 1509.4 833.074C1509.5 833.074 1509.7 833.074 1509.8 833.074C1509.8 833.074 1509.8 833.074 1509.9 833.074C1510 833.074 1510.2 833.174 1510.4 833.275H1510.3C1510 833.376 1509.6 833.376 1509.2 833.376C1508.8 833.376 1508.4 833.376 1508 833.275C1507.2 833.174 1506.5 833.074 1506 832.872C1505.9 832.771 1505.7 832.771 1505.6 832.67C1505.3 832.468 1504.9 832.266 1504.4 832.065C1504 831.964 1503.7 831.863 1503.3 831.863C1502.5 831.863 1501.6 832.065 1500.7 832.569C1500.6 832.67 1500.4 832.67 1500.3 832.771C1500 832.973 1499.6 833.174 1499.3 833.174C1499.1 833.174 1498.9 832.973 1498.5 832.771C1497.9 832.367 1497.1 831.863 1496 831.863H1495.9C1495.3 831.863 1494.8 832.165 1494.4 832.367C1494.3 832.468 1494.2 832.468 1494.2 832.468C1494.2 832.468 1494 832.468 1493.9 832.569H1493.8C1493.4 832.67 1493.1 832.67 1492.7 832.67C1492.4 832.67 1492.1 832.67 1491.8 832.569C1491.7 832.569 1491.3 832.266 1490.8 831.762C1490.6 831.56 1490.5 831.156 1490.5 830.854C1490.3 829.946 1489.9 827.524 1491.2 826.212C1491.7 825.607 1492.6 825.203 1493.8 824.9C1494.5 824.799 1495.3 824.698 1496 824.598C1496.5 824.598 1497 824.497 1497.5 824.396L1497.9 824.295C1498 824.698 1498.5 824.698 1498.9 824.698ZM1498.9 823.185C1498.2 823.185 1497.6 823.286 1496.9 823.387C1495.6 823.589 1494.3 823.589 1493.1 823.891C1491.8 824.194 1490.6 824.698 1489.7 825.607C1488.3 827.221 1488.2 829.542 1488.7 831.661C1488.8 832.266 1489 832.872 1489.4 833.275C1489.8 833.78 1490.6 834.486 1491.2 834.587C1491.6 834.688 1492 834.688 1492.4 834.688C1492.9 834.688 1493.4 834.587 1493.9 834.486L1494.3 834.385C1494.7 834.284 1495.3 833.78 1495.7 833.78C1495.7 833.78 1495.7 833.78 1495.8 833.78C1497.1 833.78 1497.8 835.092 1499.1 835.092C1499.2 835.092 1499.2 835.092 1499.3 835.092C1500 834.991 1500.6 834.587 1501.2 834.284C1501.8 833.982 1502.4 833.78 1503 833.78C1503.2 833.78 1503.5 833.78 1503.7 833.881C1504.2 834.083 1504.6 834.385 1505 834.587C1505.8 834.991 1506.7 835.092 1507.6 835.193C1508.1 835.193 1508.5 835.293 1509 835.293C1509.5 835.293 1510.1 835.193 1510.6 835.092C1511.6 834.789 1512.4 833.982 1512.5 832.973C1512.5 832.872 1512.5 832.771 1512.5 832.771C1512.4 832.569 1512.1 832.569 1511.9 832.569C1511.2 832.569 1510.6 832.065 1509.9 831.964C1509.8 831.964 1509.7 831.964 1509.7 831.964C1509.4 831.964 1509.2 831.964 1508.9 832.065C1508.7 832.065 1508.5 832.065 1508.4 832.065C1507.8 832.065 1507.3 831.964 1506.8 831.762C1506.5 831.661 1505.8 831.257 1506.5 831.156C1506.6 831.156 1506.6 831.156 1506.7 831.156C1507 831.156 1507.3 831.257 1507.7 831.257H1507.8C1508.3 831.257 1508.7 831.156 1509.2 831.055C1510.1 830.854 1511 830.45 1511.9 830.147C1512.1 830.046 1512.2 830.046 1512.3 829.845C1512.4 829.744 1512.4 829.542 1512.4 829.441C1512.4 828.836 1512.3 828.331 1512.1 827.827C1512 827.625 1511.9 827.423 1511.7 827.322C1511.6 827.221 1511.4 827.221 1511.2 827.221C1511 827.221 1510.9 827.221 1510.7 827.322C1509.1 827.625 1507.6 827.927 1506 828.331C1505.9 828.331 1505.7 828.432 1505.6 828.432H1505.5C1505.3 828.432 1505.1 828.331 1504.9 828.23C1504.7 828.129 1504.6 828.129 1504.4 828.129C1503.6 828.129 1502.9 828.634 1502.1 828.735H1502C1501.5 828.735 1501 828.533 1500.5 828.432C1499.9 828.331 1499.2 828.23 1498.6 828.23C1497.7 828.23 1496.8 828.331 1495.9 828.331C1495.8 828.331 1495.7 828.331 1495.5 828.331C1495.3 828.331 1495.1 828.331 1495 828.23C1494.8 828.23 1494.7 828.129 1494.7 827.927C1494.7 827.625 1494.8 827.625 1495 827.625C1495.2 827.524 1495.5 827.423 1495.7 827.423C1496.2 827.322 1496.8 827.322 1497.3 827.221C1498.3 827.221 1499.3 827.221 1500.3 827.019C1500.7 826.918 1501.2 826.817 1501.5 826.414C1502 825.808 1501.9 824.9 1501.4 824.295C1500.9 823.689 1500.1 823.488 1499.4 823.387C1499.1 823.185 1499 823.185 1498.9 823.185Z" fill="black"/>
<path d="M1436.6 723.591C1439 724.903 1438.9 724.197 1441.5 727.325C1443.9 730.251 1446.8 732.471 1450.5 733.379C1455.5 734.691 1457.9 735.095 1457.4 737.718C1456.9 740.342 1453 741.25 1450.5 742.36C1448 743.47 1441.4 742.562 1438.5 740.342C1435.6 738.122 1434.8 736.911 1433.9 733.177C1432.9 729.444 1433.6 722.078 1436.6 723.591Z" fill="white" stroke="#020202" stroke-width="1.5" stroke-miterlimit="10"/>
<path d="M268.1 134.91H0.800049V465.072H268.1V134.91Z" fill="#3D3D3D"/>
<path d="M267.3 135.718V464.366H1.5V135.718H267.3ZM268.8 134.204H0V465.88H268.8V134.204Z" fill="black"/>
<path d="M254.9 148.028H13.8V453.771H254.9V148.028Z" fill="#F2EFEA"/>
<path d="M254.2 148.734V452.964H14.6001V148.734H254.2ZM255.7 147.221H254.2H14.6001H13.1001V148.734V452.964V454.477H14.6001H254.2H255.7V452.964V148.734V147.221Z" fill="black"/>
<path d="M115 329.859C115 329.859 114.4 353.067 113.7 355.792C113 358.516 99.2999 360.03 96.0999 363.763C93.0999 367.295 97.9999 374.258 100.3 376.881C111.5 389.494 139.8 390.907 154.8 387.678C163 385.862 181.5 375.468 183 365.882C183.8 361.14 169.9 358.415 166.6 356.296C163.3 354.177 161.7 329.355 161.7 329.355L115 329.859Z" fill="#FCE7D4" stroke="#020202" stroke-width="1.5" stroke-miterlimit="10"/>
<path d="M136.7 243.283C130.2 242.879 123.3 244.09 117.1 246.209C113 247.621 108.9 249.942 106.5 253.878C105.2 256.097 104.6 258.62 104 261.143C101.9 270.426 100.2 279.709 99.0001 289.094C98.5001 287.58 98.6001 286.268 98.1001 285.158C97.5001 283.846 94.6001 284.149 94.3001 286.167C94.1001 287.883 94.5001 289.497 95.1001 291.011C95.7001 292.625 96.5001 294.341 96.8001 296.056C97.8001 302.11 96.2001 302.413 96.9001 307.156C97.1001 308.467 98.2001 309.577 99.3001 310.183C99.7001 310.385 101.5 310.99 101.5 310.082C101.6 315.228 102.1 321.787 103.6 326.63C105.7 333.189 112.4 338.436 117.4 342.775C121.2 346.105 125.1 349.435 129.6 351.453C141.6 356.902 153.3 349.132 159.9 339.042C164.4 332.18 170.3 327.538 171 319.567C171.2 316.742 172.2 313.714 172 310.889C172 309.981 173.1 310.284 173.6 310.284C176.8 310.485 177.4 305.743 177.8 303.422C178.4 299.285 178.1 294.946 179.7 291.011C180.5 289.094 182.7 286.167 180.4 284.351C179 283.342 177.1 283.443 175.7 284.452C174 285.663 174 287.479 173.4 289.396C173.2 280.012 171.9 272.646 169.5 263.665C168.8 261.042 168 258.418 166.5 256.198C163.7 252.061 160.1 248.933 155.6 246.814C152.6 245.402 149.4 244.493 146.2 243.888C143.1 243.383 139.9 243.383 136.7 243.283Z" fill="#FCE7D4" stroke="#020202" stroke-width="1.5" stroke-miterlimit="10"/>
<path d="M137.7 305.642C135.4 312.504 121.8 310.99 121.5 314.623C121 320.172 131.3 319.365 135.6 317.347" stroke="#020202" stroke-width="1.5" stroke-miterlimit="10"/>
<path d="M172.1 285.057C172.1 285.057 172.7 264.473 166.8 261.244C161.5 258.418 156 254.988 149.9 254.281C143.1 253.575 137.5 252.969 130.5 253.373C125.3 253.676 114.8 253.07 111.2 258.015C108.4 261.849 101.2 294.24 99.6999 292.121C98.1999 290.002 96.1999 286.268 94.8999 279.306C93.5999 272.343 94.7999 262.152 97.9999 254.887C101.2 247.621 97.9999 249.74 102.4 243.081C106.8 236.421 114.7 231.073 116.9 229.862C119.1 228.55 118.5 227.844 119.2 227.541C119.8 227.239 120.4 226.734 120.4 226.734C120.4 226.734 118.1 221.891 117.4 219.671C116.6 217.35 115.6 215.029 115.2 212.607C114.8 210.186 115.2 207.562 116.8 205.645C118.3 203.829 120.8 200.801 123 200.196C125.7 199.389 130.5 199.691 133.3 200.499C135 201.003 136.3 201.911 137.5 201.306C138.7 200.7 141 197.673 142.9 197.673C146.3 197.673 153 200.499 153.9 204.232C154.8 207.764 154 207.562 157.2 209.378C160.4 211.195 163 217.552 163.8 221.083C164.4 223.606 163.9 227.138 160.6 228.046C159.5 228.349 157.6 228.752 157.6 228.752C157.6 228.752 160.9 230.77 161.1 232.284C161.3 233.797 161 234.1 161.2 234.605C161.3 235.109 162.4 236.32 162.4 236.32C162.4 236.32 176.5 242.374 178.1 248.025C179.6 253.777 178.8 255.29 180.4 257.308C182 259.326 183.3 261.647 183.4 266.995C183.5 272.343 181.6 279.205 181.3 281.021C181 282.837 177.8 287.075 176.8 288.791C175.8 290.506 173.9 294.643 173.1 294.038C172 293.533 172.1 286.066 172.1 285.057Z" fill="#F7DE48" stroke="#020202" stroke-width="1.5" stroke-miterlimit="10"/>
<path d="M120.2 226.734C120.2 226.734 124 224.716 127.6 225.523C131.2 226.33 134.7 227.844 134.7 227.844" stroke="#020202" stroke-width="1.5" stroke-miterlimit="10"/>
<path d="M157.4 228.752C157.4 228.752 145.2 228.853 138.5 219.065" stroke="#020202" stroke-width="1.5" stroke-miterlimit="10"/>
<path d="M137.2 201.306C137.2 201.306 137 204.333 139.9 209.076C143.9 215.634 147.9 216.845 147.9 216.845" stroke="#020202" stroke-width="1.5" stroke-miterlimit="10"/>
<path d="M125.5 200.095C125.5 200.095 122.1 205.746 125.7 212.103C129.3 218.46 132.5 220.579 132.5 220.579" stroke="#020202" stroke-width="1.5" stroke-miterlimit="10"/>
<path d="M162.7 236.623C162.6 237.127 161.7 235.816 156 234.302" stroke="#020202" stroke-width="1.5" stroke-miterlimit="10"/>
<path d="M126.9 249.034C124.4 247.016 120.8 243.484 121.5 239.852C122 237.228 124.8 234.302 126.9 232.788" stroke="#020202" stroke-width="1.5" stroke-miterlimit="10"/>
<path d="M153.4 250.548C153.4 250.548 162.2 246.814 160.3 242.475" stroke="#020202" stroke-width="1.5" stroke-miterlimit="10"/>
<path d="M137.2 248.429C137.2 248.429 143.9 246.713 141.8 241.063C139.7 235.311 139.8 233.797 139.7 231.981" stroke="#020202" stroke-width="1.5" stroke-miterlimit="10"/>
<path d="M143.1 277.388C151.3 276.279 161.4 266.995 164.9 275.068" stroke="#020202" stroke-width="1.5" stroke-miterlimit="10"/>
<path d="M127.5 286.47C122.2 285.259 109.2 276.884 105.7 284.956" stroke="#020202" stroke-width="1.5" stroke-miterlimit="10"/>
<path d="M153.6 295.249C154.87 295.249 155.9 294.21 155.9 292.928C155.9 291.646 154.87 290.607 153.6 290.607C152.33 290.607 151.3 291.646 151.3 292.928C151.3 294.21 152.33 295.249 153.6 295.249Z" fill="white" stroke="#020202" stroke-width="1.5" stroke-miterlimit="10"/>
<path d="M118.7 295.148C119.97 295.148 121 294.109 121 292.827C121 291.545 119.97 290.506 118.7 290.506C117.43 290.506 116.4 291.545 116.4 292.827C116.4 294.109 117.43 295.148 118.7 295.148Z" fill="white" stroke="#020202" stroke-width="1.5" stroke-miterlimit="10"/>
<path d="M146.8 291.213C146.8 291.213 153.3 287.883 155.9 288.892C158.5 289.901 159.1 291.818 160.6 291.919" stroke="#020202" stroke-width="1.5" stroke-miterlimit="10"/>
<path d="M124.3 293.432C124.3 293.432 122.1 288.084 119 288.791C116.3 289.396 117.6 289.093 113 290.506" stroke="#020202" stroke-width="1.5" stroke-miterlimit="10"/>
<path d="M24.3 452.964C26.5 440.048 32.3 411.088 33.8 402.006C35.3 393.026 35.5001 389.292 40.2001 381.422C44.9001 373.551 54.1 370.928 62.5 369.212C71.4 367.396 75.3 365.378 84.2 364.066C88.4 363.461 95.1001 360.938 99.1001 359.122C100.9 358.314 99.8001 373.854 114.1 381.119C130 389.191 151.4 387.981 166.7 377.688C173.3 373.248 175.8 366.286 180 359.122C186.4 360.433 192.4 363.158 198.6 365.176C209.3 368.708 227.9 367.8 232.6 381.119C238.1 396.658 243.6 436.819 247.2 452.863" fill="white"/>
<path d="M24.3 452.964C26.5 440.048 32.3 411.088 33.8 402.006C35.3 393.026 35.5001 389.292 40.2001 381.422C44.9001 373.551 54.1 370.928 62.5 369.212C71.4 367.396 75.3 365.378 84.2 364.066C88.4 363.461 95.1001 360.938 99.1001 359.122C100.9 358.314 99.8001 373.854 114.1 381.119C130 389.191 151.4 387.981 166.7 377.688C173.3 373.248 175.8 366.286 180 359.122C186.4 360.433 192.4 363.158 198.6 365.176C209.3 368.708 227.9 367.8 232.6 381.119C238.1 396.658 243.6 436.819 247.2 452.863" stroke="black" stroke-width="1.5" stroke-miterlimit="10"/>
<path d="M243.5 437.727H28.1L27 444.891H244.6L243.5 437.727Z" fill="#70AFE8"/>
<path d="M237.9 405.134H33.8001L32.6001 412.299H239.2L237.9 405.134Z" fill="#70AFE8"/>
<path d="M89 372.744L53.0999 373.047C52.7999 373.047 52 373.248 51.7 373.349C51.1 373.652 50.3999 373.854 49.7999 374.157C48.9999 374.56 48.2 374.863 47.4 375.267C46.6 375.67 45.9999 376.276 45.2999 376.78C44.5999 377.285 44 377.89 43.4 378.395C43.2 378.596 42.9 378.899 42.7 379.101L42.2 379.706C42.6 379.706 92.8 379.706 92.8 379.706C92.1 378.899 92.2 379.202 91.8 378.496C90.6 376.477 90.9 377.083 90 375.065C89.7 374.258 89.6 373.854 89 372.744Z" fill="#70AFE8"/>
<path d="M186.9 372.744C186.9 372.744 224.2 373.148 224.3 373.148C224.4 373.148 224.4 373.248 224.5 373.248C224.6 373.349 224.7 373.349 224.8 373.45C225.5 373.854 226.2 374.258 226.8 374.661C227.2 374.964 227.7 375.166 228.2 375.468C229 376.074 229.6 376.78 230.2 377.486C230.7 378.092 231.2 378.697 231.5 379.404L231.7 379.908C231.3 379.908 182.5 379.908 182.5 379.908C183.2 379.101 183.1 379.303 183.5 378.496C184.7 376.477 184.4 377.184 185.6 375.166C186.1 374.258 186.3 373.854 186.9 372.744Z" fill="#70AFE8"/>
<path d="M174 389.292H234.6C234.6 389.292 235.3 392.219 235.4 392.521C235.7 393.833 236.2 396.053 236.2 396.356C236.3 396.356 160.6 396.356 160.6 396.356L174 389.292Z" fill="#F44711"/>
<path d="M240.8 421.481H30.9999L29.8999 428.645H241.9L240.8 421.481Z" fill="#F44711"/>
<path d="M99.3999 389.292H37.0999C36.7999 389.292 36 392.42 35.9 392.622C35.5 393.833 35.4 395.549 35.2 396.356H112.4L99.3999 389.292Z" fill="#F44711"/>
<path d="M63.6001 452.964L67.0001 433.993" stroke="black" stroke-width="1.5" stroke-miterlimit="10"/>
<path d="M203 452.863L200.5 435.305" stroke="black" stroke-width="1.5" stroke-miterlimit="10"/>
<path d="M87.9001 364.571C87.9001 364.571 89.9001 377.184 97.0001 385.357C104.1 393.53 114.5 398.374 137.3 398.374C160.1 398.374 172.3 390.402 175.7 386.871C179.1 383.339 187.7 370.827 191.8 362.754" stroke="black" stroke-width="1.5" stroke-miterlimit="10"/>
<path d="M163.8 297.57V299.487" stroke="#020202" stroke-width="1.5" stroke-miterlimit="10"/>
<path d="M115.8 309.577C124.968 309.577 132.4 302.078 132.4 292.827C132.4 283.576 124.968 276.077 115.8 276.077C106.632 276.077 99.2 283.576 99.2 292.827C99.2 302.078 106.632 309.577 115.8 309.577Z" fill="#020202" stroke="#020202" stroke-width="1.5" stroke-miterlimit="10"/>
<path d="M155.9 309.577C165.068 309.577 172.5 302.078 172.5 292.827C172.5 283.576 165.068 276.077 155.9 276.077C146.732 276.077 139.3 283.576 139.3 292.827C139.3 302.078 146.732 309.577 155.9 309.577Z" fill="#020202" stroke="#020202" stroke-width="1.5" stroke-miterlimit="10"/>
<path d="M139.5 293.332C139.5 293.332 138 291.515 136.1 291.515C134.2 291.515 133 293.231 133 293.231L128.3 289.901C128.6 289.497 131.3 285.663 136.2 285.663C140.9 285.663 143.9 289.396 144.2 289.8L139.5 293.332Z" fill="#020202"/>
<path d="M115.8 304.128C121.986 304.128 127 299.069 127 292.827C127 286.585 121.986 281.526 115.8 281.526C109.615 281.526 104.6 286.585 104.6 292.827C104.6 299.069 109.615 304.128 115.8 304.128Z" fill="#F44711"/>
<path d="M155.9 304.128C162.086 304.128 167.1 299.069 167.1 292.827C167.1 286.585 162.086 281.526 155.9 281.526C149.714 281.526 144.7 286.585 144.7 292.827C144.7 299.069 149.714 304.128 155.9 304.128Z" fill="#455FF4"/>
<path d="M144.8 334.4C144.8 338.234 137.2 338.638 136.2 338.638C135.2 338.638 134.4 335.51 134.4 331.676C134.4 327.841 135.2 324.713 136.2 324.713C137.1 324.713 144.8 330.566 144.8 334.4Z" fill="white" stroke="#020202" stroke-width="1.5" stroke-miterlimit="10"/>
<path d="M851.605 250.81C915.612 186.224 915.612 81.5098 851.605 16.9241C787.599 -47.6616 683.824 -47.6616 619.818 16.9241C555.812 81.5099 555.812 186.224 619.818 250.81C683.824 315.395 787.599 315.395 851.605 250.81Z" fill="#3D3D3D"/>
<path d="M735.7 -30.7761C779.3 -30.7761 820.3 -13.6222 851.1 17.4566C881.9 48.5354 898.9 89.9065 898.9 133.901C898.9 177.896 881.9 219.267 851.1 250.346C820.3 281.425 779.3 298.579 735.7 298.579C692.1 298.579 651.1 281.425 620.3 250.346C589.5 219.267 572.5 177.795 572.5 133.901C572.5 90.0074 589.5 48.5354 620.3 17.4566C651.1 -13.6222 692.1 -30.7761 735.7 -30.7761ZM735.7 -32.2897C644.7 -32.2897 571 42.0775 571 133.901C571 225.725 644.7 300.092 735.7 300.092C826.7 300.092 900.4 225.725 900.4 133.901C900.4 42.0775 826.6 -32.2897 735.7 -32.2897Z" fill="black"/>
<path d="M834.635 233.686C889.269 178.557 889.269 89.1765 834.635 34.0482C780.001 -21.0802 691.422 -21.0802 636.789 34.0482C582.155 89.1766 582.155 178.557 636.789 233.686C691.422 288.814 780.001 288.814 834.635 233.686Z" fill="#F2EFEA"/>
<path d="M735.7 -6.45792C812.5 -6.45792 874.8 56.406 874.8 133.901C874.8 211.396 812.5 274.26 735.7 274.26C658.9 274.26 596.6 211.396 596.6 133.901C596.6 56.406 658.8 -6.45792 735.7 -6.45792ZM735.7 -7.9715C698.1 -7.9715 662.8 6.76067 636.3 33.6015C609.7 60.4423 595.1 96.0618 595.1 133.901C595.1 171.741 609.7 207.461 636.3 234.201C662.9 261.042 698.2 275.774 735.7 275.774C773.2 275.774 808.6 261.042 835.1 234.201C861.7 207.36 876.3 171.741 876.3 133.901C876.3 96.0618 861.7 60.3413 835.1 33.6015C808.5 6.76067 773.2 -7.9715 735.7 -7.9715Z" fill="black"/>
<path d="M770.7 189.601C770.7 189.601 763.4 185.565 763.4 184.253C763.4 183.042 762.6 165.888 762.6 165.888H708.5C708.5 165.888 709.2 182.739 707.9 184.152C704.3 188.188 696.6 191.215 694.4 196.664C690.9 205.342 702.5 215.534 708.2 217.955C720.2 223.202 737.3 223.101 750.1 219.973C759 217.854 769.1 212.204 775 204.535C778.8 199.691 779.7 194.545 770.7 189.601Z" fill="#FCE7D4" stroke="#020202" stroke-width="1.5" stroke-miterlimit="10"/>
<path d="M772.1 130.37C772.1 130.37 771 149.642 770.6 151.257C770.2 152.871 769.7 154.789 767.5 158.724C765.3 162.659 758 172.346 756 174.566C754 176.786 749.5 183.244 747.1 183.95C744.7 184.657 737.5 186.069 734.9 185.867C732.3 185.767 722.9 184.455 720.8 183.143C718.7 181.831 711.6 173.355 705.8 165.585C700 157.715 696.9 151.358 696.5 149.34C696.1 147.322 696 140.258 696 140.258L695 140.561C695 140.561 694.9 142.579 693.1 142.781C690.6 143.084 689.1 139.956 688.5 138.038C687.4 134.809 687.9 131.278 686.7 128.049C685.5 124.719 680.3 113.619 684.5 110.693C688.2 108.17 691.4 111.702 692.6 115.032C693.1 116.445 693.5 118.463 693.5 118.463L694.2 118.261C694.2 118.261 694.1 112.005 694.2 107.565C694.4 99.3917 691.9 90.3102 694.9 82.4396C704.9 56.406 714.3 55.397 737.5 54.6906C758.1 53.9843 769.7 70.9364 771.3 78.7061C772.5 84.7604 773.5 91.3192 773.1 97.5754C772.8 103.327 772 117.656 772 117.656L772.7 117.756C772.7 117.756 774.2 113.014 775.4 110.794C776.6 108.574 779.5 108.271 780.5 109.179C781.5 109.987 782.6 111.298 782 113.518C781.4 115.738 780.3 122.196 779.8 124.82C779.5 126.737 779.7 128.654 779.7 130.571C779.7 132.287 779 138.341 776.4 138.24C775.2 138.24 771.3 138.341 772.1 130.37Z" fill="#FCE7D4" stroke="#020202" stroke-width="1.5" stroke-miterlimit="10"/>
<path d="M735.7 274.765C695.2 274.765 656.9 257.006 630.6 225.927C634.7 221.991 639.9 219.469 644.1 217.451C644.7 217.148 645.2 216.845 645.8 216.644C650.5 214.323 690.8 193.032 697.2 189.601C697.5 190.812 698 192.83 698.5 194.343C698.6 194.545 698.6 194.848 698.7 195.151C699.5 198.178 701.7 206.048 711.4 210.791C717.8 213.919 729.5 216.038 740 216.038C746.3 216.038 757.6 215.231 762.7 209.782C766.8 205.342 771.6 197.572 771.5 185.968C774.1 187.179 782.6 192.325 790.9 197.371C803.1 204.737 816.9 213.011 823.2 215.937C829.1 218.662 834.8 222.597 839.6 227.541C813.2 257.51 775.4 274.765 735.7 274.765Z" fill="white"/>
<path d="M772.1 187.179C775.6 188.995 783.4 193.738 790.4 197.976C802.6 205.342 816.4 213.616 822.8 216.543C828.4 219.166 833.8 222.9 838.5 227.541C812.4 257.107 775 274.059 735.8 274.059C695.8 274.059 657.9 256.602 631.7 226.028C635.7 222.395 640.5 220.074 644.5 218.157C645.1 217.854 645.6 217.552 646.2 217.35C650.8 215.029 688.2 195.252 696.7 190.711C697 191.922 697.4 193.435 697.8 194.646C697.9 194.848 697.9 195.151 698 195.453C698.8 198.581 701.1 206.755 711.1 211.598C717.5 214.726 729.4 216.946 740 216.946C746.4 216.946 758 216.139 763.2 210.488C767.2 205.948 771.9 198.481 772.1 187.179ZM770.7 184.959C770.6 184.959 770.6 184.959 770.7 184.959C770.6 186.473 771.6 198.884 762.1 209.277C758.1 213.616 749.3 215.332 740 215.332C729.3 215.332 717.9 213.112 711.7 210.186C701.2 205.039 699.9 196.362 699.2 194.142C698.5 191.922 697.7 188.491 697.7 188.491C697.7 188.491 650.6 213.415 645.5 215.937C641 218.157 634.5 220.982 629.7 225.927C655.2 256.299 693.3 275.572 735.9 275.572C777.7 275.572 815.2 257.006 840.7 227.541C836 222.698 830.2 218.258 823.6 215.231C811.7 209.883 772.8 184.959 770.7 184.959Z" fill="black"/>
<path d="M705.4 56.2042C705.4 56.2042 708.9 41.1693 717.3 36.5277C727.6 30.7761 737.1 34.3078 746.3 39.0503C755.6 43.8938 759.9 47.5264 766.7 53.6816C773.5 59.8368 781.8 70.4319 782.3 72.2481C782.8 74.0644 782.5 77.0916 782.3 78.2016C782.1 79.3115 779.9 81.0269 779.9 81.0269C779.9 81.0269 781.3 93.2364 778.3 98.3826C774.2 105.345 774 115.436 773.3 117.958C772.6 120.481 771.7 119.573 771.7 119.27C771.7 118.967 771.9 98.0799 771.1 95.5573C770.3 93.0346 768.5 90.512 769.4 88.4939C770.3 86.4758 770.6 81.2287 770.6 81.2287C770.6 81.2287 761.3 74.2663 759.3 72.8536C757.3 71.4409 750.1 67.4047 746.6 67.3038C743.1 67.2029 739.6 67.4047 735.6 68.7165C731.6 70.0282 730.8 72.45 729.6 72.3491C728.4 72.2481 723.1 68.0101 716 67.8083C708.9 67.6065 705 67.7074 702.1 70.7346C699.2 73.7617 696.3 76.9907 696.8 82.6414C697.3 88.2921 697 89.6039 696.8 90.6129C696.5 91.622 695 94.4473 695 96.6672C695 98.8871 695.2 119.472 695 120.178C694.8 120.884 694 119.976 693.4 117.958C692.8 116.041 691.9 106.051 691.7 104.134C691.5 102.217 686.4 90.6129 686 85.3658C685.7 80.1188 684.2 73.2572 686.8 66.4966C689.4 59.7359 691.8 56.406 693.9 54.6906C696.2 53.0762 703.4 54.7915 705.4 56.2042Z" fill="#8E570E" stroke="black" stroke-width="1.5" stroke-miterlimit="10"/>
<path d="M734.1 129.764C734.1 129.764 747.5 125.122 746.3 133.195C745 141.267 732.6 140.157 732.6 140.157" fill="#FCE7D4"/>
<path d="M734.1 129.764C734.1 129.764 747.5 125.122 746.3 133.195C745 141.267 732.6 140.157 732.6 140.157" stroke="#020202" stroke-width="1.5" stroke-miterlimit="10"/>
<path d="M691 61.0477C691 61.0477 692.7 47.2236 699 41.4721C705.3 35.6195 707.6 31.1797 714.1 28.4553C720.6 25.7308 726.7 24.4191 731.7 24.4191C736.7 24.4191 747.7 27.5471 756 31.1797C764.3 34.8123 770 40.9675 772.2 47.0218C774.5 53.0762 776.3 59.8368 776.7 63.1667C777.1 66.4965 691.6 65.4875 691 61.0477Z" fill="#F44711" stroke="#020202" stroke-width="1.5" stroke-miterlimit="10"/>
<path d="M687.5 96.869C687.5 96.869 683.6 88.393 689.1 84.3568C694.6 80.3206 707.7 70.9364 726.6 72.2481C745.5 73.5599 749.1 69.6246 762.7 76.0825C776.2 82.5405 781.6 91.1174 781.2 92.8328C780.8 94.5482 785.2 82.6414 784.3 76.0825C783.4 69.5237 783.9 66.3956 773.1 58.3232C762.3 50.2508 749.2 46.6182 737.5 47.1227C725.8 47.5264 712.1 46.5173 704.7 51.3608C697.3 56.1033 687.4 61.9558 686 68.7165C684.7 75.3762 681.2 91.5211 687.5 96.869Z" fill="#F44711" stroke="#020202" stroke-width="1.5" stroke-miterlimit="10"/>
<path d="M759.8 99.3917C766 99.3917 770.7 100.603 772.6 101.208C772.3 105.85 769.3 115.436 768.5 117.252C767.4 117.756 762.9 118.463 756.9 118.765C756 118.765 754.6 118.866 752.9 118.866C746.5 118.866 744.6 118.16 744.3 117.958C742.8 116.848 738.4 106.152 737.5 103.125C739.5 102.116 747 100.3 756 99.5935C757.3 99.3917 758.6 99.3917 759.8 99.3917ZM759.8 97.8781C758.6 97.8781 757.3 97.8781 755.9 97.979C745.1 98.7862 735.9 101.309 735.9 102.52C735.9 103.731 741.3 117.958 743.6 119.27C745.2 120.178 749.3 120.38 753 120.38C754.5 120.38 755.9 120.38 757.1 120.279C761.2 120.077 769.2 119.371 769.9 118.16C770.6 116.949 774.5 104.639 774.3 100.098C774.2 100.098 768.5 97.8781 759.8 97.8781Z" fill="black"/>
<path d="M708.1 97.8781V99.3917C709.4 99.3917 710.6 99.3917 711.9 99.4926C721 100.199 728.4 102.015 730.4 103.024C729.5 106.152 725.2 116.848 723.7 117.857C723.3 118.059 721.5 118.765 715 118.765C713.3 118.765 711.9 118.665 711 118.665H710.5C708 118.564 701.4 118.16 699.9 117.454C699 115.536 695.6 105.648 695.2 101.006C697.1 100.401 701.8 99.1899 708 99.1899L708.1 97.8781ZM708.1 97.8781C699.4 97.8781 693.7 100.098 693.7 100.098C693.5 104.639 698 117.252 698.7 118.564C699.4 119.775 706.8 120.178 710.8 120.38C712 120.481 713.4 120.481 714.9 120.481C718.6 120.481 722.7 120.178 724.3 119.371C726.6 118.16 732 103.932 732 102.621C732 101.309 722.8 98.8871 712 98.0799C710.6 97.8781 709.3 97.8781 708.1 97.8781Z" fill="black"/>
<path d="M729.1 107.262C729.1 107.262 735 105.143 739.5 107.262" stroke="black" stroke-width="1.5" stroke-miterlimit="10"/>
<path d="M719.8 111.198C719.8 114.628 718.6 113.72 717.2 113.72C715.7 113.72 714.6 114.527 714.6 111.198C714.6 107.767 714.6 105.042 717.2 105.042C719 105.042 719.8 107.868 719.8 111.198Z" fill="white" stroke="#020202" stroke-width="1.5" stroke-miterlimit="10"/>
<path d="M761 110.088C761 113.72 759.8 112.812 758.4 112.812C756.9 112.812 755.8 113.821 755.8 110.088C755.8 106.455 755.8 103.529 758.4 103.529C760.1 103.529 761 106.455 761 110.088Z" fill="white" stroke="#020202" stroke-width="1.5" stroke-miterlimit="10"/>
<path d="M745.6 96.7681C745.6 96.7681 755.6 87.4848 760.9 87.8885" stroke="#020202" stroke-width="1.5" stroke-miterlimit="10"/>
<path d="M726.1 99.1898C721.9 97.2727 712.5 91.1174 708.2 92.1265" stroke="#020202" stroke-width="1.5" stroke-miterlimit="10"/>
<path d="M724.7 161.65C724.7 161.65 731.4 159.43 734.9 159.834C738.3 160.338 744 164.778 746.9 165.384" stroke="#020202" stroke-width="1.5" stroke-miterlimit="10"/>
<path d="M826.1 205.241C807.4 198.279 787 194.041 769.1 185.262C769.2 192.729 765.8 201.81 762.5 208.47C759.9 213.616 757.2 219.065 752.3 222.193C750.9 223.101 747.6 223.909 746.4 225.12C746.4 225.12 746.6 228.449 746.6 230.669C746.5 235.916 746.4 241.264 746.4 246.511C746.4 255.997 746.6 265.482 746.9 274.967C787.6 271.738 823.3 250.75 846.6 219.772C845.9 218.561 845.1 217.451 844.2 216.341C839.5 210.993 832.8 207.764 826.1 205.241Z" fill="#073E75" stroke="black" stroke-width="1.5" stroke-miterlimit="10"/>
<path d="M721 222.799C719.1 221.386 717.5 219.469 716 217.552C709.2 208.672 704.2 198.279 701.4 187.381C682.9 194.949 648.5 202.719 631.5 210.589C628.3 212.103 625.6 214.625 623.3 217.854C646.5 249.942 682.9 271.637 724.4 275.068C725.1 258.317 725.2 241.466 724.5 224.615C723.2 224.211 722.1 223.606 721 222.799Z" fill="#073E75" stroke="black" stroke-width="1.5" stroke-miterlimit="10"/>
<path d="M695.7 269.619L696 256.299L666.5 256.905C675.6 262.253 685.4 266.491 695.7 269.619Z" fill="#073E75" stroke="black" stroke-width="1.5" stroke-miterlimit="10"/>
<path d="M709.9 232.183V273.15" stroke="black" stroke-width="1.5" stroke-miterlimit="10"/>
<path d="M770.6 232.183V271.031" stroke="black" stroke-width="1.5" stroke-miterlimit="10"/>
<path d="M732.2 275.068C732.6 273.05 732.6 263.363 732.6 261.445C732.6 259.629 731.7 255.492 731.7 255.189C731.7 254.887 732.9 249.841 732.6 248.227C732.4 246.612 733.1 231.981 732.9 229.257C732.8 226.532 726.9 224.413 724.6 223.202C722.3 221.992 718.7 218.258 717 217.35C715.3 216.442 713.3 215.937 713.1 214.726C712.9 213.515 711.6 210.085 711.6 210.085C711.6 210.085 710 207.058 710 204.838C710 202.618 708.4 196.059 708.4 193.334C708.4 190.61 707.5 186.17 707.8 184.858C708.2 183.648 708.9 180.519 708.9 180.519V169.42C708.9 169.42 707.4 169.218 706.3 169.42C705.3 169.622 705 171.135 704.9 171.236C704.8 171.539 703.4 172.043 703.2 172.245C701.3 173.254 700.1 173.456 699.8 175.878C699.6 177.492 698.9 179.006 697.7 180.116C696.9 180.923 695.9 181.529 695.1 182.336C694.2 183.345 693.7 184.657 693.3 185.767C693.1 186.17 693.1 186.675 693 187.078C692.6 188.895 690.3 191.014 689.5 192.931C689.2 193.738 689.4 194.646 689 195.453C688.6 196.362 687.9 196.765 687.6 197.774C687.3 199.187 687.2 200.701 687.1 202.113C687 203.728 687.1 205.241 687.1 206.856C687.2 209.479 686.9 212.103 686.8 214.625C686.8 216.341 687.1 218.157 687.3 219.873C687.4 221.184 687.2 222.496 687.3 223.909C687.4 225.12 688.1 226.129 687.9 227.44C687.8 227.945 687.6 228.449 687.8 228.954C687.9 229.559 688.4 229.862 688.4 230.468C688.5 231.073 688.2 231.779 688.3 232.385C688.4 233.192 688.7 234.201 688.2 234.907C688.2 234.907 686.6 237.026 686.9 238.237C687.4 240.255 690 240.457 691.7 240.356C693.8 240.356 696.1 240.255 698.2 239.953C699.4 239.751 699.8 238.338 700.6 237.632C701.7 236.825 703.1 237.43 704.3 236.724C704.9 236.32 705.4 235.816 706 235.311C707.9 233.495 710.2 231.376 712.9 231.88C713.6 231.981 714.6 231.981 715.2 232.284C716.8 232.788 717.5 233.192 719.1 232.183L721.7 232.587C721.7 232.587 722.8 232.99 723.1 234.403C723.3 235.614 723.2 236.926 723.6 238.136C724 239.852 722.1 241.164 723 242.778C723 242.778 722.6 246.209 723 249.438C723.1 250.447 723.4 251.557 723.5 252.566C723.7 254.786 722 257.107 722 259.326C722 261.143 722.6 263.06 722.6 263.06C722.6 263.06 721.2 270.527 721.7 273.857" fill="#F9F7E1"/>
<path d="M732.2 275.068C732.6 273.05 732.6 263.363 732.6 261.445C732.6 259.629 731.7 255.492 731.7 255.189C731.7 254.887 732.9 249.841 732.6 248.227C732.4 246.612 733.1 231.981 732.9 229.257C732.8 226.532 726.9 224.413 724.6 223.202C722.3 221.992 718.7 218.258 717 217.35C715.3 216.442 713.3 215.937 713.1 214.726C712.9 213.515 711.6 210.085 711.6 210.085C711.6 210.085 710 207.058 710 204.838C710 202.618 708.4 196.059 708.4 193.334C708.4 190.61 707.5 186.17 707.8 184.858C708.2 183.648 708.9 180.519 708.9 180.519V169.42C708.9 169.42 707.4 169.218 706.3 169.42C705.3 169.622 705 171.135 704.9 171.236C704.8 171.539 703.4 172.043 703.2 172.245C701.3 173.254 700.1 173.456 699.8 175.878C699.6 177.492 698.9 179.006 697.7 180.116C696.9 180.923 695.9 181.529 695.1 182.336C694.2 183.345 693.7 184.657 693.3 185.767C693.1 186.17 693.1 186.675 693 187.078C692.6 188.895 690.3 191.014 689.5 192.931C689.2 193.738 689.4 194.646 689 195.453C688.6 196.362 687.9 196.765 687.6 197.774C687.3 199.187 687.2 200.701 687.1 202.113C687 203.728 687.1 205.241 687.1 206.856C687.2 209.479 686.9 212.103 686.8 214.625C686.8 216.341 687.1 218.157 687.3 219.873C687.4 221.184 687.2 222.496 687.3 223.909C687.4 225.12 688.1 226.129 687.9 227.44C687.8 227.945 687.6 228.449 687.8 228.954C687.9 229.559 688.4 229.862 688.4 230.468C688.5 231.073 688.2 231.779 688.3 232.385C688.4 233.192 688.7 234.201 688.2 234.907C688.2 234.907 686.6 237.026 686.9 238.237C687.4 240.255 690 240.457 691.7 240.356C693.8 240.356 696.1 240.255 698.2 239.953C699.4 239.751 699.8 238.338 700.6 237.632C701.7 236.825 703.1 237.43 704.3 236.724C704.9 236.32 705.4 235.816 706 235.311C707.9 233.495 710.2 231.376 712.9 231.88C713.6 231.981 714.6 231.981 715.2 232.284C716.8 232.788 717.5 233.192 719.1 232.183L721.7 232.587C721.7 232.587 722.8 232.99 723.1 234.403C723.3 235.614 723.2 236.926 723.6 238.136C724 239.852 722.1 241.164 723 242.778C723 242.778 722.6 246.209 723 249.438C723.1 250.447 723.4 251.557 723.5 252.566C723.7 254.786 722 257.107 722 259.326C722 261.143 722.6 263.06 722.6 263.06C722.6 263.06 721.2 270.527 721.7 273.857" stroke="#020202" stroke-width="1.5" stroke-miterlimit="10"/>
<path d="M740.1 275.572C740.1 274.059 740 273.554 739.6 271.637C739.2 269.619 738.9 263.464 738.9 261.546C738.9 259.73 739.8 255.593 739.8 255.29C739.8 254.988 738.6 249.942 738.9 248.328C739.7 243.182 738.4 238.237 738.9 233.091C739.4 228.248 742.8 225.321 746.8 223.202C749.1 221.992 752.7 218.258 754.4 217.35C756.1 216.442 758.1 215.937 758.3 214.726C758.5 213.516 759.8 210.085 759.8 210.085C759.8 210.085 761.4 207.058 761.4 204.838C761.4 202.618 763 196.059 763 193.334C763 190.61 763.9 186.17 763.6 184.858C763.3 183.547 762.5 180.519 762.5 180.519V169.42C762.5 169.42 764 169.218 765.1 169.42C766.1 169.622 766.4 171.135 766.5 171.236C766.6 171.539 768 172.043 768.2 172.245C770.1 173.254 771.3 173.456 771.6 175.878C771.8 177.492 772.5 179.006 773.7 180.116C774.5 180.923 775.5 181.529 776.3 182.336C777.2 183.345 777.7 184.657 778.1 185.767C778.3 186.17 778.3 186.675 778.4 187.078C778.8 188.895 781.1 191.014 781.9 192.931C782.2 193.738 782 194.646 782.4 195.453C782.8 196.362 783.5 196.765 783.8 197.774C784.1 199.187 784.2 200.701 784.3 202.113C784.4 203.728 784.3 205.241 784.3 206.856C784.2 209.479 784.5 212.103 784.6 214.625C784.6 216.341 784.3 218.157 784.1 219.873C783.9 222.597 784.5 225.422 784.3 228.147C784.1 230.468 782.5 232.587 784.1 234.706C784.1 234.706 784.3 236.825 784 238.035C783.5 240.054 782.3 240.255 780.6 240.255C778.5 240.255 776.2 240.155 774.1 239.852C772.9 239.65 772.5 238.237 771.7 237.531C770.6 236.724 768.4 237.531 767.2 236.825C766.6 236.421 766.2 235.614 765.5 235.412C756.7 232.587 749.8 235.21 748 238.136C747.1 239.65 749.5 241.164 748.6 242.778C748.6 242.778 749 246.209 748.6 249.438C748.5 250.447 748.2 251.557 748.1 252.566C747.9 254.786 749.6 257.107 749.6 259.327C749.6 261.143 749 263.06 749 263.06C749 263.06 748.9 266.995 748.4 270.426C747.9 273.756 749.2 273.958 749.2 273.958" fill="#F9F7E1"/>
<path d="M740.1 275.572C740.1 274.059 740 273.554 739.6 271.637C739.2 269.619 738.9 263.464 738.9 261.546C738.9 259.73 739.8 255.593 739.8 255.29C739.8 254.988 738.6 249.942 738.9 248.328C739.7 243.182 738.4 238.237 738.9 233.091C739.4 228.248 742.8 225.321 746.8 223.202C749.1 221.992 752.7 218.258 754.4 217.35C756.1 216.442 758.1 215.937 758.3 214.726C758.5 213.516 759.8 210.085 759.8 210.085C759.8 210.085 761.4 207.058 761.4 204.838C761.4 202.618 763 196.059 763 193.334C763 190.61 763.9 186.17 763.6 184.858C763.3 183.547 762.5 180.519 762.5 180.519V169.42C762.5 169.42 764 169.218 765.1 169.42C766.1 169.622 766.4 171.135 766.5 171.236C766.6 171.539 768 172.043 768.2 172.245C770.1 173.254 771.3 173.456 771.6 175.878C771.8 177.492 772.5 179.006 773.7 180.116C774.5 180.923 775.5 181.529 776.3 182.336C777.2 183.345 777.7 184.657 778.1 185.767C778.3 186.17 778.3 186.675 778.4 187.078C778.8 188.895 781.1 191.014 781.9 192.931C782.2 193.738 782 194.646 782.4 195.453C782.8 196.362 783.5 196.765 783.8 197.774C784.1 199.187 784.2 200.701 784.3 202.113C784.4 203.728 784.3 205.241 784.3 206.856C784.2 209.479 784.5 212.103 784.6 214.625C784.6 216.341 784.3 218.157 784.1 219.873C783.9 222.597 784.5 225.422 784.3 228.147C784.1 230.468 782.5 232.587 784.1 234.706C784.1 234.706 784.3 236.825 784 238.035C783.5 240.054 782.3 240.255 780.6 240.255C778.5 240.255 776.2 240.155 774.1 239.852C772.9 239.65 772.5 238.237 771.7 237.531C770.6 236.724 768.4 237.531 767.2 236.825C766.6 236.421 766.2 235.614 765.5 235.412C756.7 232.587 749.8 235.21 748 238.136C747.1 239.65 749.5 241.164 748.6 242.778C748.6 242.778 749 246.209 748.6 249.438C748.5 250.447 748.2 251.557 748.1 252.566C747.9 254.786 749.6 257.107 749.6 259.327C749.6 261.143 749 263.06 749 263.06C749 263.06 748.9 266.995 748.4 270.426C747.9 273.756 749.2 273.958 749.2 273.958" stroke="#020202" stroke-width="1.5" stroke-miterlimit="10"/>
<path d="M759.5 266.289C762.427 266.289 764.8 263.895 764.8 260.941C764.8 257.987 762.427 255.593 759.5 255.593C756.573 255.593 754.2 257.987 754.2 260.941C754.2 263.895 756.573 266.289 759.5 266.289Z" fill="#E8E9EA" stroke="black" stroke-width="1.5" stroke-miterlimit="10"/>
<path d="M707.8 146.918V148.331" stroke="black" stroke-width="1.5" stroke-miterlimit="10"/>
<path d="M702.9 134.708V136.121" stroke="black" stroke-width="1.5" stroke-miterlimit="10"/>
<path d="M705.9 154.89V156.302" stroke="black" stroke-width="1.5" stroke-miterlimit="10"/>
<path d="M718.5 149.037V150.45" stroke="black" stroke-width="1.5" stroke-miterlimit="10"/>
<path d="M712.1 159.329V160.742" stroke="black" stroke-width="1.5" stroke-miterlimit="10"/>
<path d="M713.9 136.928V138.341" stroke="black" stroke-width="1.5" stroke-miterlimit="10"/>
<path d="M753.3 136.928V138.341" stroke="black" stroke-width="1.5" stroke-miterlimit="10"/>
<path d="M763.3 136.222V137.635" stroke="black" stroke-width="1.5" stroke-miterlimit="10"/>
<path d="M751 147.725V149.138" stroke="black" stroke-width="1.5" stroke-miterlimit="10"/>
<path d="M744.4 152.569V153.981" stroke="black" stroke-width="1.5" stroke-miterlimit="10"/>
<path d="M741.9 175.172V176.584" stroke="black" stroke-width="1.5" stroke-miterlimit="10"/>
<path d="M727.8 177.29V178.703" stroke="black" stroke-width="1.5" stroke-miterlimit="10"/>
<path d="M732 171.64V173.052" stroke="black" stroke-width="1.5" stroke-miterlimit="10"/>
<path d="M760.5 152.67V154.082" stroke="black" stroke-width="1.5" stroke-miterlimit="10"/>
<path d="M767.6 148.331V149.743" stroke="black" stroke-width="1.5" stroke-miterlimit="10"/>
<path d="M667.6 123.71C667.6 123.71 653.5 116.243 657.3 106.96C661.1 97.6763 675.5 83.9531 672.6 94.3464C669.7 104.74 657.8 116.747 649.2 109.28C640.6 101.813 637.8 79.9169 641.8 75.2753" stroke="black" stroke-width="1.5" stroke-miterlimit="10"/>
<path d="M725.2 161.751L708.4 182.336C708.4 182.336 707 183.143 708.8 184.253C710.7 185.363 712 186.17 712 186.17C713 185.06 714 183.849 715 182.739C717.3 180.116 720.2 176.584 722.5 173.961C724.9 171.135 727.2 168.613 729.5 165.989C730.3 164.98 730.9 164.072 731.7 163.063C732.1 162.558 732.5 162.155 732.9 161.65C733.2 161.347 733.6 160.944 733.9 160.54C734 160.439 734 160.238 733.9 160.137C733.7 159.733 732.5 160.036 732.1 160.036C731.3 160.137 730.4 160.137 729.6 160.238C728.4 160.439 725.6 161.247 725.2 161.751Z" fill="white" stroke="black" stroke-width="1.5" stroke-miterlimit="10"/>
</svg>
