<svg width="611" height="146" viewBox="0 0 611 146" fill="none" xmlns="http://www.w3.org/2000/svg">
<path d="M25.8789 37.7461C25.8789 34.8555 26.9141 32.375 28.9844 30.3047C31.0547 28.1953 33.5352 27.1406 36.4258 27.1406C39.3164 27.1406 41.7773 28.1758 43.8086 30.2461C45.8789 32.3164 46.9141 34.8164 46.9141 37.7461C46.9141 40.6758 45.8789 43.1758 43.8086 45.2461C41.7773 47.3164 39.3164 48.3516 36.4258 48.3516C33.5352 48.3516 31.0547 47.3164 28.9844 45.2461C26.9141 43.1367 25.8789 40.6367 25.8789 37.7461ZM46.4453 58.0781V105.891C46.4453 114.328 45.8398 120.344 44.6289 123.938C43.418 127.57 40.4688 130.715 35.7812 133.371C31.1328 136.066 25.5078 137.414 18.9062 137.414C14.5703 137.414 11.0352 136.652 8.30078 135.129C5.52734 133.605 4.14062 131.496 4.14062 128.801C4.14062 126.809 4.86328 125.148 6.30859 123.82C7.71484 122.492 9.43359 121.828 11.4648 121.828C14.9023 121.828 17.2461 123.605 18.4961 127.16C19.3555 129.543 20.6641 130.734 22.4219 130.734C24.2969 130.734 25.6055 129.738 26.3477 127.746C27.1289 125.793 27.5195 121.652 27.5195 115.324V76.5938C27.5195 73.7031 27.0508 71.6914 26.1133 70.5586C25.2148 69.4258 23.1445 68.8594 19.9023 68.8594H18.0859V62.5898L46.4453 58.0781ZM53.2773 83.8594C53.2773 75.8125 56.1289 69.5039 61.832 64.9336C67.5352 60.3633 74.4297 58.0781 82.5156 58.0781C90.4062 58.0781 97.2812 60.3047 103.141 64.7578C109 69.1719 111.93 75.5586 111.93 83.918C111.93 91.8477 109.059 98.1758 103.316 102.902C97.5742 107.59 90.6211 109.934 82.457 109.934C74.4883 109.934 67.6328 107.707 61.8906 103.254C56.1484 98.7617 53.2773 92.2969 53.2773 83.8594ZM73.375 83.2734C73.375 90.7734 74.0586 96.0273 75.4258 99.0352C76.832 102.004 79.2539 103.488 82.6914 103.488C85.4648 103.488 87.6719 102.238 89.3125 99.7383C90.9922 97.2383 91.832 91.9062 91.832 83.7422C91.832 76.3203 91.0898 71.3008 89.6055 68.6836C88.1211 66.0273 85.7773 64.6992 82.5742 64.6992C80.0352 64.6992 77.8672 65.832 76.0703 68.0977C74.2734 70.3242 73.375 75.3828 73.375 83.2734ZM137.13 83.4492C137.13 89.8164 138.204 94.6016 140.352 97.8047C142.54 101.008 145.802 102.609 150.137 102.609C154.747 102.609 158.985 100.266 162.852 95.5781L168.302 98.8594C166.075 102.062 162.872 104.719 158.692 106.828C154.552 108.898 149.962 109.934 144.923 109.934C137.188 109.934 130.567 107.59 125.059 102.902C119.552 98.1758 116.798 91.8086 116.798 83.8008C116.798 75.793 119.454 69.5039 124.766 64.9336C130.118 60.3633 136.544 58.0781 144.044 58.0781C151.583 58.0781 157.755 60.1875 162.559 64.4062C167.403 68.5859 169.825 74.9336 169.825 83.4492H137.13ZM137.071 77.5312H151.895C151.661 68.8984 149.141 64.582 144.337 64.582C141.915 64.582 140.098 65.6562 138.887 67.8047C137.677 69.9531 137.071 73.1953 137.071 77.5312ZM198.02 109.934L197.61 93.9961H203.352C206.399 100.598 211.985 103.898 220.11 103.898C223.509 103.898 226.321 103.312 228.548 102.141C230.774 100.969 231.887 99.6406 231.887 98.1562C231.887 96.8672 231.282 95.8711 230.071 95.168C228.821 94.5039 226.028 93.7227 221.692 92.8242C214.973 91.457 210.012 90.168 206.809 88.957C203.606 87.707 201.028 85.8125 199.075 83.2734C197.122 80.6953 196.145 77.7656 196.145 74.4844C196.145 69.6016 198.137 65.6562 202.122 62.6484C206.106 59.6016 211.438 58.0781 218.118 58.0781C223.274 58.0781 228.528 59.0938 233.88 61.125C234.817 60.2266 235.559 59.2109 236.106 58.0781H240.97L241.497 72.6094H236.809C233.802 66.6328 227.805 63.6445 218.821 63.6445C215.891 63.6445 213.489 64.1328 211.614 65.1094C209.739 66.0469 208.802 67.2578 208.802 68.7422C208.802 70.3047 209.563 71.457 211.087 72.1992C212.571 72.9414 216.204 73.8789 221.985 75.0117C228.001 76.2227 232.512 77.4531 235.52 78.7031C238.567 79.9531 240.95 81.7891 242.669 84.2109C244.427 86.5938 245.305 89.3672 245.305 92.5312C245.305 97.6484 243.04 101.828 238.509 105.07C233.977 108.312 228.372 109.934 221.692 109.934C216.575 109.934 211.223 108.84 205.637 106.652C204.583 107.434 203.802 108.527 203.294 109.934H198.02ZM294.208 93.2344L300.184 95.8711C298.544 100.363 295.555 103.84 291.22 106.301C286.923 108.723 281.903 109.934 276.161 109.934C268.309 109.934 261.649 107.746 256.18 103.371C250.751 98.957 248.036 92.8828 248.036 85.1484C248.036 77.0234 251.005 70.4805 256.942 65.5195C262.88 60.5586 270.575 58.0781 280.028 58.0781C285.887 58.0781 290.516 59.1523 293.915 61.3008C297.352 63.4492 299.071 66.2812 299.071 69.7969C299.071 71.7891 298.387 73.5469 297.02 75.0703C295.692 76.5547 293.954 77.2969 291.805 77.2969C287.548 77.2969 284.833 74.5234 283.661 68.9766C283.309 67.3359 282.782 66.1641 282.079 65.4609C281.376 64.7578 280.165 64.4062 278.446 64.4062C274.97 64.4062 272.352 65.793 270.595 68.5664C268.876 71.3008 268.016 75.4219 268.016 80.9297C268.016 88.4688 269.052 93.8984 271.122 97.2188C273.231 100.5 276.512 102.141 280.966 102.141C287.059 102.141 291.473 99.1719 294.208 93.2344ZM327.698 75.5977V93.9961C327.698 96.7695 328.127 98.7617 328.987 99.9727C329.846 101.145 331.409 101.75 333.674 101.789V108H301.038V101.789C304.397 101.789 306.526 101.223 307.424 100.09C308.323 98.957 308.772 96.9258 308.772 93.9961V45.7734C308.772 42.8438 308.303 40.8125 307.366 39.6797C306.467 38.5469 304.358 37.9805 301.038 37.9805V31.7695L327.698 27.1406V66.5742C330.237 63.7227 332.971 61.5938 335.901 60.1875C338.83 58.7812 341.955 58.0781 345.276 58.0781C349.338 58.0781 352.795 58.957 355.647 60.7148C358.498 62.4727 360.413 64.6016 361.389 67.1016C362.366 69.6016 362.854 73.1172 362.854 77.6484V93.9961C362.854 97.0039 363.323 99.0547 364.26 100.148C365.198 101.242 367.209 101.789 370.295 101.789V108H337.659V101.789C339.221 101.672 340.608 101.203 341.819 100.383C343.03 99.5625 343.635 97.4336 343.635 93.9961V75.5977C343.635 70.5586 341.741 68.0391 337.952 68.0391C336.389 68.0391 334.748 68.6641 333.03 69.9141C331.311 71.1641 329.534 73.0586 327.698 75.5977ZM397.281 75.6562V94.1133C397.281 97.043 397.75 99.0547 398.688 100.148C399.625 101.242 401.598 101.789 404.605 101.789V108H369.273V101.789H370.797C374.156 101.789 376.266 101.223 377.125 100.09C377.984 98.918 378.414 96.9258 378.414 94.1133V77.707C378.414 74.7383 377.945 72.707 377.008 71.6133C376.07 70.4805 373.863 69.9141 370.387 69.9141V63.7031L396.285 59.4258C396.949 61.1445 397.281 63.6836 397.281 67.043C399.938 64.0352 402.945 61.7891 406.305 60.3047C409.703 58.8203 413.434 58.0781 417.496 58.0781C421.949 58.0781 425.602 58.9375 428.453 60.6562C431.344 62.3359 433.434 64.8945 434.723 68.332C437.184 64.8945 440.074 62.3359 443.395 60.6562C446.715 58.9375 450.484 58.0781 454.703 58.0781C458.18 58.0781 461.344 58.7227 464.195 60.0117C467.047 61.2617 469.215 62.8438 470.699 64.7578C472.184 66.6328 473.16 68.5273 473.629 70.4414C474.137 72.3164 474.391 75.0508 474.391 78.6445V94.1133C474.391 97.1602 474.879 99.2109 475.855 100.266C476.871 101.281 479.234 101.789 482.945 101.789V108H448.258V101.789C451.266 101.789 453.199 101.223 454.059 100.09C454.957 98.957 455.406 96.9648 455.406 94.1133V77.2969C455.406 74.0156 454.801 71.5547 453.59 69.9141C452.379 68.2734 450.543 67.4531 448.082 67.4531C445.777 67.4531 443.609 68.1367 441.578 69.5039C439.547 70.8711 437.652 72.9219 435.895 75.6562V94.1133C435.895 97.0039 436.363 99.0156 437.301 100.148C438.238 101.242 440.211 101.789 443.219 101.789V108H409.879V101.789C412.77 101.75 414.664 101.184 415.562 100.09C416.461 98.9961 416.91 97.0039 416.91 94.1133V77.4141C416.91 74.1719 416.305 71.75 415.094 70.1484C413.922 68.5078 412.125 67.6875 409.703 67.6875C407.594 67.6875 405.504 68.3516 403.434 69.6797C401.363 71.0078 399.312 73 397.281 75.6562ZM481.34 83.8594C481.34 75.8125 484.191 69.5039 489.895 64.9336C495.598 60.3633 502.492 58.0781 510.578 58.0781C518.469 58.0781 525.344 60.3047 531.203 64.7578C537.062 69.1719 539.992 75.5586 539.992 83.918C539.992 91.8477 537.121 98.1758 531.379 102.902C525.637 107.59 518.684 109.934 510.52 109.934C502.551 109.934 495.695 107.707 489.953 103.254C484.211 98.7617 481.34 92.2969 481.34 83.8594ZM501.438 83.2734C501.438 90.7734 502.121 96.0273 503.488 99.0352C504.895 102.004 507.316 103.488 510.754 103.488C513.527 103.488 515.734 102.238 517.375 99.7383C519.055 97.2383 519.895 91.9062 519.895 83.7422C519.895 76.3203 519.152 71.3008 517.668 68.6836C516.184 66.0273 513.84 64.6992 510.637 64.6992C508.098 64.6992 505.93 65.832 504.133 68.0977C502.336 70.3242 501.438 75.3828 501.438 83.2734ZM563.992 83.4492C563.992 89.8164 565.066 94.6016 567.215 97.8047C569.402 101.008 572.664 102.609 577 102.609C581.609 102.609 585.848 100.266 589.715 95.5781L595.164 98.8594C592.938 102.062 589.734 104.719 585.555 106.828C581.414 108.898 576.824 109.934 571.785 109.934C564.051 109.934 557.43 107.59 551.922 102.902C546.414 98.1758 543.66 91.8086 543.66 83.8008C543.66 75.793 546.316 69.5039 551.629 64.9336C556.98 60.3633 563.406 58.0781 570.906 58.0781C578.445 58.0781 584.617 60.1875 589.422 64.4062C594.266 68.5859 596.688 74.9336 596.688 83.4492H563.992ZM563.934 77.5312H578.758C578.523 68.8984 576.004 64.582 571.199 64.582C568.777 64.582 566.961 65.6562 565.75 67.8047C564.539 69.9531 563.934 73.1953 563.934 77.5312Z" fill="black"/>
<path d="M47.437 37.6547C47.437 45.1959 41.295 51.3094 33.7185 51.3094C26.142 51.3094 20 45.1959 20 37.6547C20 30.1134 26.142 24 33.7185 24C41.295 24 47.437 30.1134 47.437 37.6547Z" fill="#F44711"/>
</svg>
