<svg xmlns="http://www.w3.org/2000/svg" viewBox="0 0 125 125"><title>Artboard 4</title><g id="person_10" data-name="person 10"><g id="neck"><path d="M54.7,64.49s-.46,6-1.39,8.22-11.84,4.68-11.84,4.68-1.38,1.36-.7,2.62,16.61,7.16,26.08,6.57S88.56,81,90,80s.59-1.64.59-1.64-12.88-2.63-14.19-5-1.08-9.21-1.08-9.21Z" fill="#d19a75" stroke="#020202" stroke-miterlimit="10" stroke-width="0.75"/></g><g id="shirt"><path d="M119.3,127.83s-7.39-15.51-8.23-18.7.2-15.08-.3-18.21-1.44-7-2.51-8.9-4.4-5.69-5.45-5.87-1.26-.33-1.92,0a10.74,10.74,0,0,0-1.68,1.24L90,77.53S77,84,64.88,84.15,40.77,77,40.77,77L32,79.1a10.49,10.49,0,0,0-3.85-1.28A4,4,0,0,0,24.92,80c-1,2-1.36,3.26-3.38,10.91s1.1,15.36.37,19.74-4.81,17.76-4.81,17.76" fill="#0fd3ad" stroke="#020202" stroke-miterlimit="10" stroke-width="0.75"/><path d="M97.89,86.58s.35-7.82,1.32-9.19" fill="none" stroke="#000" stroke-miterlimit="10" stroke-width="0.75"/><path d="M34.67,86.58S33.89,81.21,32,79.1" fill="none" stroke="#000" stroke-miterlimit="10" stroke-width="0.75"/><path d="M97.11,99.51c-2.56-.68-.64,3.55-.23,4.45.86,1.86,2.12,3.58,2.58,5.6,1.28,5.62-5.21,12.75-6,18.3" fill="none" stroke="#000" stroke-miterlimit="10" stroke-width="0.75"/><path d="M39.2,101.16c2.57-.68.64,3.56.23,4.45-.85,1.86-2.11,3.58-2.57,5.6-1.28,5.62,7.71,12.55,8.47,18.1" fill="none" stroke="#000" stroke-miterlimit="10" stroke-width="0.75"/></g><path id="iphone" d="M64.1,106q-.27-5.07-.48-10.16c-.11-2.56-.21-5.12-.26-7.68,0-1.88-.67-5.11,1-6.49.91-.73,2.46-.49,3.59-.5,3,0,6.1.22,9.13.05,1-.05,2.56-.35,3.45.23,1.17.75.76,2.61.85,3.88.2,2.79.33,5.59.44,8.38,0,0,.86,23.37.85,23.88-.07,3.56-2.75,2.88-5.52,2.89-2.35,0-4.7,0-7-.12-1.57,0-3.77.44-5.09-.82s-.92-3.27-.87-4.77Z" fill="#23211b" stroke="#000" stroke-miterlimit="10" stroke-width="0.75"/><g id="Layer_83" data-name="Layer 83"><path id="hand" d="M103.81,127.42s-8.56-3.07-10.11-3.81-8.36-5.7-8.36-5.7.55-9,.2-10.21A47.55,47.55,0,0,0,82.79,101c-.67-1-.78-1.56-1.77-1.83s-9.24-.29-9.58-.24-1.11.25-1.11.25S69,99.15,69,99.41s-.06,1.77.12,1.83a9.56,9.56,0,0,1,1.4.12c.31.16.69.66,1.19.77s7.09.3,7.21.58a9,9,0,0,1,.79,2.77c-.05.83,0,1.28,0,1.28a31.88,31.88,0,0,0-4.83-1.12c-1.16,0-8.69-.14-9.3,0s-.83.66-1.14.63-1.31-.35-1.45,0-.51,2-.27,2.05,1.48.15,1.48.15.12.51.51.51h.62a7.3,7.3,0,0,0-1.75.25.69.69,0,0,1-.42.34c-.16,0-1.2,0-1.28.11a6.24,6.24,0,0,0-.17,1.53c0,.21,1,.24,1.11.25s.11.36.23.53a16.61,16.61,0,0,0,2.9.23s-1,.07-1,.33,0,.38-.18.4a5.06,5.06,0,0,0-1,0c-.11.08-.28,1.49-.1,1.55s1.42.06,1.48.13,0,.48.1.59,3,.12,4.14.27,4.82,1.69,5.24,3.17.52,3,1.15,4.6,3.3,3.33,3.3,3.33" fill="#d19a75" stroke="#020202" stroke-miterlimit="10" stroke-width="0.75"/><path d="M78.08,110.84s-3.91-1.78-5.46-1.88-7.75,0-7.75,0" fill="none" stroke="#000" stroke-miterlimit="10" stroke-width="0.75"/><path d="M75.55,114a22.44,22.44,0,0,0-4.39-1.5,23.86,23.86,0,0,0-5.28-.21" fill="none" stroke="#000" stroke-miterlimit="10" stroke-width="0.75"/></g><polygon points="74.64 90.78 67.44 89.19 73.37 87.58 69.83 80.43 77.47 84.33 79.67 74.73 81.55 83.29 86.7 81.3 82.59 87.74 89.13 93.34 78.46 90.71 74.58 96.13 74.64 90.78" fill="#fff"/><path d="M79.66,76.44l1.43,6.5.18.86.82-.32,3.68-1.42-3.32,5.2-.35.55.49.43,5.1,4.36L78.8,90.41l-.5-.13L78,90.7l-3,4.24,0-3.85v-.61l-.59-.13L69,89.15l4-1.09.88-.24L73.5,87l-2.83-5.73,6.2,3.17.86.44.21-.94,1.72-7.51m0-3.43L77.21,83.78,69,79.58l3.84,7.76-7,1.88,8.38,1.86-.07,6.24,4.43-6.19,11.95,3-7.49-6.42,4.55-7.13-5.81,2.24L79.68,73Z"/><path d="M123.25,27.23s-11.09,5.17-15.8,8.08S46.54,46,35.63,44.06,3.54,39.17,1.88,41.18.38,44,1.47,46.61s6.08,10.87,15.9,12.86,34.42,2.45,46.95,1.42,19.47-2.4,27.29-6.35,15.86-8.49,19.45-11.43,7.52-5.49,10.51-9.06a8.71,8.71,0,0,0,2-4.16C123.68,29.54,124.29,26.74,123.25,27.23Z" fill="#d1cdb0" stroke="#020202" stroke-miterlimit="10" stroke-width="0.75"/><path id="head-3" data-name="head" d="M44.59,47.14s2.27,12.3,7.83,16.47S60.17,71.34,66,71.34s11-8.72,14.08-15.3S84.4,43.36,84,39.94,82.4,15.33,63.68,15.09,43.51,37.28,44.59,47.14Z" fill="#d19a75" stroke="#020202" stroke-miterlimit="10" stroke-width="0.75"/><path id="nose-4" data-name="nose" d="M68.8,49.57c.71,1.71,4.68,4.38,4.17,5.28s-8.37-.34-8.38-1" fill="none" stroke="#000" stroke-miterlimit="10" stroke-width="0.75"/><g id="hair-4" data-name="hair"><path d="M54.4,67l-10,.66c-.4.06-2.33-5.81-2.54-6.45C40,55.59,40,53.31,40.08,47.43l0-1.16,4.54.64s1.31,7.76,3.46,11.15a25.13,25.13,0,0,0,3.54,4.85c.77.77,2.93,2.6,2.93,2.6Z" fill="#fff" stroke="#000" stroke-miterlimit="10" stroke-width="0.75"/><path d="M75.31,66.74l8.25.83c.4.06,2.33-5.8,2.54-6.44,1.82-5.63,1.82-7.91,1.75-13.79l0-1.16-4.54.64A76.49,76.49,0,0,1,79.81,57.2a33.65,33.65,0,0,1-2.72,5.08c-.56.93-1.8,2.84-1.8,2.84Z" fill="#fff" stroke="#000" stroke-miterlimit="10" stroke-width="0.75"/></g><circle id="beauty_mark" data-name="beauty mark" cx="72.97" cy="58.32" r="0.67" fill="#020202" stroke="#020202" stroke-miterlimit="10" stroke-width="0.75"/><path id="mouth-4" data-name="mouth" d="M65.41,63.15c-.49,1.32-1.21,1.08-3.47.25s-4.73-1.58-4.25-2.9,3.17-2.1,5.44-1.28S65.89,61.83,65.41,63.15Z" fill="#fff" stroke="#000" stroke-miterlimit="10" stroke-width="0.75"/><g id="diamond_ring" data-name="diamond ring"><polygon points="71.94 113.09 71.19 111.43 71.95 108.97 73.59 108.68 76.94 109.86 77.69 111.63 77.03 113.71 75.17 114.52 71.94 113.09" fill="#fff"/><path d="M73.56,109.06l3.1,1.1.63,1.49-.56,1.78-1.56.68-3-1.31-.63-1.4.65-2.1,1.32-.24m.06-.77-2,.35-.86,2.81.86,1.92,3.51,1.56,2.17-1,.74-2.37-.86-2-3.6-1.27Z"/></g><g id="nails"><path d="M65.17,108.36a.19.19,0,0,1-.13,0c-.58,0-1.35-.24-1.94-.28a.15.15,0,0,1-.11,0,.13.13,0,0,1-.05-.12,2.78,2.78,0,0,1,.32-1.45,1.78,1.78,0,0,1,.65,0c.42,0,.91.12,1.32.2a.15.15,0,0,1,.12.05s0,.08,0,.13c0,.46-.13.9-.16,1.36C65.2,108.29,65.2,108.34,65.17,108.36Z" fill="#fce8ea"/><path d="M63.94,111.44a.12.12,0,0,1-.1,0c-.5,0-1.17-.14-1.67-.15a.14.14,0,0,1-.11,0,.12.12,0,0,1,0-.1,2.41,2.41,0,0,1,.21-1.25,1.32,1.32,0,0,1,.56,0c.36,0,.78.06,1.14.11a.14.14,0,0,1,.1,0,.2.2,0,0,1,0,.11c0,.4-.07.77-.08,1.17A.13.13,0,0,1,63.94,111.44Z" fill="#fce8ea"/><path d="M71.1,101a.14.14,0,0,1-.09,0c-.47,0-1.1,0-1.57,0h-.1a.16.16,0,0,1,0-.1,2.25,2.25,0,0,1,.09-1.18,1.49,1.49,0,0,1,.52-.07c.34,0,.73,0,1.07,0a.13.13,0,0,1,.09,0,.15.15,0,0,1,0,.11c0,.36,0,.72,0,1.09A.1.1,0,0,1,71.1,101Z" fill="#fce8ea"/><path d="M65.22,114.23a.1.1,0,0,1-.07,0c-.38,0-.88,0-1.25,0a.06.06,0,0,1-.07,0,.09.09,0,0,1,0-.07,1.75,1.75,0,0,1,.1-.94,1.12,1.12,0,0,1,.41,0c.27,0,.58,0,.85,0l.07,0a.16.16,0,0,1,0,.09c0,.29,0,.57,0,.86A.11.11,0,0,1,65.22,114.23Z" fill="#fce8ea"/></g><g id="hat-2" data-name="hat"><path d="M39.4,34.06c.72-.11,3.15-8.15,3.61-9.17A30.4,30.4,0,0,1,48.65,16c5.82-6,14.63-4.85,21.49-1.31a23.18,23.18,0,0,1,8,6.44c.5.67,3.71,6.27,4.59,6.13Z" fill="#f9f7e1" stroke="#020202" stroke-miterlimit="10" stroke-width="0.75"/><path d="M4.53,40.54S29.39,35.92,34,34.62s22-9.41,31.85-9.34,12.15,1,24.93,1.89,30.79.83,31.61.45-4.54,4.09-7.78,6.47S88.66,51.2,73,49.93,20,44,14.65,43.08A79.22,79.22,0,0,1,4.53,40.54Z" fill="#f9f7e1" stroke="#020202" stroke-miterlimit="10" stroke-width="0.75"/></g></g></svg>