<svg width="300" height="312" viewBox="0 0 300 312" fill="none" xmlns="http://www.w3.org/2000/svg">
<g clip-path="url(#clip0)">
<path d="M112.098 180.687C115.398 179.206 122.084 171.195 122.084 171.195C122.084 171.195 125.991 157.785 126.686 150.732C127.381 143.591 128.423 124.086 128.423 124.086L196.151 127.221C196.151 127.221 196.151 146.378 196.064 148.381C195.716 155.347 196.758 162.923 197.279 169.889C197.8 176.942 199.797 183.821 204.486 189.307C207.265 192.442 211.433 195.751 214.819 198.189C214.819 198.189 226.715 204.459 229.841 206.549C233.054 208.726 239.045 211.512 239.045 211.512C239.045 211.512 248.336 231.453 236.961 247.824C225.586 264.194 187.033 269.158 163.415 263.846C139.797 258.534 82.3155 225.445 90.4776 209.422C98.6397 193.4 99.6817 186.172 112.098 180.687Z" fill="#FCE7D4" stroke="#020202" stroke-width="1.75" stroke-miterlimit="10"/>
<path d="M300 305.992C299.392 305.992 296.266 275.34 295.485 271.509C294.182 265.326 292.446 258.186 289.928 251.22C284.805 236.503 276.729 221.961 263.531 216.04C249.465 209.683 251.896 211.251 238.263 204.023C231.838 200.627 226.107 196.709 219.682 193.313C216.469 191.571 215.08 190.265 211.867 188.611C210.304 187.74 208.567 187.392 207.091 186.521C205.702 185.65 204.226 180.948 203.01 179.816C199.103 176.071 198.321 174.243 197.193 169.279C196.932 168.06 196.237 163.88 196.064 162.313C195.977 161.704 195.022 134.274 195.543 138.105L116.266 127.482C116.266 127.482 117.395 162.661 117.395 162.836C117.395 165.274 115.311 168.147 115.832 170.585C116.353 173.024 115.485 175.114 114.703 177.465C113.227 181.644 107.67 181.993 104.284 184.344C100.55 186.956 100.376 190.526 96.2085 192.268C92.0406 194.009 88.0464 196.186 83.9654 198.102C66.0782 206.723 62.9523 207.419 45.0652 216.127C44.3706 216.476 43.6759 216.911 42.8945 217.172C35.6007 220.742 24.8337 225.357 17.8004 234.152C10.6803 242.947 6.07825 282.481 3.90748 292.582C1.73671 302.596 0.868408 305.992 0.868408 305.992" fill="#F44711"/>
<path d="M300 305.992C299.392 305.992 296.266 275.34 295.485 271.509C294.182 265.326 292.446 258.186 289.928 251.22C284.805 236.503 276.729 221.961 263.531 216.04C249.465 209.683 251.896 211.251 238.263 204.023C231.838 200.627 226.107 196.709 219.682 193.313C216.469 191.571 215.08 190.265 211.867 188.611C210.304 187.74 208.567 187.392 207.091 186.521C205.702 185.65 204.226 180.948 203.01 179.816C199.103 176.071 198.321 174.243 197.193 169.279C196.932 168.06 196.237 163.88 196.064 162.313C195.977 161.704 195.022 134.274 195.543 138.105L116.266 127.482C116.266 127.482 117.395 162.661 117.395 162.836C117.395 165.274 115.311 168.147 115.832 170.585C116.353 173.024 115.485 175.114 114.703 177.465C113.227 181.644 107.67 181.993 104.284 184.344C100.55 186.956 100.376 190.526 96.2085 192.268C92.0406 194.009 88.0464 196.186 83.9654 198.102C66.0782 206.723 62.9523 207.419 45.0652 216.127C44.3706 216.476 43.6759 216.911 42.8945 217.172C35.6007 220.742 24.8337 225.357 17.8004 234.152C10.6803 242.947 6.07825 282.481 3.90748 292.582C1.73671 302.596 0.868408 305.992 0.868408 305.992" stroke="#020202" stroke-width="1.75" stroke-miterlimit="10"/>
<path d="M218.466 85.4234C218.553 85.4234 217.771 79.4151 217.685 79.1538C216.99 77.7606 216.99 76.4544 216.469 74.9741C216.295 74.5387 215.948 73.8421 215.861 73.4067C215.08 69.5753 213.864 65.918 213.083 62.0866C212.301 58.5164 211.606 54.9462 210.738 51.376C208.307 41.0137 204.313 28.3004 196.324 20.5504C191.201 15.587 183.907 13.9325 177.048 13.5842C164.631 12.9747 151.693 14.5421 140.579 20.115C130.68 25.1656 121.563 32.5672 114.964 41.5362C107.67 51.376 108.104 63.1315 109.667 74.7129C110.796 83.3336 112.619 91.9543 115.138 100.314C118.524 111.721 131.114 140.892 131.114 140.892C141.36 155.957 158.727 171.892 172.533 168.757C180 167.015 186.426 161.355 191.722 156.131C197.54 150.471 203.618 144.375 206.918 136.799C209.783 130.094 211.954 123.128 213.604 116.075C214.819 111.024 215.774 105.887 216.295 100.749C216.556 98.1368 218.466 96.5694 218.379 93.87C218.379 92.1284 219.074 92.0414 218.987 90.2998C218.987 89.429 218.727 88.6453 218.553 87.7746C218.466 87.3392 218.379 86.9909 218.292 86.5555C218.379 86.3813 218.466 85.4234 218.466 85.4234Z" fill="#FCE7D4" stroke="#020202" stroke-width="1.75" stroke-miterlimit="10"/>
<path d="M184.863 102.665C186.165 104.842 187.12 106.583 185.384 109.021C183.647 111.373 179.392 113.201 176.006 112.156C173.922 111.547 171.838 111.373 170.709 111.373C169.667 111.373 167.236 111.547 166.455 110.937C165.413 110.154 165.413 107.977 166.715 107.628" stroke="#231F20" stroke-width="1.75" stroke-miterlimit="10"/>
<path d="M196.932 166.232L221.766 183.212C221.766 183.212 234.703 129.92 234.79 107.889C234.964 77.151 222.981 48.5023 208.481 25.3396C194.067 2.17691 180.782 3.65723 177.221 3.30892C173.748 2.96061 170.535 1.13198 167.062 0.957821C147.265 0.0870422 125.818 3.30892 112.533 16.4577C99.8553 29.084 84.3126 55.6427 83.4443 73.9291C83.2707 78.283 83.1838 82.6369 83.1838 87.0778C83.2707 101.62 83.5312 113.114 86.2229 129.92C87.3517 137.235 96.0348 158.569 100.984 164.577C101.245 164.838 101.505 165.187 101.766 165.535C104.544 168.844 107.757 171.63 111.143 174.243C115.311 177.465 119.566 180.425 123.907 183.386C127.12 185.65 130.42 187.827 133.719 190.004C136.411 191.833 138.842 193.922 141.621 195.577C144.226 197.231 147.439 198.973 145.962 194.009C137.887 167.625 107.149 84.988 143.618 51.8984C160.029 36.921 173.922 15.2386 173.922 15.2386C178.437 13.6712 183.3 13.5841 187.815 15.4127C192.156 17.2414 195.716 20.5503 198.495 24.2076C201.795 28.4744 204.313 33.4379 206.397 38.4013C208.654 43.7131 210.391 49.199 211.867 54.6849C213.169 59.6483 214.298 64.6988 215.253 69.7493C215.948 73.842 217.685 77.6734 217.945 81.8532C218.292 87.1649 217.164 92.2154 216.469 97.4401C215.774 102.491 214.472 107.454 213.43 112.417C210.13 127.569 208.567 134.709 205.962 138.889C203.444 143.069 196.064 151.864 196.064 151.864C196.064 151.864 196.498 164.925 196.932 166.232Z" fill="#262626" stroke="#020202" stroke-width="1.75" stroke-miterlimit="10"/>
<path d="M185.384 59.1259C185.384 59.1259 193.893 54.4237 198.061 54.3366C202.229 54.2495 207.091 59.0388 208.481 60.7804" stroke="#020202" stroke-width="1.75" stroke-miterlimit="10"/>
<path d="M159.681 141.24C165.325 142.808 173.053 136.364 173.835 133.577C174.616 130.791 163.155 132.271 157.598 130.704C152.04 129.136 149.001 121.996 148.22 124.87C147.438 127.569 154.037 139.673 159.681 141.24Z" fill="white" stroke="#020202" stroke-width="1.75" stroke-miterlimit="10"/>
<path d="M195.977 78.9796C197.799 78.9796 199.276 77.4981 199.276 75.6707C199.276 73.8432 197.799 72.3617 195.977 72.3617C194.155 72.3617 192.677 73.8432 192.677 75.6707C192.677 77.4981 194.155 78.9796 195.977 78.9796Z" fill="white" stroke="#020202" stroke-width="1.75" stroke-miterlimit="10"/>
<path d="M146.917 79.5892C148.74 79.5892 150.217 78.1077 150.217 76.2803C150.217 74.4528 148.74 72.9713 146.917 72.9713C145.095 72.9713 143.618 74.4528 143.618 76.2803C143.618 78.1077 145.095 79.5892 146.917 79.5892Z" fill="white" stroke="#020202" stroke-width="1.75" stroke-miterlimit="10"/>
<path d="M186.599 76.6286C186.599 76.6286 193.893 68.7916 197.887 68.8786C201.881 68.9657 203.792 71.2298 205.876 70.7073" stroke="#020202" stroke-width="1.75" stroke-miterlimit="10"/>
<path d="M155.427 75.2353C155.427 75.2353 153.864 72.71 148.307 70.5331C145.876 69.5752 141.881 70.0977 135.803 73.4937" stroke="#020202" stroke-width="1.75" stroke-miterlimit="10"/>
<path d="M157.598 59.213C157.598 59.213 151.606 51.2018 146.136 49.5474" stroke="#020202" stroke-width="1.75" stroke-miterlimit="10"/>
<path d="M123.907 82.3757C123.907 93.2604 133.025 102.142 144.313 102.142C155.601 102.142 164.718 93.2604 164.718 82.3757C164.718 71.4039 167.757 62.609 144.313 62.609C125.123 62.609 123.907 71.491 123.907 82.3757Z" stroke="#020202" stroke-width="1.75" stroke-miterlimit="10"/>
<path d="M220.029 82.0274C220.029 92.738 211.085 101.446 199.971 101.446C188.944 101.446 179.913 92.738 179.913 82.0274C179.913 71.3168 176.961 62.609 199.971 62.609C218.726 62.609 220.029 71.3168 220.029 82.0274Z" stroke="#020202" stroke-width="1.75" stroke-miterlimit="10"/>
<path d="M180.695 78.6314C180.695 78.6314 171.23 74.0162 164.805 78.6314" stroke="#020202" stroke-width="1.75" stroke-miterlimit="10"/>
</g>
<defs>
<clipPath id="clip0">
<rect width="300" height="312" fill="white"/>
</clipPath>
</defs>
</svg>
