<svg xmlns="http://www.w3.org/2000/svg" viewBox="0 0 125 134.84"><title>Artboard 21 copy 2</title><g id="person_14" data-name="person 14"><path id="neck-2" data-name="neck" d="M51.38,76.23s-.32,12.62-.74,14S42.75,92.58,41,94.6s1.06,5.69,2.31,7.09c6.11,6.83,21.64,7.63,29.82,5.86,4.5-1,14.6-6.6,15.46-11.8.43-2.59-7.18-4-9-5.18S77,76,77,76Z" fill="#fce7d4" stroke="#020202" stroke-miterlimit="10" stroke-width="0.75"/><g id="turtleneck"><path d="M113.5,119.56c-2.63-5-3.44-10.3-9.82-13.19C98.4,104,99.57,102,94.46,99.29c-2.41-1.28-3.83-3.15-6.23-4.44-1.19-.64-1.72-1.12-2.91-1.76-.59-.31-1.24-.45-1.81-.79S82.44,90.21,82,89.78c-1.46-1.39-2.57-2.15-3-4-.1-.47.2-1.69.14-2.28,0-.22-.14-5.72.05-4.28L49.36,79s.5,4.41.5,4.49c0,.91-.78,2-.6,2.88a4.83,4.83,0,0,1-.43,2.59c-.54,1.55-2.65,1.7-3.91,2.59s-1.46,2.31-3,3-3.07,1.45-4.6,2.18c-6.71,3.23-7.89,5.49-14.58,8.76-.27.13-.53.28-.81.39-2.72,1.35-6.76,3-9.4,6.36S8.14,128.24,7.32,132s-1.14,5-1.14,5l112.87.72S116.13,124.57,113.5,119.56Z" fill="#0b0b7f" stroke="#020202" stroke-miterlimit="10" stroke-width="0.75"/></g><path id="head-3" data-name="head" d="M63.28,28.69a28.87,28.87,0,0,0-10.7,1.59,10.47,10.47,0,0,0-5.77,4.14,13.05,13.05,0,0,0-1.37,3.92q-1.71,7.52-2.75,15.16a20.45,20.45,0,0,0-.5-2.12c-.34-.73-1.93-.52-2.06.57a5.34,5.34,0,0,0,.45,2.65,15,15,0,0,1,.92,2.74c.55,3.26-.56,2.75-.19,5.3a2.37,2.37,0,0,0,1.31,1.63c.24.12,1.22.46,1.21-.07a40.22,40.22,0,0,0,2.09,9.7c2.53,7.83,10.58,14.17,18.82,14.18,7.77,0,13.29-6.76,15.61-14a48.15,48.15,0,0,0,2.32-8.73c.06-.47.59-.34.88-.32,1.77.11,2.1-2.45,2.3-3.74.35-2.24.17-4.6,1.06-6.73.44-1.06,1.65-2.62.36-3.58a2.19,2.19,0,0,0-2.58,0c-.94.66-.93,1.66-1.25,2.65a54.12,54.12,0,0,0-2.12-14,12.44,12.44,0,0,0-1.67-4,14.57,14.57,0,0,0-6-5.1A20.31,20.31,0,0,0,68.54,29,48.73,48.73,0,0,0,63.28,28.69Z" fill="#fce7d4" stroke="#020202" stroke-miterlimit="10" stroke-width="0.75"/><g id="hair-7" data-name="hair"><path d="M82.67,52s.34-11.18-2.93-12.9c-2.9-1.53-5.9-3.4-9.23-3.75a60.29,60.29,0,0,0-10.59-.49c-2.84.17-8.58-.15-10.58,2.52C47.79,39.4,43.85,57,43,55.82a17.29,17.29,0,0,1-2.64-7,25.08,25.08,0,0,1,1.7-13.24c1.73-4,0-2.81,2.4-6.39A27.8,27.8,0,0,1,52.4,22c1.21-.69.89-1.12,1.24-1.26a2.07,2.07,0,0,0,.63-.46S53,17.68,52.6,16.5a24.79,24.79,0,0,1-1.21-3.84,4.62,4.62,0,0,1,.9-3.8c.82-.95,2.17-2.6,3.4-2.95a12.1,12.1,0,0,1,5.61.19c1,.28,1.62.74,2.28.43s1.92-1.95,3-1.95c1.87,0,5.51,1.54,6,3.55s.06,1.81,1.8,2.81,3.16,4.44,3.63,6.34c.34,1.36,0,3.26-1.76,3.78-.61.17-1.64.37-1.64.37s1.81,1.12,1.92,1.92a10.08,10.08,0,0,1,0,1.26,4.16,4.16,0,0,0,.63.92s7.74,3.26,8.57,6.36.37,4,1.23,5a7.62,7.62,0,0,1,1.64,5.28,39.22,39.22,0,0,1-1.15,7.59c-.17,1-1.89,3.3-2.44,4.24s-1.57,3.15-2,2.84S82.66,52.5,82.67,52Z" fill="#332e28" stroke="#000" stroke-miterlimit="10" stroke-width="0.75"/><path d="M54.27,20.31a6.7,6.7,0,0,1,4-.63,29.6,29.6,0,0,1,3.89,1.26" fill="none" stroke="#020202" stroke-miterlimit="10" stroke-width="0.75"/><path d="M74.61,21.43s-6.67.06-10.34-5.27" fill="none" stroke="#020202" stroke-miterlimit="10" stroke-width="0.75"/><path d="M63.58,6.53a8.16,8.16,0,0,0,1.49,4.21C67.25,14.29,69.43,15,69.43,15" fill="none" stroke="#020202" stroke-miterlimit="10" stroke-width="0.75"/><path d="M57.16,5.84a6.77,6.77,0,0,0,.11,6.5A13.69,13.69,0,0,0,61,16.93" fill="none" stroke="#020202" stroke-miterlimit="10" stroke-width="0.75"/><path d="M77.5,25.66c-.06.27-.54-.41-3.66-1.26" fill="none" stroke="#020202" stroke-miterlimit="10" stroke-width="0.75"/><path d="M57.89,32.38c-1.39-1.11-3.35-3-2.94-5,.29-1.4,1.82-3,2.94-3.83" fill="none" stroke="#020202" stroke-miterlimit="10" stroke-width="0.75"/><path d="M72.41,33.21s4.81-2,3.78-4.4" fill="none" stroke="#020202" stroke-miterlimit="10" stroke-width="0.75"/><path d="M63.55,32.06s3.67-.92,2.54-4a14.55,14.55,0,0,1-1.16-4.9" fill="none" stroke="#020202" stroke-miterlimit="10" stroke-width="0.75"/></g><path id="nose-4" data-name="nose" d="M64,59.75c-1.17,5.71-5.57,6.36-5.74,8.33-.25,3,4.37,2.94,6.7,1.83" fill="none" stroke="#020202" stroke-miterlimit="10" stroke-width="0.75"/><g id="eyes-8" data-name="eyes"><path d="M66.8,47.76c4.49-.6,10-5.62,11.92-1.26" fill="none" stroke="#020202" stroke-miterlimit="10" stroke-width="0.75"/><path d="M58.23,49.1c-2.9-.67-10-5.19-11.95-.8" fill="none" stroke="#020202" stroke-miterlimit="10" stroke-width="0.75"/><circle cx="72.53" cy="56.21" r="1.23" fill="#fff" stroke="#020202" stroke-miterlimit="10" stroke-width="0.75"/><circle cx="53.43" cy="56.18" r="1.23" fill="#fff" stroke="#020202" stroke-miterlimit="10" stroke-width="0.75"/><path d="M69,56.13s3.06-2.56,4.54-2.37,2.08,1.15,2.89,1" fill="none" stroke="#020202" stroke-miterlimit="10" stroke-width="0.75"/><path d="M56.51,56.48a5.67,5.67,0,0,0-2.24-2.27c-.82-.55-2.31-.65-4.81.14" fill="none" stroke="#020202" stroke-miterlimit="10" stroke-width="0.75"/></g><path d="M1.78,145C3,138,6.15,120.29,7,115.37s1-6.88,3.53-11.15,7.59-5.7,12.21-6.6c4.89-1,7-2.09,11.89-2.77a37.7,37.7,0,0,0,8.16-2.69c1-.44.36,8,8.19,11.93a29.75,29.75,0,0,0,28.8-1.88c3.59-2.38,5-6.21,7.29-10,3.51.69,6.8,2.18,10.19,3.3,5.84,1.93,16,1.45,18.63,8.63,3,8.41,6.05,32.2,8,40.93Z" fill="#3caa33" stroke="#000" stroke-miterlimit="10" stroke-width="0.75"/><g id="shirt_seams-2" data-name="shirt seams"><line x1="85.03" y1="95.72" x2="90.36" y2="99.13" fill="#f9f7e1" stroke="#020202" stroke-miterlimit="10" stroke-width="0.75"/><line x1="81.43" y1="100.84" x2="85.4" y2="106.24" fill="#f9f7e1" stroke="#020202" stroke-miterlimit="10" stroke-width="0.75"/><line x1="75.01" y1="104.71" x2="77.8" y2="111.13" fill="#f9f7e1" stroke="#020202" stroke-miterlimit="10" stroke-width="0.75"/><line x1="66.57" y1="106.95" x2="66.93" y2="113.46" fill="#f9f7e1" stroke="#020202" stroke-miterlimit="10" stroke-width="0.75"/><line x1="59.15" y1="106.92" x2="57.38" y2="113.19" fill="#f9f7e1" stroke="#020202" stroke-miterlimit="10" stroke-width="0.75"/><line x1="51.92" y1="104.89" x2="47.48" y2="111.02" fill="#f9f7e1" stroke="#020202" stroke-miterlimit="10" stroke-width="0.75"/><line x1="47.49" y1="101.94" x2="41.31" y2="105.55" fill="none" stroke="#000" stroke-miterlimit="10" stroke-width="0.75"/><line x1="43.87" y1="96.16" x2="37.45" y2="97.87" fill="none" stroke="#000" stroke-miterlimit="10" stroke-width="0.75"/><line x1="23.27" y1="145.02" x2="25.13" y2="132.71" fill="none" stroke="#000" stroke-miterlimit="10"/><line x1="103.78" y1="145.02" x2="102.52" y2="134.27" fill="none" stroke="#000" stroke-miterlimit="10"/><path d="M36.57,94.42s1.08,7.51,5,12,9.57,7,22,7,19.13-4.31,21-6.25A78,78,0,0,0,93.3,94.06" fill="none" stroke="#000" stroke-miterlimit="10" stroke-width="0.75"/></g><g id="cable_knit" data-name="cable knit"><path d="M72,113.43s3.26,9.78,1.83,13.15-5.29,8.09-5.29,8.09" fill="none" stroke="#000" stroke-miterlimit="10" stroke-width="0.75"/><path d="M54.27,113.43S49.81,123.8,52.46,128,63,139.42,63.25,144.14" fill="none" stroke="#000" stroke-miterlimit="10" stroke-width="0.75"/><path d="M64,114.66s-2.16,6-.33,10.91c1.27,3.4,3.56,6.29,5.54,9.28s4.32,5.1,5,9.78" fill="none" stroke="#000" stroke-miterlimit="10" stroke-width="0.75"/><path d="M63.25,117.05a21.3,21.3,0,0,1,1.43,5.32,7.76,7.76,0,0,1-.72,4" fill="none" stroke="#000" stroke-miterlimit="10" stroke-width="0.75"/></g><ellipse id="mouth-4" data-name="mouth" cx="69.01" cy="77.07" rx="5.1" ry="2.01" transform="translate(-27.79 40.57) rotate(-27.5)" fill="#fff" stroke="#020202" stroke-miterlimit="10" stroke-width="0.75"/><g id="glasses-2" data-name="glasses"><path d="M85.17,48.83a45.85,45.85,0,0,0-8.67-.66A80.17,80.17,0,0,0,66.24,50a11.07,11.07,0,0,1-2.6.39,18.53,18.53,0,0,1-3.52-.73,49.46,49.46,0,0,0-7-1.3,60.11,60.11,0,0,0-8.29-.1c-2.65.3-3,.54-3,.77l.42,2.6a3.9,3.9,0,0,1,.57.23,1.25,1.25,0,0,1,.47.53c.11.26,1.66,5.53,1.76,5.79a4.55,4.55,0,0,0,.85,1.5,7.25,7.25,0,0,0,2.27,1.44,13.23,13.23,0,0,0,3,.68,14.3,14.3,0,0,0,3.5-.09,8.69,8.69,0,0,0,3.54-1.6A12.25,12.25,0,0,0,60.6,57C61,56.25,62,53.7,62.26,53.4a1.84,1.84,0,0,1,1.38-.59,1.57,1.57,0,0,1,1.44.88c.29.61,1.22,3,1.92,4.18a7,7,0,0,0,4.43,3.62,12,12,0,0,0,6.62-.07,7.23,7.23,0,0,0,2.5-1.15,6.5,6.5,0,0,0,1.25-1.6c.32-.67,1.33-4.29,1.4-4.65a6.55,6.55,0,0,1,.79-2,3.23,3.23,0,0,1,.79-.42l.44-2.6A.45.45,0,0,0,85.17,48.83Zm-26.36,7.3a10.67,10.67,0,0,1-2.11,3.2A7.18,7.18,0,0,1,52,60.43a8.9,8.9,0,0,1-4.17-1c-.91-.41-1.3-1.58-1.73-2.69a15.16,15.16,0,0,1-.49-4.58V52a1.63,1.63,0,0,1,.53-1.16c1-1,2.65-.95,4-1a22.09,22.09,0,0,1,4.52.25c1.43.22,4.59.56,4.84,2.5A14.35,14.35,0,0,1,58.81,56.13Zm22,.58c-.43,1.11-.82,2.27-1.73,2.68a8.81,8.81,0,0,1-4.16,1,7.12,7.12,0,0,1-4.71-1.1,11,11,0,0,1-2.12-3.19,9.1,9.1,0,0,1-.64-3.48c.19-1.51,2.22-2.17,3.5-2.4a26,26,0,0,1,5.35-.52c1.39,0,3.34,0,4.47,1.06A1.63,1.63,0,0,1,81.34,52v.17A15.16,15.16,0,0,1,80.85,56.71Z"/><g opacity="0.7"><path d="M46.12,50.8A1.67,1.67,0,0,0,45.59,52v.17a15.16,15.16,0,0,0,.49,4.58c.43,1.11.82,2.27,1.73,2.68a8.77,8.77,0,0,0,4.17,1,7.13,7.13,0,0,0,4.72-1.09,10.8,10.8,0,0,0,2.11-3.2,14.42,14.42,0,0,0,.64-3.6C59.2,50.61,56,50.26,54.61,50a22.81,22.81,0,0,0-4.52-.24C48.77,49.86,47.14,49.83,46.12,50.8Z"/></g><g opacity="0.7"><path d="M80.81,50.81A1.67,1.67,0,0,1,81.34,52v.17a15.1,15.1,0,0,1-.49,4.57C80.42,57.83,80,59,79.12,59.4a8.68,8.68,0,0,1-4.16,1,7.07,7.07,0,0,1-4.71-1.09,10.88,10.88,0,0,1-2.12-3.2,9.06,9.06,0,0,1-.64-3.48c.19-1.5,2.22-2.16,3.5-2.39a26,26,0,0,1,5.35-.53C77.73,49.81,79.68,49.73,80.81,50.81Z"/></g></g><g id="pineapples"><ellipse cx="42.38" cy="67.37" rx="2.56" ry="3.71" fill="#f7de48" stroke="#020202" stroke-miterlimit="10" stroke-width="0.75"/><polyline points="41.52 63.66 39.64 61.09 41.52 61.11 42.68 58.32 43.67 61.11 45.52 61.11 43.43 63.66 41.52 63.66" fill="#3caa33" stroke="#000" stroke-miterlimit="10" stroke-width="0.75"/><ellipse cx="84.65" cy="66.97" rx="2.56" ry="3.46" fill="#f7de48" stroke="#020202" stroke-miterlimit="10" stroke-width="0.75"/><polyline points="83.53 63.51 81.58 60.94 83.53 60.96 84.69 58.17 85.68 60.96 87.53 60.96 85.44 63.51 83.53 63.51" fill="#3caa33" stroke="#000" stroke-miterlimit="10" stroke-width="0.75"/></g></g></svg>