<svg xmlns="http://www.w3.org/2000/svg" viewBox="0 0 125 134.84"><title>Artboard 21 copy 3</title><g id="person_15" data-name="person 15"><path id="neck-2" data-name="neck" d="M51.08,73.23s-.32,12.62-.74,14-7.89,2.3-9.62,4.32,1.06,5.69,2.31,7.09c6.1,6.83,21.64,7.63,29.82,5.86,4.5-1,14.6-6.6,15.46-11.8.43-2.59-7.18-4-9-5.18S76.67,73,76.67,73Z" fill="#fce7d4" stroke="#020202" stroke-miterlimit="10" stroke-width="0.75"/><path d="M1.48,142c1.18-7,4.37-24.73,5.18-29.65s1-6.88,3.52-11.15,7.6-5.7,12.21-6.6c4.9-1,7-2.09,11.9-2.77a37.7,37.7,0,0,0,8.16-2.69c1-.44.36,8,8.19,11.93a29.75,29.75,0,0,0,28.8-1.88c3.59-2.38,5-6.21,7.29-10,3.51.69,6.8,2.18,10.18,3.3,5.84,1.93,16.06,1.45,18.64,8.63,3,8.41,6,32.2,8,40.93Z" fill="#f44711" stroke="#020202" stroke-miterlimit="10" stroke-width="0.75"/><g id="hair-8" data-name="hair"><path d="M41,126.65a9.54,9.54,0,0,1-.77-3.09,12.55,12.55,0,0,1,.41-3.47,11,11,0,0,1-.65-3,4.6,4.6,0,0,1,.75-2.72,30.63,30.63,0,0,1-1-5.34c-.27-2.82.71-3.39.71-3.39a14.71,14.71,0,0,0-.47-2c-.42-1.5.67-5.3.67-5.3a53.18,53.18,0,0,1-1.49-6,9.2,9.2,0,0,1,.6-4.81,21.93,21.93,0,0,1-.86-3.71c-.43-2.55.45-6.92.45-6.92a39.25,39.25,0,0,1-.87-4.56,18.16,18.16,0,0,1,0-4.6c.23-1.62.65-3,.92-4.53.51-3-.73-5.88-.89-8.12-.33-4.46-1-18.66-1-18.66,8.46-4,20-9,20-9s-.2,6.6-6,16.86c-3.05,5.4-7.41,13.39-7.22,16.17a27,27,0,0,0,.83,5.86c.06.28.64,4,.68,4.08a19,19,0,0,1,1,4,27.76,27.76,0,0,1-.3,7.3,9.86,9.86,0,0,1,1,3.59,25.53,25.53,0,0,1-.26,6.46,28.36,28.36,0,0,1,1,4.76,15.13,15.13,0,0,1-.74,5.22,10.75,10.75,0,0,1,.17,4.52,16.92,16.92,0,0,1-1.07,4.27s.26,1,.54,2.76a3.89,3.89,0,0,1-.89,3s.5,1.76.68,2.69-1.3,3.89-1.3,3.89a9.27,9.27,0,0,0-1.45,3.55,6.14,6.14,0,0,1,.94,3.58,14.05,14.05,0,0,1-.23,3.36,4.6,4.6,0,0,1-1.51,2.49c-.95.78-2.94.81-4,.78a19.65,19.65,0,0,0,.9-4.76A31.68,31.68,0,0,1,41,126.65Z" fill="#f7de48" stroke="#020202" stroke-miterlimit="10" stroke-width="0.75"/><path d="M45.82,70.39s-1.87,1.87-3.14,7" fill="none" stroke="#000" stroke-miterlimit="10" stroke-width="0.75"/><path d="M39.32,77.32c.1-.47,2.1,1.8,2.23,2,1,1.47,1.56,3.15,2.44,4.67" fill="none" stroke="#000" stroke-miterlimit="10" stroke-width="0.75"/><path d="M46.47,81.68c-.91,1.35-2,2.28-2.62,3.79s-.63,3.62-1.06,5.21" fill="none" stroke="#000" stroke-miterlimit="10" stroke-width="0.75"/><path d="M40.93,89.68c1.65,2.14,3.06,4,3.17,6.8" fill="none" stroke="#000" stroke-miterlimit="10" stroke-width="0.75"/><path d="M47.08,92s-3.81,3.93-3.79,8" fill="none" stroke="#000" stroke-miterlimit="10" stroke-width="0.75"/><path d="M40.6,98.36A14.28,14.28,0,0,1,43.31,102a14.59,14.59,0,0,1,.85,2.6" fill="none" stroke="#000" stroke-miterlimit="10" stroke-width="0.75"/><path d="M47.45,101.71S44.4,105.17,44,108" fill="none" stroke="#000" stroke-miterlimit="10" stroke-width="0.75"/><path d="M41.56,107.12s2.78,2.15,2.91,5.21" fill="none" stroke="#000" stroke-miterlimit="10" stroke-width="0.75"/><path d="M46.39,110.61s-3.38,2.9-3.86,5" fill="none" stroke="#000" stroke-miterlimit="10" stroke-width="0.75"/><path d="M40.73,114.38s2.14,2.57,2.54,4.12" fill="none" stroke="#000" stroke-miterlimit="10" stroke-width="0.75"/><path d="M46.2,116.31s-3.57,3.74-4.14,5.88" fill="none" stroke="#000" stroke-miterlimit="10" stroke-width="0.75"/><path d="M40.63,120.09a25.2,25.2,0,0,1,2.35,4" fill="none" stroke="#000" stroke-miterlimit="10" stroke-width="0.75"/><path d="M38.69,67.14s4.15,4,5.16,6.66" fill="#f7de48" stroke="#020202" stroke-miterlimit="10" stroke-width="0.75"/><polygon points="44.35 127.59 40.96 127.47 40.99 126.64 44.18 126.68 44.35 127.59" fill="#332e28" stroke="#000" stroke-miterlimit="10" stroke-width="0.75"/></g><path id="head-3" data-name="head" d="M63,25.69a28.87,28.87,0,0,0-10.7,1.59,10.53,10.53,0,0,0-5.78,4.14,13.32,13.32,0,0,0-1.36,3.92c-1.15,5-.8,10-1.17,15.42a6.51,6.51,0,0,0-1.29-2.67c-.7-.63-1.77.27-1.89,1.21-.27,2.18.6,4.21,1,6.35.33,1.91-1.37,5.45.93,6.54.24.11,1.3-.49,1.29-1,.05,2.8,2.42,8.48,3.56,11,3.58,8,10.84,12.89,16.91,12.89,5.51,0,10.85-5.35,15.61-14,1.34-2.43,2-5.94,2.38-9.2a5.1,5.1,0,0,0,1.2.64c1.77.11,1.72-2.94,1.92-4.23.35-2.24.17-4.6,1.06-6.73C87.05,50.54,88.26,49,87,48a2.19,2.19,0,0,0-2.58,0c-.94.66-.93,1.66-1.25,2.65a54.56,54.56,0,0,0-2.12-14,12.66,12.66,0,0,0-1.67-4,14.57,14.57,0,0,0-6-5.1A20.31,20.31,0,0,0,68.24,26,48.73,48.73,0,0,0,63,25.69Z" fill="#fce7d4" stroke="#020202" stroke-miterlimit="10" stroke-width="0.75"/><g id="hair-9" data-name="hair"><path d="M90.09,126.06a9.52,9.52,0,0,0,.58-3.13,12.28,12.28,0,0,0-.61-3.44,11.18,11.18,0,0,0,.47-3,4.55,4.55,0,0,0-.91-2.67,29.9,29.9,0,0,0,.73-5.39c.1-2.83-.91-3.34-.91-3.34a14.47,14.47,0,0,1,.35-2c.33-1.52-1-5.25-1-5.25a52.23,52.23,0,0,0,1.13-6.09,9.33,9.33,0,0,0-.88-4.78,21.57,21.57,0,0,0,.64-3.75,25.42,25.42,0,0,0-.86-6.88,40.45,40.45,0,0,0,.6-4.6A36.62,36.62,0,0,0,88.59,65a15.6,15.6,0,0,1-.72-5.75c.06-4.47-4-24.86-4-24.86-4.29-7.51-35.62-7-35.62-7S59.69,41.74,71,45.89c13.65,5,11.62,11.73,11.6,14.51s-.44,3.43-.84,5.8c0,.29.23,3.89.2,4a18.78,18.78,0,0,0-.71,4A27.72,27.72,0,0,0,82,81.5a9.69,9.69,0,0,0-.79,3.64,25.12,25.12,0,0,0,.64,6.43,29.08,29.08,0,0,0-.7,4.81,15.19,15.19,0,0,0,1,5.17,10.75,10.75,0,0,0,.09,4.52,17.23,17.23,0,0,0,1.32,4.2s-.2,1-.38,2.79a3.89,3.89,0,0,0,1.08,3s-.4,1.79-.52,2.72,1.52,3.81,1.52,3.81A9.18,9.18,0,0,1,86.93,126c.14.76-1.35,2.46-1.28,3.59.12,2.21,4.37,6.46,6.58,6.49a37.34,37.34,0,0,1-1.07-4.87A32.55,32.55,0,0,0,90.09,126.06Z" fill="#f7de48" stroke="#020202" stroke-miterlimit="10" stroke-width="0.75"/><path d="M82.91,69.46s2,1.76,3.55,6.84" fill="none" stroke="#000" stroke-miterlimit="10" stroke-width="0.75"/><path d="M88.85,76.71c-.11-.4-1.63,1.69-1.72,1.86-.73,1.34-1.12,2.85-1.77,4.23" fill="none" stroke="#000" stroke-miterlimit="10" stroke-width="0.75"/><path d="M82,81.5c1,1.29,2.12,2.16,2.83,3.62s.85,3.58,1.37,5.15" fill="none" stroke="#000" stroke-miterlimit="10" stroke-width="0.75"/><path d="M89.18,86.67c-1.52,2.24-2.82,4.19-2.77,7" fill="none" stroke="#000" stroke-miterlimit="10" stroke-width="0.75"/><path d="M82,91.84s4,3.71,4.25,7.75" fill="none" stroke="#000" stroke-miterlimit="10" stroke-width="0.75"/><path d="M88.81,97.8a14.17,14.17,0,0,0-2.49,3.8,15.31,15.31,0,0,0-.7,2.65" fill="none" stroke="#000" stroke-miterlimit="10" stroke-width="0.75"/><path d="M82.17,101.55s3.25,3.27,3.85,6" fill="none" stroke="#000" stroke-miterlimit="10" stroke-width="0.75"/><path d="M89.17,105.25s-2.65,2.32-2.6,5.38" fill="none" stroke="#000" stroke-miterlimit="10" stroke-width="0.75"/><path d="M83.75,110.38s3.55,2.69,4.14,4.74" fill="none" stroke="#000" stroke-miterlimit="10" stroke-width="0.75"/><path d="M89.62,113.8s-2,2.7-2.29,4.26" fill="none" stroke="#000" stroke-miterlimit="10" stroke-width="0.75"/><path d="M84.28,116.05s3.78,3.52,4.47,5.62" fill="none" stroke="#000" stroke-miterlimit="10" stroke-width="0.75"/><path d="M90.06,119.49A25.46,25.46,0,0,0,88,123.66" fill="none" stroke="#000" stroke-miterlimit="10" stroke-width="0.75"/><path d="M89.29,67.73s-2.86,4.18-3.44,6.87" fill="#f7de48" stroke="#020202" stroke-miterlimit="10" stroke-width="0.75"/><rect x="86.5" y="125.66" width="3.96" height="0.83" fill="#332e28" stroke="#000" stroke-miterlimit="10" stroke-width="0.75"/></g><path id="nose-4" data-name="nose" d="M63.67,56.75c-1.17,5.71-5.57,6.36-5.74,8.33-.25,3,4.37,2.94,6.7,1.83" fill="none" stroke="#020202" stroke-miterlimit="10" stroke-width="0.75"/><g id="shirt_seams_copy" data-name="shirt seams copy"><line x1="22.97" y1="142.02" x2="24.83" y2="129.71" fill="none" stroke="#000" stroke-miterlimit="10" stroke-width="0.75"/><line x1="103.48" y1="142.02" x2="102.22" y2="131.27" fill="none" stroke="#000" stroke-miterlimit="10" stroke-width="0.75"/></g><g id="Layer_108" data-name="Layer 108"><path d="M50.62,55.89A2.56,2.56,0,0,0,53.2,58.2c1.53.11,2.21-2.31,2.21-2.31" fill="none" stroke="#000" stroke-miterlimit="10" stroke-width="0.75"/><path d="M70,56.42s.11,1.64,2.45,1.78c1.45.09,2.1-1.78,2.1-1.78" fill="none" stroke="#000" stroke-miterlimit="10" stroke-width="0.75"/><path d="M48.24,48.59S51,44.6,53,43.2" fill="#202133" stroke="#000" stroke-miterlimit="10" stroke-width="0.75"/><g id="eyes_copy_3" data-name="eyes copy 3"><ellipse cx="72.23" cy="51.87" rx="1.23" ry="2.57" fill="#fff" stroke="#020202" stroke-miterlimit="10" stroke-width="0.75"/><ellipse cx="52.77" cy="51.95" rx="1.33" ry="2.4" transform="translate(-2.51 2.68) rotate(-2.84)" fill="#fff" stroke="#020202" stroke-miterlimit="10" stroke-width="0.75"/></g></g><g id="hat_2" data-name="hat 2"><path d="M39.86,31.51s.64-7.82,3.9-11.22,4.37-6,7.81-7.6a24.13,24.13,0,0,1,9.28-2.57c2.64-.09,8.58,1.51,13.08,3.4a16.17,16.17,0,0,1,8.92,8.71,55.18,55.18,0,0,1,2.68,9.07C85.83,33.2,40.25,34,39.86,31.51Z" fill="#286308" stroke="#020202" stroke-miterlimit="10" stroke-width="0.75"/><path d="M37.85,49.73a19,19,0,0,1-.62-2.39,4.5,4.5,0,0,1,.93-3.58,3.65,3.65,0,0,1,.58-.53c2.9-2.1,9.78-7,19.73-6.31s11.85-1.37,19,2,10,7.81,9.72,8.74,2.09-5.34,1.64-8.74-.21-5-5.9-9.26a30,30,0,0,0-18.73-5.84C58,24.06,50.81,23.54,46.94,26s-9.12,5.52-9.82,9A53.84,53.84,0,0,0,36,42.52a16,16,0,0,0,.23,4.09,7.58,7.58,0,0,0,.55,1.71,3.33,3.33,0,0,0,.94,1.33Z" fill="#286308" stroke="#020202" stroke-miterlimit="10" stroke-width="0.75"/></g><circle cx="64.88" cy="75.07" r="2.19" fill="#fff" stroke="#020202" stroke-miterlimit="10" stroke-width="0.75"/></g></svg>