<svg xmlns="http://www.w3.org/2000/svg" viewBox="0 0 125 125"><title>Artboard 1</title><g id="person_9" data-name="person 9"><g id="Layer_77" data-name="Layer 77"><path id="shirt" d="M80.3,69.76s10.37,3.4,12.27,4.38c7.77,4,16.1,7.2,18.63,17.37a137.78,137.78,0,0,1,3.56,18.76c.6,5.26,1.54,9.58,1.54,16.75l-107.78.33c-.48-2.38.37-4.82.33-7.25,0-1.19-.25-2.37-.24-3.56,0-2.25.94-4.42.91-6.67,0-1.75.42-3.43.42-5.21,0-6.71,4.24-17.38,9.5-22,7.93-7,20.61-10.34,29.74-14.61,0,0,29.14,1.57,31.12,1.75" fill="#f7bb92" stroke="#020202" stroke-miterlimit="10" stroke-width="0.75"/><path id="shirt-2" data-name="shirt" d="M96.84,107.85c.28,3-1.35,7.58-.13,9.47a16.57,16.57,0,0,1,2.38,8.06" fill="none" stroke="#231f20" stroke-miterlimit="10" stroke-width="0.75"/><path d="M25.65,109.51c.67,2.4,2.08,5.65.43,8-3.72,5.2-1,11.55-1,11.55" fill="none" stroke="#231f20" stroke-miterlimit="10" stroke-width="0.75"/></g><g id="head_and_neck" data-name="head and neck"><path d="M49.18,68l-7.46,3.13c0,3.6,0,7.21,0,10.81,0,2.77,0,5.53,0,8.3,0,5.58,1.23,10.09,5.66,13.73a27.11,27.11,0,0,0,16.36,6.3,31.72,31.72,0,0,0,14.09-2.89c2.82-1.31,5.87-3.15,7.46-6,2-3.63,1.14-8.25,1.29-12.2.22-5.71.34-11.42.41-17.13a37.94,37.94,0,0,0-6.71-2.27C71.58,67.62,56.29,67.11,49.18,68Z" fill="#a56621" stroke="#000" stroke-miterlimit="10" stroke-width="0.75"/><path id="head-3" data-name="head" d="M48.81,77s1-6.27.88-8,0-8,0-8A37.27,37.27,0,0,1,47,56.55a46.29,46.29,0,0,0-2.32-5.87c-1.27-2.68-1.09-6.5.63-6.81S49,45,49.69,46s3.12,4.56,3.12,4.56.26-4.86,1-6.5,5.41-8.48,6-11.15.29-3.32.29-3.32,4.68,2.82,8,.94,7-3.84,7-3.84,1.13,3.12,2.13,3.55,6.37,1.23,7.11,3.22,1.39,7.08,1,12.13S84.13,61.25,83,64a70.3,70.3,0,0,1-3.73,7.14l1.09,4.53" fill="#a56621" stroke="#000" stroke-miterlimit="10" stroke-width="0.75"/><path d="M63.63,110.29s.38-6.92.63-8.84" fill="#7f4c0e" stroke="#000" stroke-miterlimit="10" stroke-width="0.75"/><path d="M62.77,74.14s2.75,4.3,7.29,4.22C74.3,78.27,75.33,73,75.33,73" fill="#a56621" stroke="#000" stroke-miterlimit="10" stroke-width="0.75"/><path d="M63.33,81.31a41.54,41.54,0,0,1-4.55-1.37" fill="none" stroke="#020202" stroke-miterlimit="10" stroke-width="0.75"/><path d="M63.76,75.4s-3.87-.53-5-2.44" fill="none" stroke="#231f20" stroke-miterlimit="10" stroke-width="0.75"/><path d="M75.07,26.33a7.71,7.71,0,0,1,0,1,3,3,0,0,0,1.6,2.66c2,1.15,4.4,1.33,6.41,2.37,2.46,1.27,2,4.77,2.33,7.08s-.34,12.87-1.72,21.84a19.19,19.19,0,0,1-2.14,6.2A19.81,19.81,0,0,1,74.9,74" fill="none" stroke="#231f20" stroke-miterlimit="10" stroke-width="0.75"/><path d="M50.36,60.33a1,1,0,0,0,1.25-.11c.74-.54.91-.08.91-.08" fill="none" stroke="#231f20" stroke-miterlimit="10" stroke-width="0.75"/><path d="M47.34,57.78c-.52-1-.39-2.87-1.19-4a22.73,22.73,0,0,1-2.31-5.61c-.29-1.36.26-3.93,1.45-4.29s2.78-.86,4,1.29,3.51,5.38,3.51,5.38.09-4.95,1.5-7.66,4.86-6.91,4.92-8.22S61,31,60.31,30.23s-1.2.1,3,.6,10.32-1.6,11.76-4.16" fill="none" stroke="#231f20" stroke-miterlimit="10" stroke-width="0.75"/></g><g id="earring"><path d="M47.51,61.69a3.16,3.16,0,0,1-.27-6.31h.28a3.16,3.16,0,0,1,.27,6.31Z" fill="#fff"/><path d="M47.52,55.74a2.81,2.81,0,0,1,2.77,2.55,2.78,2.78,0,0,1-2.53,3h-.25a2.79,2.79,0,0,1-.24-5.56h.25m0-.75-.32,0a3.53,3.53,0,0,0,.31,7.05h.31a3.54,3.54,0,0,0-.3-7.06Z"/></g><g id="eyes-4" data-name="eyes"><path d="M76.67,35.6s2.93-2.11,4.57,1.73" fill="none" stroke="#231f20" stroke-miterlimit="10" stroke-width="0.75"/><path d="M65.68,35.26a3.34,3.34,0,0,0-3.85,1.21" fill="none" stroke="#231f20" stroke-miterlimit="10" stroke-width="0.75"/><path d="M77.22,51a1.25,1.25,0,0,0,1.22,1.26,1.39,1.39,0,0,0-.24-2.72A1.26,1.26,0,0,0,77.22,51Z" fill="#fff" stroke="#020202" stroke-miterlimit="10" stroke-width="0.75"/><path d="M64,50.77A1.26,1.26,0,0,0,65.18,52a1.39,1.39,0,0,0-.24-2.71A1.26,1.26,0,0,0,64,50.77Z" fill="#fff" stroke="#020202" stroke-miterlimit="10" stroke-width="0.75"/><path d="M79.82,55.24s-.09.4-1.42.12-1.64-.89-1.64-.89" fill="none" stroke="#231f20" stroke-miterlimit="10" stroke-width="0.75"/><path d="M65.87,54.36s-1.22,1.56-2.28,1.26a3.7,3.7,0,0,1-1.65-.92" fill="none" stroke="#231f20" stroke-miterlimit="10" stroke-width="0.75"/><path d="M66.09,39.91s-2.28-2.53-3.85.34-2.17,4.23-2.17,4.23" fill="none" stroke="#231f20" stroke-miterlimit="10" stroke-width="0.75"/><path d="M77.08,40.36s1.55-1.69,3.31.57a13.9,13.9,0,0,1,2.33,4.29" fill="none" stroke="#231f20" stroke-miterlimit="10" stroke-width="0.75"/></g><path id="nose-4" data-name="nose" d="M70.75,54.72s1.69,3.14,3.34,4.17c7,4.37-5.52,7.07-6,3.35" fill="none" stroke="#231f20" stroke-miterlimit="10" stroke-width="0.75"/><path id="hair-4" data-name="hair" d="M44.48,44s-2.11-7-2.12-10.22c0-6.76,3.57-13.39,3.57-13.39a15,15,0,0,1,.37-5.18C47,13,51.77,7.77,56.52,7.33s8.18.24,9.16.68a44.19,44.19,0,0,1,4,2.52,17.66,17.66,0,0,1,8.61-1.67c4.52.43,8.37,1.46,9.82,3.29s3.13,3.65,3.29,6.76a46.39,46.39,0,0,1-.15,6.18A15.25,15.25,0,0,1,92,30c-.11,2.43-1.92,7.5-3,9.72a50.18,50.18,0,0,1-3.7,5.84s-.2-7.94-.16-9.39-1.29-4-3.07-4.48-4.84-.68-5.43-1.76-1.59-3.27-1.59-3.27-.84.42-3,1.6S69,30.8,67.3,31.4s-4-.17-4.8-.35a14.69,14.69,0,0,1-2.43-1.48,10.57,10.57,0,0,1-.21,5.07,33.51,33.51,0,0,1-4.28,7c-1.75,2.36-2.77,8.86-2.77,8.86s-4.34-5.9-5.33-6.5C46.3,43.31,44.48,44,44.48,44Z" fill="#231f20" stroke="#000" stroke-miterlimit="10" stroke-width="0.75"/><g id="headband"><path d="M47.77,44.27a16.19,16.19,0,0,1,3,3.2c1.1-2.6,1.68-5.12,2.76-7.72A98.12,98.12,0,0,1,58.15,31a6.93,6.93,0,0,1,2.21-3,46.84,46.84,0,0,0,6.78-4.62c.88-.77,2.46-2.6,3.74-2.6,1,0,3.67,2.79,4.64,3.1,1.6.5,2.53,1.51,3.91,2.53C83.2,29.18,84,33,84.52,36.55c.44,3,.87,8,1,11L89,39.73s.46-13.06-6.31-17c-4.84-2.83-10.31-2.36-13-2.28-3.49.11-7.94-.34-10.9,1.37a20.77,20.77,0,0,0-8.89,9.67c-1.47,3.4-3.9,8.63-5.15,12.12A4.91,4.91,0,0,1,47.77,44.27Z" fill="#f44711" stroke="#020202" stroke-miterlimit="10" stroke-width="0.75"/><path d="M71.44,19.79s-1.1-4.36-6.66-3.44-7,4.28-9.94,4.41-5,.34-5,.34,4.83,4.24,9,4.48S68.23,24.62,71.44,19.79Z" fill="#f44711" stroke="#020202" stroke-miterlimit="10" stroke-width="0.75"/><path d="M70.74,20c-.75-3.06,3.19-5.56,5.88-5,3.14.61,5.24,3,7.71,4.8s4.75,1.43,7.54,1.77c0,0-4.51,2.84-8.59,3.12-2.34.15-6.3,0-8.38-1.11-1.72-.92-3.37-1.27-4.06-3.2A3.37,3.37,0,0,1,70.74,20Z" fill="#f44711" stroke="#020202" stroke-miterlimit="10" stroke-width="0.75"/></g><g id="mouth-3" data-name="mouth"><path d="M66.42,67.2a10.32,10.32,0,0,1-.8-.82c-.36-.41-1.48-2-2.19-1.78s-.7,2.78-.7,3.43a3.48,3.48,0,0,0,.53,2.13,3.67,3.67,0,0,0,1.87,1.1,20.38,20.38,0,0,0,2.64.66,3.71,3.71,0,0,0,1.59,0,1.49,1.49,0,0,0,1.12-1,1.56,1.56,0,0,0-.58-1.42,6.59,6.59,0,0,0-1.37-.83A9.76,9.76,0,0,1,66.42,67.2Z" fill="#fff" stroke="#020202" stroke-miterlimit="10" stroke-width="0.75"/></g></g></svg>