<svg xmlns="http://www.w3.org/2000/svg" viewBox="0 0 125 134.84"><title>Artboard 21</title><g id="person_12" data-name="person 12"><path id="neck-2" data-name="neck" d="M51.15,77.4s-.31,12.62-.73,14-7.89,2.3-9.62,4.32,1.05,5.69,2.31,7.09c6.1,6.83,21.64,7.63,29.82,5.86,4.49-1,14.59-6.6,15.46-11.8.43-2.59-7.18-4-9-5.18s-2.66-14.62-2.66-14.62Z" fill="#fce7d4" stroke="#020202" stroke-miterlimit="10" stroke-width="0.75"/><path id="head-3" data-name="head" d="M63.07,30.43A28.87,28.87,0,0,0,52.37,32a10.58,10.58,0,0,0-5.78,4.14,13.42,13.42,0,0,0-1.36,3.92q-1.71,7.52-2.75,15.16a20.45,20.45,0,0,0-.5-2.12c-.34-.73-1.93-.52-2.06.57a5.34,5.34,0,0,0,.45,2.65,15,15,0,0,1,.92,2.74c.55,3.26-.31,3.47.06,6a2.37,2.37,0,0,0,1.31,1.63c.24.11,1.22.46,1.21-.08a33.71,33.71,0,0,0,1.17,9c1.15,3.55,4.8,6.41,7.53,8.77a28.26,28.26,0,0,0,6.7,4.71c6.57,3,12.95-1.27,16.56-6.73,2.46-3.74,5.7-6.22,6.06-10.56a37.76,37.76,0,0,0,.57-4.72c0-.47.59-.33.88-.31,1.77.11,2.1-2.46,2.3-3.75.35-2.23.17-4.6,1.06-6.73.44-1.06,1.65-2.62.36-3.58a2.19,2.19,0,0,0-2.58.05c-.94.67-.93,1.66-1.25,2.66a54.63,54.63,0,0,0-2.12-14,12.66,12.66,0,0,0-1.67-4,14.65,14.65,0,0,0-6-5.1,21.15,21.15,0,0,0-5.15-1.57A51.42,51.42,0,0,0,63.07,30.43Z" fill="#fce7d4" stroke="#020202" stroke-miterlimit="10" stroke-width="0.75"/><path id="nose-4" data-name="nose" d="M63.62,64.29c-1.25,3.73-8.68,2.89-8.85,4.85-.26,3,5.39,2.59,7.72,1.48" fill="none" stroke="#020202" stroke-miterlimit="10" stroke-width="0.75"/><g id="hair-5" data-name="hair"><path d="M82.44,53.12s.35-11.18-2.92-12.9c-2.91-1.53-5.9-3.4-9.23-3.75A60.38,60.38,0,0,0,59.7,36c-2.84.17-8.58-.15-10.58,2.52-1.55,2.07-5.5,19.63-6.31,18.49a17.14,17.14,0,0,1-2.64-7,25.1,25.1,0,0,1,1.69-13.24c1.74-4,0-2.8,2.41-6.38a27.8,27.8,0,0,1,7.91-7.2c1.2-.69.89-1.12,1.23-1.26a2.07,2.07,0,0,0,.63-.46s-1.26-2.64-1.66-3.81a24.83,24.83,0,0,1-1.22-3.84,4.69,4.69,0,0,1,.9-3.8c.82-1,2.17-2.6,3.41-2.95a12.11,12.11,0,0,1,5.61.19c1,.28,1.62.74,2.28.43s1.92-1.95,3-1.95c1.86,0,5.5,1.54,6,3.55s.06,1.81,1.81,2.81,3.15,4.44,3.63,6.34c.34,1.36,0,3.26-1.77,3.78-.6.17-1.63.37-1.63.37s1.8,1.12,1.92,1.92,0,1,0,1.26a3.84,3.84,0,0,0,.63.92s7.74,3.26,8.57,6.36.37,3.95,1.23,5a7.63,7.63,0,0,1,1.63,5.28A39.4,39.4,0,0,1,87.26,51c-.18,1-1.9,3.3-2.44,4.24s-1.58,3.15-2,2.84S82.43,53.66,82.44,53.12Z" fill="#f7de48" stroke="#020202" stroke-miterlimit="10" stroke-width="0.75"/><path d="M54,21.48a6.7,6.7,0,0,1,4-.63A30,30,0,0,1,62,22.11" fill="none" stroke="#020202" stroke-miterlimit="10" stroke-width="0.75"/><path d="M74.39,22.6s-6.68.06-10.34-5.27" fill="none" stroke="#020202" stroke-miterlimit="10" stroke-width="0.75"/><path d="M63.36,7.7a8,8,0,0,0,1.49,4.21c2.17,3.55,4.35,4.24,4.35,4.24" fill="none" stroke="#020202" stroke-miterlimit="10" stroke-width="0.75"/><path d="M56.94,7a6.74,6.74,0,0,0,.11,6.5,13.69,13.69,0,0,0,3.72,4.59" fill="none" stroke="#020202" stroke-miterlimit="10" stroke-width="0.75"/><path d="M77.27,26.83c0,.27-.53-.42-3.65-1.26" fill="none" stroke="#020202" stroke-miterlimit="10" stroke-width="0.75"/><path d="M57.67,33.55c-1.39-1.11-3.36-3-2.94-5a7.86,7.86,0,0,1,2.94-3.83" fill="none" stroke="#020202" stroke-miterlimit="10" stroke-width="0.75"/><path d="M72.18,34.38S77,32.34,76,30" fill="none" stroke="#020202" stroke-miterlimit="10" stroke-width="0.75"/><path d="M63.33,33.23s3.67-.92,2.53-4a14.15,14.15,0,0,1-1.15-4.9" fill="none" stroke="#020202" stroke-miterlimit="10" stroke-width="0.75"/></g><g id="eyes-6" data-name="eyes"><path d="M66.57,48.93c4.5-.6,10-5.62,11.92-1.26" fill="none" stroke="#020202" stroke-miterlimit="10" stroke-width="0.75"/><path d="M58,53.89c-2.91-.67-10-5.19-11.95-.8" fill="none" stroke="#020202" stroke-miterlimit="10" stroke-width="0.75"/><circle cx="72.3" cy="57.38" r="1.23" fill="#fff" stroke="#020202" stroke-miterlimit="10" stroke-width="0.75"/><circle cx="53.2" cy="57.35" r="1.23" fill="#fff" stroke="#020202" stroke-miterlimit="10" stroke-width="0.75"/><path d="M68.57,56.46s3.57-1.81,5-1.28,1.77,1.59,2.58,1.67" fill="none" stroke="#020202" stroke-miterlimit="10" stroke-width="0.75"/><path d="M56.29,57.65s-1.21-2.91-2.89-2.51a24.83,24.83,0,0,0-3.28.93" fill="none" stroke="#020202" stroke-miterlimit="10" stroke-width="0.75"/></g><g id="shirt-2" data-name="shirt"><path d="M2,145.82c.58-3.43,1.57-9,2.54-14.52,1.11-6.25,2.15-12.15,2.57-14.7l.2-1.22c.63-4,1-6,3.27-9.79,2.47-4.08,7.21-5.5,12-6.43,2.15-.43,3.75-.88,5.3-1.31a43.84,43.84,0,0,1,6.57-1.46,38,38,0,0,0,8.11-2.64,10.88,10.88,0,0,1,.33,1.16c.63,2.53,2,7.79,7.7,10.68a28.39,28.39,0,0,0,12.73,2.9,30,30,0,0,0,16.45-4.8c2.81-1.87,4.29-4.58,5.86-7.46.45-.81.9-1.65,1.4-2.48a48.09,48.09,0,0,1,6.69,2.1c1.06.39,2.12.78,3.19,1.14a43.17,43.17,0,0,0,5.33,1.21c5.27,1,11.25,2.09,13.07,7.18,1.94,5.42,3.86,17.06,5.56,27.33.88,5.35,1.64,10,2.3,13.11Z" fill="#fff"/><path d="M87.17,94.17a49.83,49.83,0,0,1,6.38,2c1,.39,2.13.79,3.21,1.14a42.14,42.14,0,0,0,5.38,1.23c5.17,1,11,2.05,12.78,6.94,1.93,5.38,3.93,17.51,5.54,27.26.84,5.1,1.57,9.57,2.21,12.67H2.44C3,142,4,136.58,4.91,131.35c1.11-6.24,2.15-12.14,2.57-14.69l.2-1.22c.63-3.92.94-5.89,3.22-9.66,2.39-4,7-5.34,11.72-6.26,2.16-.42,3.77-.87,5.32-1.31a43.6,43.6,0,0,1,6.53-1.45,37,37,0,0,0,7.82-2.51c.06.22.13.5.2.75.64,2.58,2,8,7.89,10.93a28.84,28.84,0,0,0,12.9,2.94A30.34,30.34,0,0,0,79.93,104c2.89-1.92,4.4-4.67,6-7.59.4-.73.81-1.49,1.25-2.24M42.6,93.32h-.07A37.39,37.39,0,0,1,34.36,96c-4.9.69-7,1.82-11.89,2.78-4.61.9-9.62,2.32-12.21,6.6s-2.72,6.29-3.52,11.15-4,22.65-5.19,29.65H123.6c-1.93-8.73-4.95-32.52-8-40.93-2.58-7.18-12.8-6.7-18.64-8.63-3.38-1.12-6.67-2.61-10.19-3.3-2.32,3.84-3.69,7.67-7.28,10a29.59,29.59,0,0,1-16.24,4.74,28,28,0,0,1-12.56-2.86c-7.63-3.85-7.23-12-8.12-11.94Z"/></g><g id="stripes"><polygon points="117.8 118 7.32 118 6.65 121.82 118.51 121.82 117.8 118" fill="#70afe8"/><path d="M37.22,100.69l-19.44.18a2.36,2.36,0,0,0-.74.18q-.51.21-1,.45c-.43.2-.87.38-1.28.62a10.45,10.45,0,0,0-1.16.81c-.38.29-.68.57-1,.89a3.41,3.41,0,0,0-.38.38s-.26.3-.25.3H39.34c-.38-.45-.3-.25-.56-.67a8.45,8.45,0,0,1-1-1.85A11.77,11.77,0,0,0,37.22,100.69Z" fill="#70afe8"/><path d="M90.18,100.69l20.22.19a.17.17,0,0,1,.1.06l.19.1c.37.21.74.42,1.09.65s.5.28.73.45a7.21,7.21,0,0,1,1.09,1,3.66,3.66,0,0,1,.7,1l.11.27H87.77a3.73,3.73,0,0,0,.56-.75c.67-1.09.5-.72,1.12-1.77C89.74,101.51,89.88,101.25,90.18,100.69Z" fill="#70afe8"/></g><g id="stripes-2" data-name="stripes"><path d="M83.21,109.53H116l.44,1.74c.16.68.42,1.87.45,2.07H76Z" fill="#f44711"/><polygon points="119.4 126.72 5.79 126.72 5.19 130.54 119.99 130.54 119.4 126.72" fill="#f44711"/><path d="M42.85,109.53H9.13a8.43,8.43,0,0,0-.64,1.8,19.67,19.67,0,0,0-.4,2H49.86Z" fill="#f44711"/></g><g id="stripe_seams" data-name="stripe seams"><line id="arm_line" data-name="arm line" x1="23.05" y1="146.19" x2="24.91" y2="133.88" fill="none" stroke="#000" stroke-miterlimit="10"/><path id="shirt_collar_seam" data-name="shirt collar seam" d="M36.34,96.27s1.08,6.83,5,11.29,9.58,7,22.05,7,19.14-4.31,21-6.25,6-8,8.19-12.44" fill="none" stroke="#000" stroke-miterlimit="10" stroke-width="0.75"/></g><line id="beauty_mark" data-name="beauty mark" x1="77.91" y1="59.9" x2="77.91" y2="60.92" fill="none" stroke="#020202" stroke-miterlimit="10"/><g id="glasses-2" data-name="glasses"><circle cx="51.64" cy="57.35" r="9.1" fill="#020202" stroke="#020202" stroke-miterlimit="10" stroke-width="0.75"/><circle cx="73.55" cy="57.35" r="9.1" fill="#020202" stroke="#020202" stroke-miterlimit="10" stroke-width="0.75"/><path d="M64.58,57.59a2.79,2.79,0,0,0-1.87-1,2.44,2.44,0,0,0-1.72.95l-2.58-1.8a5.47,5.47,0,0,1,4.3-2.3,5.87,5.87,0,0,1,4.37,2.23l-2.5,1.92Z" fill="#020202"/></g><circle id="lens" cx="51.64" cy="57.35" r="6.11" fill="#f44711"/><g id="lens-2" data-name="lens"><circle cx="73.58" cy="57.35" r="6.11" fill="#455ff4"/></g><path id="mouth-4" data-name="mouth" d="M67.47,79.89c0,2.08-4.17,2.3-4.7,2.3s-1-1.69-1-3.78.43-3.77,1-3.77S67.47,77.8,67.47,79.89Z" fill="#fff" stroke="#020202" stroke-miterlimit="10" stroke-width="0.75"/></g></svg>