<svg id="Person_1" data-name="Person 1" xmlns="http://www.w3.org/2000/svg" viewBox="0 0 125 125"><title>1</title><g id="head_copy" data-name="head copy"><path id="neck" d="M76.39,80.24s-.69-.31-.69-.9V72.5L49.11,73.82s.29,8.11-.32,8.8c0,0-3.17,2.33-2.26,4.25,1.91,4,7.39,6.43,11.55,7.1,5.15.82,12.94,0,17.42-2.88C78.4,89.23,80.33,82,76.39,80.24Z" fill="#fce7d4" stroke="#020202" stroke-miterlimit="10" stroke-width="0.75"/><path id="face" d="M80.44,55.18s-.55,9.41-.74,10.18A13.35,13.35,0,0,1,78.19,69a72.22,72.22,0,0,1-5.64,7.7c-1,1.07-3.19,4.22-4.39,4.57a28.88,28.88,0,0,1-6,1c-1.28-.07-5.89-.68-6.91-1.3s-4.49-4.75-7.36-8.58-4.37-6.93-4.58-7.89S43,60,43,60l-.5.13s-.06,1-.91,1.08c-1.22.16-2-1.37-2.27-2.32-.53-1.57-.3-3.3-.86-4.87s-3.15-7-1.09-8.44c1.79-1.21,3.39.51,4,2.14a15.1,15.1,0,0,1,.45,1.67l.35-.08s0-3.05,0-5.19c.09-4-1.13-8.42.36-12.26,4.91-12.68,9.55-13.16,20.93-13.53C73.62,18,79.32,26.26,80.08,30a37.35,37.35,0,0,1,.9,9.18C80.83,42,80.45,49,80.45,49l.33.07a29.33,29.33,0,0,1,1.35-3.4A1.76,1.76,0,0,1,85.39,47c-.3,1.1-.84,4.25-1.07,5.51a15.3,15.3,0,0,0,0,2.79c0,.85-.37,3.79-1.62,3.76C81.94,59,80.05,59,80.44,55.18Z" fill="#fce7d4" stroke="#020202" stroke-miterlimit="10" stroke-width="0.75"/></g><g id="shirt_copy" data-name="shirt copy"><rect x="48.32" y="87.98" width="30.1" height="27.81" fill="#fff" stroke="#020202" stroke-miterlimit="10" stroke-width="0.75"/><path id="Collar" d="M45.71,83.12a6.65,6.65,0,0,0,.69-2.05,7.43,7.43,0,0,1,.72-2.56c.4-.43,1.68-.51,1.68-.51s-1,1.53-.48,2.08a24.76,24.76,0,0,0,4,3.07c1.62.95,8.6,4.56,9.35,4.91s-.09.52-.53.55-3.56.38-4.61,1.5-7.47,8.38-7.47,8.38S45.18,83.65,45.71,83.12Z" fill="#fff" stroke="#020202" stroke-miterlimit="10" stroke-width="0.75"/><path id="collar-2" data-name="collar" d="M76.12,77.68s.77-.36,1,.32.4,2,.46,2.38a22.37,22.37,0,0,0,2.93,2.5L77.42,97.62s-6.77-5-9.34-6.31S62,88.44,62.17,88.24s13.32-7,14-9.85a.86.86,0,0,0,0-.39Z" fill="#fff" stroke="#020202" stroke-miterlimit="10" stroke-width="0.75"/><line x1="59.59" y1="88.84" x2="59.59" y2="111.46" fill="#fff" stroke="#020202" stroke-miterlimit="10" stroke-width="0.75"/><line x1="65.74" y1="90.01" x2="65.74" y2="111.92" fill="#fff" stroke="#020202" stroke-miterlimit="10" stroke-width="0.75"/><circle id="button" cx="62.65" cy="96.18" r="1.13" fill="#fff" stroke="#020202" stroke-miterlimit="10" stroke-width="0.75"/><circle id="button-2" data-name="button" cx="62.65" cy="104.87" r="1.13" fill="#fff" stroke="#020202" stroke-miterlimit="10" stroke-width="0.75"/></g><path id="Sweater" d="M123.52,126.16s-2.7-12.19-5.13-16.83a28.21,28.21,0,0,0-12.91-12.11C99.57,94.55,79.53,81.8,79.53,82.53s-2.43,15-7.29,21.8-9,9.6-9.62,9.6S55.13,108.68,52.38,103s-5.56-16.08-5.91-17.15-.76-2.75-.76-2.75S20.5,96.32,18,97.56s-6.26,2.82-8.7,5.87-7,14.88-7.8,18.37-1,4.64-1,4.64Z" fill="#f9f7e1" stroke="#020202" stroke-miterlimit="10" stroke-width="0.75"/><path id="Stripe" d="M85.14,85.53c-2.23,11-5.32,22-14.7,29.46a87.25,87.25,0,0,1-7.74,6,29.12,29.12,0,0,1-10-8.07,57.45,57.45,0,0,1-7.78-12.67c-.57-1.26-5.23-14-4.59-14.29l-5.67,3s3,9.63,4.27,12.23,1.5,4.19,4.79,9.07A57.14,57.14,0,0,0,53.39,121a78.62,78.62,0,0,0,7.78,5.33h4.88a45.35,45.35,0,0,0,12.37-10.5,81.63,81.63,0,0,0,5.74-7.39C87.44,103.19,88.56,96.94,90,91a5,5,0,0,0,.15-2.5Z" fill="#0b0b7f" stroke="#020202" stroke-miterlimit="10" stroke-width="0.75"/><path id="Stripe-2" data-name="Stripe" d="M85.14,85.53c-3.29-1.94-5.61-3.25-5.61-3,0,.73-2.43,15-7.29,21.8s-9,9.6-9.62,9.6-7-5.64-9.73-11.31a168.47,168.47,0,0,1-6.42-16.75c-.35-1.07-.76-2.75-.76-2.75l-5.39,2.82c-.64.33,4,13,4.59,14.29a57.45,57.45,0,0,0,7.78,12.67,29.12,29.12,0,0,0,10,8.07,87.25,87.25,0,0,0,7.74-6C79.82,107.51,82.91,96.48,85.14,85.53Z" fill="#f44711" stroke="#020202" stroke-miterlimit="10" stroke-width="0.75"/><g id="eyes_copy" data-name="eyes copy"><path id="Eye" d="M56.32,45.28c0,1.4-.58,2.53-1.29,2.53s-1.29-1.13-1.29-2.53,0-2.54,1.29-2.54C55.9,42.74,56.32,43.88,56.32,45.28Z" fill="#fff" stroke="#020202" stroke-miterlimit="10" stroke-width="0.75"/><path id="Eye-2" data-name="Eye" d="M72.94,44.82c0,1.51-.57,2.73-1.29,2.73s-1.29-1.22-1.29-2.73,0-2.73,1.29-2.73C72.53,42.09,72.94,43.31,72.94,44.82Z" fill="#fff" stroke="#020202" stroke-miterlimit="10" stroke-width="0.75"/><path id="undereye" d="M56.08,49.21a4,4,0,0,1-2.18,1.1c-1.14,0-2.75-.59-3-1.39" fill="none" stroke="#020202" stroke-miterlimit="10" stroke-width="0.75"/><path id="undereye-2" data-name="undereye" d="M68,49.36A7.17,7.17,0,0,0,71,50.67a3.57,3.57,0,0,0,2.58-1.58" fill="none" stroke="#020202" stroke-miterlimit="10" stroke-width="0.75"/><path id="eyebrow" d="M66.32,37.8s2-2,4-2,3,2,5,3" fill="none" stroke="#020202" stroke-miterlimit="10" stroke-width="0.75"/><path id="eyebrow-2" data-name="eyebrow" d="M60.32,38.8a12.38,12.38,0,0,0-3-2,4.71,4.71,0,0,0-6,1c-2,2-2,2-3,2" fill="none" stroke="#020202" stroke-miterlimit="10" stroke-width="0.75"/></g><g id="nose_copy" data-name="nose copy"><path d="M64.29,48.75s2.11,8.33,2.2,9.07,1.18,3.45.85,3.87-.35,1.49-1.11,1.66a15.09,15.09,0,0,1-2.9-.1,4.2,4.2,0,0,1-1.46-.51s-1.16.32-1.52.13a1.75,1.75,0,0,1-.75-1.32,5.07,5.07,0,0,1,.93-1.42" fill="none" stroke="#020202" stroke-miterlimit="10" stroke-width="0.75"/></g><path d="M80.48,23.5a4.19,4.19,0,0,0-.5,0c.32.24.54-.41.42-.78-1.66-5.06-6.15-8.88-11.18-10.6C63.83,10.31,56.07,9.8,51.15,13a25.55,25.55,0,0,0-10,12.64c-.6,1.7-1,3.46-1.78,5.1a7.93,7.93,0,0,1-3.51,4,4.31,4.31,0,0,1-5-.71,6.14,6.14,0,0,0,7.68,7.89l.14,3.19A6.1,6.1,0,0,1,42,48.44c1.13-2,.77-4.54,1.77-6.61.84-1.74,2.63-3.1,2.77-5,.2-2.84-3.38-5.33,3.27-9a1.22,1.22,0,0,1,.48-.15c2.25-.1,4.22,1.35,6.21,2.41a17.66,17.66,0,0,0,11,2A14.51,14.51,0,0,0,77,26.3a16.81,16.81,0,0,0-.68,7.41c.41,2.48,1.62,4.75,2.61,7.06.84,2,1.78,4.16,1.73,6.28a.31.31,0,0,0,.57.17c.3-.52.53-1.08.81-1.65a14.6,14.6,0,0,0,.92-2.29,20.72,20.72,0,0,0-.72-13.76,1.68,1.68,0,0,1-.2-.81c.08-.69,1-1,1.65-.66a3.35,3.35,0,0,1,1.27,1.61,4.6,4.6,0,0,0-4.43-6.16Z" fill="#f7de48" stroke="#020202" stroke-miterlimit="10" stroke-width="0.75"/><path id="mouth" d="M53.42,63.81a4.68,4.68,0,0,1,2.43,1.83,8.68,8.68,0,0,0,4.5,3c2.51.65,3.69.86,3.43,2.15s-2.19,1.75-3.43,2.28-4.56.09-6-1a5.06,5.06,0,0,1-2.29-3.54C51.61,66.71,52,63.06,53.42,63.81Z" fill="#fff" stroke="#020202" stroke-miterlimit="10" stroke-width="0.75"/></svg>