<svg xmlns="http://www.w3.org/2000/svg" viewBox="0 0 125 125"><title>3</title><g id="person_4" data-name="person 4"><g id="head-2" data-name="head"><path id="neck" d="M80.11,83s-3.6-2-3.6-2.58-.41-9-.41-9H49.5s.33,8.21-.28,8.9c-1.75,2-5.55,3.45-6.64,6.12-1.72,4.22,4,9.17,6.78,10.37,5.92,2.54,14.29,2.49,20.61,1a23.06,23.06,0,0,0,12.24-7.51C84.11,87.93,84.53,85.43,80.11,83Z" fill="#fce7d4" stroke="#020202" stroke-miterlimit="10" stroke-width="0.75"/><path id="face-2" data-name="face" d="M80.83,54.18s-.55,9.41-.74,10.18A13.35,13.35,0,0,1,78.58,68a69.56,69.56,0,0,1-5.64,7.7c-1,1.07-3.19,4.22-4.39,4.57a28.78,28.78,0,0,1-6,1c-1.29-.07-5.9-.68-6.92-1.3s-4.49-4.75-7.36-8.58-4.37-6.93-4.58-7.89S43.43,59,43.43,59l-.49.13s-.07,1-.92,1.08c-1.22.16-2-1.37-2.27-2.32-.53-1.57-.3-3.3-.86-4.87s-3.14-7-1.09-8.44c1.79-1.21,3.39.51,4,2.14a15.1,15.1,0,0,1,.45,1.67l.35-.08s0-3.05,0-5.19c.09-4-1.13-8.42.36-12.26,4.91-12.68,9.55-13.16,20.93-13.53C74,17,79.71,25.26,80.47,29a37.35,37.35,0,0,1,.9,9.18C81.22,41,80.84,48,80.84,48l.33.07a29.33,29.33,0,0,1,1.35-3.4A1.76,1.76,0,0,1,85.78,46c-.3,1.1-.84,4.25-1.07,5.51a15.3,15.3,0,0,0,0,2.79c0,.85-.37,3.79-1.62,3.76C82.33,58,80.44,58,80.83,54.18Z" fill="#fce7d4" stroke="#020202" stroke-miterlimit="10" stroke-width="0.75"/></g><g id="sweater-3" data-name="sweater"><g id="Sweater-4" data-name="Sweater"><path d="M1.74,126.24a30,30,0,0,1,.64-6.1c.73-3.39,5.3-15.18,7.72-18.2,2.13-2.67,5.24-4.17,7.74-5.37l.83-.41C21,95,40.75,84.65,43.91,83c.14.58.41,1.58.65,2.31,0,.09.07.23.12.4.55,1.91,2.23,7.73,7.08,10.08a21.54,21.54,0,0,0,8.88,1.53c5.65,0,12.62-1.37,15.49-4.45a16.31,16.31,0,0,0,4.31-11.6c1.28.6,5.47,3.11,9.54,5.54,6,3.57,12.79,7.63,15.87,9a27.78,27.78,0,0,1,12.73,12c2.14,4.07,4.85,15.73,5.41,18.18Z" fill="#fcfaf7"/><path d="M80.81,81.89c1.71.9,5.53,3.18,9,5.24,6,3.58,12.8,7.64,15.91,9.05A27.33,27.33,0,0,1,118.25,108c2,3.83,4.54,14.46,5.27,17.64l-121.4.27a28.6,28.6,0,0,1,.63-5.64c.73-3.37,5.25-15,7.64-18,2.08-2.6,5.14-4.08,7.6-5.26l.85-.41c2.25-1.11,20.58-10.73,24.82-13,.15.57.35,1.31.54,1.88l.12.39c.56,2,2.28,7.89,7.28,10.3a21.76,21.76,0,0,0,9,1.58c5.73,0,12.82-1.42,15.76-4.57a16.59,16.59,0,0,0,4.41-11.24m-.71-1.12s0,0,0,0a16.29,16.29,0,0,1-4.2,11.82C73.19,95.47,66.57,97,60.64,97a21.51,21.51,0,0,1-8.72-1.5c-5.15-2.49-6.65-9.19-7-10.25s-.76-2.76-.76-2.76S21,94.58,18.5,95.82s-6.25,2.83-8.69,5.88-7,14.88-7.8,18.37a29.67,29.67,0,0,0-.64,6.54l123.09-.27s-3.11-14.1-5.55-18.74A28.06,28.06,0,0,0,106,95.49c-5.74-2.6-24.84-14.72-25.9-14.72Z"/></g><path id="Sweater-5" data-name="Sweater" d="M80.13,80.81a1.27,1.27,0,0,0,0,.2c-.12,4.66-1.56,9.65-5.29,12.44a17.21,17.21,0,0,1-7,2.75,32.79,32.79,0,0,1-11.17.51,13.38,13.38,0,0,1-8.1-4.26c-2.53-2.83-3.45-6.45-4.33-10-.09-.38-4.76,1.38-4.86,2.45-.07.85.92,2.41,1.24,3.2,1.35,3.34,2.73,7,5.24,9.63a17.4,17.4,0,0,0,10.35,4.87,44.66,44.66,0,0,0,10.14,0c3-.27,6.13-.6,8.86-2.08a22.77,22.77,0,0,0,6.17-5.27C83.61,92.53,84,89,84.76,85.65a4.18,4.18,0,0,0,.15-1.82,3.25,3.25,0,0,0-1-1.58,7,7,0,0,0-3.1-1.74.58.58,0,0,0-.57.07A.45.45,0,0,0,80.13,80.81Z" fill="#fcfaf7" stroke="#000" stroke-miterlimit="10" stroke-width="0.75"/><line x1="45.28" y1="86.44" x2="40.91" y2="88.91" fill="#fff" stroke="#000" stroke-miterlimit="10" stroke-width="0.75"/><line x1="47.23" y1="91.66" x2="43.69" y2="94.85" fill="#fcfaf7" stroke="#000" stroke-miterlimit="10" stroke-width="0.75"/><line x1="51.69" y1="95.02" x2="49.22" y2="100.33" fill="#fcfaf7" stroke="#000" stroke-miterlimit="10" stroke-width="0.75"/><line x1="59.33" y1="97.29" x2="58.9" y2="102.81" fill="#fcfaf7" stroke="#000" stroke-miterlimit="10" stroke-width="0.75"/><line x1="66.18" y1="96.89" x2="67.88" y2="102.81" fill="#fcfaf7" stroke="#000" stroke-miterlimit="10" stroke-width="0.75"/><line x1="73.76" y1="94.3" x2="76.91" y2="99.36" fill="#fcfaf7" stroke="#000" stroke-miterlimit="10" stroke-width="0.75"/><line x1="78.04" y1="89.65" x2="82.61" y2="93.25" fill="#fcfaf7" stroke="#000" stroke-miterlimit="10" stroke-width="0.75"/><line x1="80.33" y1="84.22" x2="84.59" y2="86.44" fill="#fcfaf7" stroke="#000" stroke-miterlimit="10" stroke-width="0.75"/><g id="Layer_37" data-name="Layer 37"><path d="M69.36,101.88s2.62,7.71,1.47,10.37a34.54,34.54,0,0,1-4.26,6.39" fill="none" stroke="#000" stroke-miterlimit="10" stroke-width="0.75"/><path d="M55.1,101.88s-3.59,8.18-1.46,11.5,8.52,9,8.68,12.72" fill="none" stroke="#000" stroke-miterlimit="10" stroke-width="0.75"/><path d="M62.91,102.85s-1.75,4.75-.27,8.6c1,2.69,2.87,5,4.46,7.33s3.47,4,4,7.71" fill="none" stroke="#000" stroke-miterlimit="10" stroke-width="0.75"/><path d="M62.32,104.74a16.37,16.37,0,0,1,1.15,4.19,6,6,0,0,1-.57,3.16" fill="none" stroke="#000" stroke-miterlimit="10" stroke-width="0.75"/><path d="M58.55,119.1a15.29,15.29,0,0,0-3.94,7.17" fill="none" stroke="#000" stroke-miterlimit="10" stroke-width="0.75"/></g></g><g id="hair-2" data-name="hair"><path d="M48,18s1.72-7.3,5.84-9.57c5.06-2.8,9.71-1.1,14.27,1.23a40.58,40.58,0,0,1,10,7.12c3.34,3,7.43,8.18,7.65,9.07a8.44,8.44,0,0,1,0,2.89c-.11.56-1.2,1.39-1.2,1.39s.71,5.94-.78,8.46c-2,3.39-2.11,8.28-2.45,9.51s-.77.77-.77.62.09-10.3-.28-11.52-1.28-2.45-.84-3.45a15.12,15.12,0,0,0,.61-3.56s-4.56-3.39-5.56-4.09-4.5-2.64-6.23-2.7a15.75,15.75,0,0,0-5.39.67c-1.95.61-2.37,1.83-2.93,1.78s-3.19-2.11-6.69-2.22-5.4-.06-6.85,1.44-2.83,3.06-2.61,5.79.12,3.39,0,3.89a10.34,10.34,0,0,0-.87,2.95c0,1.05.11,11.12,0,11.46s-.5-.12-.78-1.06-.72-5.79-.83-6.73-2.62-6.57-2.78-9.12-.89-5.9.39-9.18,2.45-4.92,3.5-5.75S47,17.35,48,18Z" fill="#f99c16" stroke="#000" stroke-miterlimit="10" stroke-width="0.75"/></g><path id="mustache" d="M63,60.47a.91.91,0,0,0,.42-.14,3.51,3.51,0,0,1,1.94-.64,2.6,2.6,0,0,1,1.26.63c1.23,1,5.59,5.23,7.29,3.15.69-.83.66-3.54.91-4.61.08-.33.23-1.2.59-1,.21.13.19.91.21,1.16,0,.51,0,2.54.07,3.06a6.23,6.23,0,0,1-.44,3c-2,3.77-7,2.36-9.67.86a8.76,8.76,0,0,1-2.77-3.25,11.21,11.21,0,0,1-3.86,3,13.29,13.29,0,0,1-4.83,1.35A3.88,3.88,0,0,1,50.72,66c-.84-1.07-.66-2.88-.53-4.22A28.21,28.21,0,0,1,51,56.66c.15-.42.27-.09.3.24.16,2.34-1,7.66,2.61,6.63a7.16,7.16,0,0,0,3.34-2.1c.89-.92,2.06-2,3.36-2a4.28,4.28,0,0,1,2,.83A.92.92,0,0,0,63,60.47Z" fill="#f99c16" stroke="#000" stroke-miterlimit="10" stroke-width="0.75"/><g id="nose-3" data-name="nose"><path d="M64.68,47.75c1.64,3.86,3.52,5.84,4.32,10,.17.87.15,4-.32,4.83-.8,1.39-2.56,1-3.7.62-.86-.3-1.43-1.22-2.66-1.7-.13,0-1,.58-1.26.6a1.5,1.5,0,0,1-1.22-.28c-1-.81-.41-2.21.29-3" fill="#fce7d4" stroke="#020202" stroke-miterlimit="10" stroke-width="0.75"/></g><g id="hat"><path d="M40.93,20.42s.82-6.71,3.92-9.55,4.21-5,7.42-6.34a23.74,23.74,0,0,1,8.64-2c2.44,0,7.87,1.52,12,3.27a14.39,14.39,0,0,1,8,7.74,45.14,45.14,0,0,1,2.22,7.88C83.29,23.1,41.22,22.55,40.93,20.42Z" fill="#286308" stroke="#020202" stroke-miterlimit="10" stroke-width="0.75"/><path d="M39.23,37.85s-1.9-4.15.81-6.12,9.13-6.55,18.44-5.9,11.07-1.27,17.72,1.88,9.3,7.3,9.08,8.17,2-5,1.53-8.17-.2-4.72-5.52-8.65a28.09,28.09,0,0,0-17.5-5.46c-5.76.22-12.48-.27-16.09,2.05s-8.52,5.16-9.18,8.44S36.16,35.23,39.23,37.85Z" fill="#286308" stroke="#020202" stroke-miterlimit="10" stroke-width="0.75"/></g><path id="forehead_wrinkle" data-name="forehead wrinkle" d="M52.55,30.44s4.39,2.27,7.11,2.28c1.78,0,2.6-2.75,4.55-3.25,2.41-.62,7.1.86,7.93,1.41" fill="none" stroke="#020202" stroke-miterlimit="10" stroke-width="0.5"/><g id="eyes-3" data-name="eyes"><path d="M74.78,40.33a21.79,21.79,0,0,1,4.92.55,45.34,45.34,0,0,1-1.57,5.85,36.22,36.22,0,0,1-4.81.53c-.43,0-1.11,0-1.93,0a16.05,16.05,0,0,1-3.5-.26,32.64,32.64,0,0,1-2.48-5.4A40.89,40.89,0,0,1,73,40.4c.58,0,1.17-.07,1.76-.07m0-2c-.61,0-1.25,0-1.91.07C67.55,38.81,63,40,63,40.61s2.65,7.54,3.76,8.14a12.91,12.91,0,0,0,4.61.55c.74,0,1.45,0,2,0,2-.1,5.94-.45,6.27-1s2.25-6.58,2.14-8.79a21.31,21.31,0,0,0-7-1.08Z"/><path d="M49.34,40.33c.59,0,1.18,0,1.76.07a40.89,40.89,0,0,1,7.61,1.24A34.4,34.4,0,0,1,56.24,47a16.57,16.57,0,0,1-3.51.26c-.82,0-1.5,0-1.93,0l-.22,0a42.14,42.14,0,0,1-4.32-.36,46.9,46.9,0,0,1-1.81-6,21.73,21.73,0,0,1,4.89-.54m0-2a21.31,21.31,0,0,0-7.05,1.08c-.11,2.21,2.11,8.38,2.44,9s4,.76,6,.86c.58,0,1.28,0,2,0a12.91,12.91,0,0,0,4.61-.55c1.11-.6,3.76-7.53,3.76-8.14s-4.53-1.8-9.85-2.21c-.66,0-1.3-.07-1.91-.07Z"/><path d="M59.66,42.93s2.91-1,5.11,0" fill="none" stroke="#000" stroke-miterlimit="10" stroke-width="2"/><path id="Eye" d="M55.13,44.84c0,1.65-.58,1.24-1.29,1.24s-1.29.41-1.29-1.24,0-3,1.29-3C54.71,41.86,55.13,43.2,55.13,44.84Z" fill="#fff" stroke="#020202" stroke-miterlimit="10" stroke-width="0.75"/><path id="Eye-2" data-name="Eye" d="M75.34,44.3c0,1.78-.58,1.31-1.3,1.31s-1.29.47-1.29-1.31,0-3.21,1.3-3.21C74.92,41.09,75.34,42.53,75.34,44.3Z" fill="#fff" stroke="#020202" stroke-miterlimit="10" stroke-width="0.75"/><path d="M67.79,37.8s4.93-4.5,7.55-4.32" fill="none" stroke="#020202" stroke-miterlimit="10" stroke-width="0.5"/><path d="M58.21,39c-2.06-.93-6.7-4-8.78-3.47" fill="none" stroke="#020202" stroke-miterlimit="10" stroke-width="0.5"/></g><g id="suspenders"><polygon points="35.66 126.27 28.58 126.27 28.58 91.06 35.66 87.52 35.66 126.27" fill="#f44711" stroke="#020202" stroke-miterlimit="10" stroke-width="0.75"/><polygon points="99.29 125.5 92.21 125.5 92.21 88.28 99.29 92.75 99.29 125.5" fill="#f44711" stroke="#020202" stroke-miterlimit="10" stroke-width="0.75"/></g><g id="beard-2" data-name="beard"><path d="M43.19,54.22s1.26,10.3,5,14,5.14,6.59,7.72,6.59,3.07-2,5.23-2.46c3.61-.78,3.58,2.46,6.83,2.46,2.58,0,9.33-6.43,10.62-9.65S80.8,54.22,80.8,54.22s.35,10,.19,12.84-1.54,14.24-4.44,17.3-10,6.11-16.07,6.11-12.8-3.38-15-7.88S43.91,75,43.28,70.17C42.69,65.64,43.19,54.22,43.19,54.22Z" fill="#f99c16" stroke="#000" stroke-miterlimit="10" stroke-width="0.75"/></g><g id="mouth"><path d="M57.5,69.39s3.31-1.1,5-.86S67,71,68.38,71.22" fill="none" stroke="#020202" stroke-miterlimit="10" stroke-width="0.75"/></g><g id="cigarette"><path id="cigarette-2" data-name="cigarette" d="M29.47,50.92s-6.93-3.66-5.07-8.17,9-11.2,7.54-6.14S24.66,47.5,20.42,43.89,14.8,29.56,16.8,27.32" fill="none" stroke="#000" stroke-miterlimit="10" stroke-width="0.75"/><path d="M57.76,69.48l-8.28,10s-.71.4.22.93,1.58.92,1.58.92l1.46-1.67c1.11-1.27,2.55-3,3.67-4.27s2.31-2.59,3.43-3.86c.41-.48.67-.94,1.09-1.42l.59-.68a3.44,3.44,0,0,0,.47-.54.2.2,0,0,0,0-.21c-.11-.2-.7-.06-.87,0-.42,0-.83.06-1.25.11A5.44,5.44,0,0,0,57.76,69.48Z" fill="#fff" stroke="#000" stroke-miterlimit="10"/></g></g></svg>