<svg xmlns="http://www.w3.org/2000/svg" viewBox="0 0 125 125"><title>Artboard 10</title><g id="person_5" data-name="person 5"><g id="turtleneck"><path d="M118.91,108.9A28,28,0,0,0,106,96.79c-4.88-2.21-9.65-4.66-14.38-7.18C89.39,88.43,87.17,87.23,85,86c-1.1-.59-1.59-1-2.69-1.63-.54-.29-1.15-.41-1.68-.73s-1-1.93-1.41-2.33c-1.35-1.28-2.37-2-2.77-3.72-.09-.43.19-1.56.13-2.11,0-.2-.13-5.29,0-4L49,71.34s.45,4.08.45,4.15c0,.85-.72,1.84-.55,2.67a4.38,4.38,0,0,1-.4,2.39C48,82,46.06,82.13,44.89,83s-1.36,2.14-2.8,2.74-2.84,1.34-4.26,2c-6.2,3-12.38,6-18.57,9-.25.12-.5.27-.76.37C16,98.36,12.25,99.94,9.81,103s-7,14.87-7.8,18.36S1,126,1,126L124,125.73S121.35,113.54,118.91,108.9Z" fill="#020202" stroke="#020202" stroke-miterlimit="10" stroke-width="0.75"/></g><path id="head-3" data-name="head" d="M85.42,44.94S87.13,33.44,87,31.12c-.26-3.62-.89-7.34-3.09-10.33C80,15.46,73.7,10.92,67.09,9.84s-13.22.91-18.75,4.39c-1,.61-1.91,1.27-2.81,2C39,21.25,35.68,26.59,37.28,35s1.86,8.74,1.86,8.74-.51-3.82-2.38-5.15-4.27-1.86-5.33.8a8.33,8.33,0,0,0,.93,7.71c1.46,2.26,2.93,7.85,3.32,9.31s2.13,2.79,3.2,3.46a3,3,0,0,0,2.52,0s.4,4.65,1.73,6.51c4,5.65,10.94,11.92,18.09,12.33,7,.39,12.24-4,16.89-8.6.66-.67,4.25-4.13,4.65-5.19a34.56,34.56,0,0,0,.53-5.59s1.86,1.6,2.66.93,2.26-.93,2.93-2.26.4-4.65,1.33-6.11,2.26-2.53,3.06-4.66,1.46-5.18,0-7.44a3.31,3.31,0,0,0-4.66-.94A19.13,19.13,0,0,0,85.42,44.94Z" fill="#e8d5aa" stroke="#020202" stroke-miterlimit="10" stroke-width="0.75"/><path id="nose-4" data-name="nose" d="M66.5,46.92c1-.11,1.78-.66,2.48.51s1.52,3.42.77,4.81-3.75,3.3-5.86,1.32l-2.11-2s-1.69,1.81-2.55.5a1.88,1.88,0,0,1,0-2.48c.3-.33,1.12-.16,1.12-.16" fill="#e8d5aa" stroke="#020202" stroke-miterlimit="10" stroke-width="0.75"/><g id="hair-3" data-name="hair"><path d="M56.65,19.91s1.62-11.57,5-12.36" fill="#020202"/><path d="M62.93,19.91s1.62-11.57,5-12.36" fill="#020202"/><path d="M39.48,45.51c1.77-2.19,1.43-5.37.76-8.11-1.05-4.26-2.71-8.48-2.47-12.86,0,.48-5.57,3.81-6.15,4.44A2.73,2.73,0,0,0,31,30a2.49,2.49,0,0,0,0,1.43c.73,3.09,3.07,5.49,5,8A31.75,31.75,0,0,1,39.48,45.51Z" fill="#020202"/><path d="M85.45,45.54c-1.85-2.12-1.65-5.31-1.09-8.07.86-4.3,2.34-8.59,1.91-13,0,.49,5.73,3.57,6.34,4.17a2.9,2.9,0,0,1,.7,1,2.57,2.57,0,0,1,0,1.43c-.6,3.12-2.84,5.61-4.62,8.24A31.54,31.54,0,0,0,85.45,45.54Z" fill="#020202"/></g><g id="glasses"><circle cx="53.02" cy="37.45" r="5.75" fill="#fff" stroke="#020202" stroke-miterlimit="10" stroke-width="0.75"/><circle cx="72.72" cy="37.45" r="5.75" fill="#fff" stroke="#020202" stroke-miterlimit="10" stroke-width="0.75"/><path d="M67,37.45a6.94,6.94,0,0,0-4.1-1.7,6.55,6.55,0,0,0-4.09,1.7" fill="none" stroke="#020202" stroke-miterlimit="10" stroke-width="0.75"/></g><g id="mouth-2" data-name="mouth"><path d="M58.78,54.79s-4.94,3.15-5.94,4.55-2.08,6.21-.89,7.4" fill="#e8d5aa" stroke="#020202" stroke-miterlimit="10" stroke-width="0.75"/><path d="M72.22,54.79s2.32,3.15,3.92,5,1,6.2-.45,7" fill="#e8d5aa" stroke="#020202" stroke-miterlimit="10" stroke-width="0.75"/><line x1="59.48" y1="62.44" x2="67.9" y2="62.44" fill="#fff" stroke="#020202" stroke-miterlimit="10" stroke-width="0.75"/><path d="M61.14,70.88s4.13-1.28,6.27,0" fill="none" stroke="#020202" stroke-miterlimit="10" stroke-width="0.75"/></g></g></svg>