<svg xmlns="http://www.w3.org/2000/svg" viewBox="0 0 125 125"><title>Artboard 1 copy</title><g id="person_11" data-name="person 11"><path id="neck-2" data-name="neck" d="M73.76,68.28s.81,11.18,1.48,12.28,3.6,2.19,6.08,3.13S87,85.89,87,85.89s-3.42,6.64-8.61,9.7-20.1,2.79-25.81,1.46S36,84.89,36,84.89,48.4,81.3,50.17,80.13s1.5-11.85,1.5-11.85Z" fill="#fce7d4" stroke="#020202" stroke-miterlimit="10" stroke-width="0.75"/><path id="jacket-2" data-name="jacket" d="M66.4,77c7.56-2.27,9.66-12.88,9.66-12.88-.16-1.26-.06,3.57,0,3.76.06.59-.18,1.17-.14,1.76a4.06,4.06,0,0,0,.88,2c.48.63,1.13,1,1.65,1.63a15.58,15.58,0,0,1,1,1.79c.52.77,1.26.84,2,1.25,1,.56,1.51,1,2.56,1.55,2.11,1.13,4.21,2.27,6.33,3.39,4.49,2.38,9,4.71,13.64,6.8,5.61,2.54,11.94,7.09,14.25,11.5s4.87,26.53,4.87,26.53L1.2,127.38s.29,1,1-2.31C4.93,112.47,3.94,95,17.86,89.41c.24-.1,2.47-1.23,2.71-1.35,5.87-2.87,12.84-5.74,18.73-8.58,1.17-.56,2.32-1.18,3.52-1.7A4.89,4.89,0,0,0,45,76c1.48-1.92,4.77-1.78,4.86-4.78a8.26,8.26,0,0,1,0-1.65,6.92,6.92,0,0,0,.45-1.66c0-.07-.42-3.94-.43-3.94S57,75.5,63.22,77.46L65,84.07Z" fill="#fcd8d6" stroke="#020202" stroke-miterlimit="10" stroke-width="0.75"/><path id="jacket_stripe" data-name="jacket stripe" d="M102.69,126.25H21.3c2.55,0,.26-10,1.72-10.89.42-.27,1.95,0,2.45,0H90.94c3.39,0,7.08-.5,10.4,0,.19,2.14-.21,4.29,0,6.43C101.6,124.16,102.44,123.89,102.69,126.25Z" fill="#0b0b7f" stroke="#020202" stroke-miterlimit="10" stroke-width="0.75"/><path id="face-2" data-name="face" d="M81.84,46.59s-.55,9.32-.74,10.09a12.83,12.83,0,0,1-1.5,3.62c-3.35,6-8.13,13.54-15.87,13.11-7.31-.41-10-4.24-14.15-9.79-2.84-3.8-4.33-6.87-4.54-7.83a43.75,43.75,0,0,1-.26-4.39l-.5.12s-.06,1-.9,1.08c-1.21.16-1.94-1.37-2.25-2.3-.53-1.56-.28-3.17-.28-5s-2.8-6.53,0-8.05c1.89-1,1.67.32,2.25,1.94a14.68,14.68,0,0,1,.45,1.65l.34-.08s-.05-3,0-5.14c.09-3.94-1.12-8.34.36-12.15,4.87-12.57,9.46-13,20.74-13.41,10.06-.33,15.7,7.83,16.46,11.57a36.66,36.66,0,0,1,.89,9.1c-.15,2.76-.52,9.67-.52,9.67l.32.06a30.14,30.14,0,0,1,1.34-3.37,1.86,1.86,0,0,1,2.5-.78,1.84,1.84,0,0,1,.73,2.09c-.3,1.08-.83,4.2-1.06,5.46a17,17,0,0,0,0,2.76c0,.84-.37,3.76-1.6,3.73C83.33,50.37,81.45,50.41,81.84,46.59Z" fill="#fce7d4" stroke="#020202" stroke-miterlimit="10" stroke-width="0.75"/><path id="nose-4" data-name="nose" d="M62.83,47.4a8.61,8.61,0,0,0,3.26,1.45c6.09.52-2.85,5.61-3.92,3.62" fill="none" stroke="#231f20" stroke-miterlimit="10" stroke-width="0.75"/><g id="hat-3" data-name="hat"><path d="M76.45,8.74a55,55,0,0,1,3.12,4.73c.91,1.71,3.65,8.6,3.08,11.88A82.52,82.52,0,0,0,82,35c0,.34-1.06-4.23-2.47-5.34S76,24.92,75.58,21.48,75.3,9.23,76.45,8.74Z" fill="#0b0b7f" stroke="#020202" stroke-miterlimit="10" stroke-width="0.75"/></g><path id="front_of_hat" data-name="front of hat" d="M43.52,25.2s.12-6,0-8.45,3.06-7.39,6-8.24,9.8-4.27,11.17-4.16S71.24,5.41,73,6.45s3.14.29,3.94,3.6.68,11.51.91,13.44a38.93,38.93,0,0,1,0,5.38Z" fill="#fcd8d6" stroke="#020202" stroke-miterlimit="10" stroke-width="0.75"/><path d="M81.33,33.63s.12-5.76-5.12-7.26a73.23,73.23,0,0,0-24.16-2.08A73.43,73.43,0,0,0,39.78,26c-1.44.35-4.56.78-4.87,2.68-.12.73,1.28,1.12,1.76,1.33a15.17,15.17,0,0,0,5.47,1.17,11.78,11.78,0,0,0,1.27,1.37A2.39,2.39,0,0,1,44.08,30c1.25-1,6.26-2.37,13.44-2.48a99.48,99.48,0,0,1,20,2.48A7.48,7.48,0,0,1,81.33,33.63Z" fill="#0b0b7f" stroke="#020202" stroke-miterlimit="10" stroke-width="0.75"/><g id="zipper"><rect x="62.99" y="86.07" width="3.19" height="9.37" transform="translate(6.83 -4.49) rotate(4.21)" fill="#020202" stroke="#020202" stroke-miterlimit="10" stroke-width="0.75"/><rect x="64.35" y="82.54" width="1.35" height="3.54" fill="#020202" stroke="#020202" stroke-miterlimit="10" stroke-width="0.75"/><path d="M64.76,83.68s1.21-.54.42,17.77c-.64,14.93,0,24.8,0,24.8" fill="#f9f7e1" stroke="#020202" stroke-miterlimit="10" stroke-width="2"/></g><path id="mouth-4" data-name="mouth" d="M66,61A9.54,9.54,0,0,1,57,59.89" fill="none" stroke="#020202" stroke-miterlimit="10" stroke-width="0.75"/><g id="eyes-5" data-name="eyes"><path d="M70,39.14a1.27,1.27,0,1,0,1.1-1.62A1.4,1.4,0,0,0,70,39.14Z" fill="#fff" stroke="#020202" stroke-miterlimit="10" stroke-width="0.75"/><path d="M58.16,38.92a1.27,1.27,0,1,0,1.1-1.62A1.4,1.4,0,0,0,58.16,38.92Z" fill="#fff" stroke="#020202" stroke-miterlimit="10" stroke-width="0.75"/><path d="M60.3,42.92s-1.36,1.74-2.55,1.41a4.13,4.13,0,0,1-1.83-1" fill="none" stroke="#231f20" stroke-miterlimit="10" stroke-width="0.75"/><path d="M73.38,42.92S72,44.66,70.84,44.33a4.21,4.21,0,0,1-1.84-1" fill="none" stroke="#231f20" stroke-miterlimit="10" stroke-width="0.75"/><path d="M60.55,33.26s-2.55-2.82-4.3.38-2.42,4.72-2.42,4.72" fill="none" stroke="#231f20" stroke-miterlimit="10" stroke-width="0.75"/><path d="M69.81,33.76s1.72-1.89,3.69.64a15.59,15.59,0,0,1,2.6,4.79" fill="none" stroke="#231f20" stroke-miterlimit="10" stroke-width="0.75"/></g></g></svg>