<svg xmlns="http://www.w3.org/2000/svg" viewBox="0 0 125 125"><title>Artboard 2</title><g id="person_8" data-name="person 8"><g id="head_copy_3" data-name="head copy 3"><path id="neck" d="M79.37,81.94s-1.6-2-1.6-2.58-.41-13-.41-13H45.76s.33,13.21-.28,13.9a18.63,18.63,0,0,0-3.64,6.12c-1.72,4.22,4,9.18,6.78,10.37,5.92,2.54,14.29,2.49,20.61,1a23.11,23.11,0,0,0,12.24-7.5C83.37,87.84,83.79,84.34,79.37,81.94Z" fill="#fce7d4" stroke="#020202" stroke-miterlimit="10" stroke-width="0.75"/><path id="face-2" data-name="face" d="M80.09,54.1s-.55,9.4-.74,10.17a13.35,13.35,0,0,1-1.51,3.65,71.06,71.06,0,0,1-5.64,7.71c-1,1.07-3.19,4.22-4.39,4.56a28.77,28.77,0,0,1-6,1c-1.28-.07-5.89-.68-6.91-1.3s-4.49-4.75-7.36-8.58S43.17,64.34,43,63.38s-.27-4.44-.27-4.44l-.49.13s-.07,1-.92,1.09c-1.22.15-2-1.38-2.27-2.33-.53-1.57-.3-3.3-.86-4.86S35,45.91,37.06,44.52c1.79-1.21,3.39.51,4,2.14a15.1,15.1,0,0,1,.45,1.67l.35-.08s0-3,0-5.19c.09-4-1.13-8.42.36-12.26,4.91-12.68,9.55-13.16,20.93-13.53,10.15-.34,15.85,7.9,16.61,11.67a37.35,37.35,0,0,1,.9,9.18c-.15,2.8-.53,9.76-.53,9.76l.33.07a29.33,29.33,0,0,1,1.35-3.4A1.76,1.76,0,0,1,85,45.87c-.3,1.09-.84,4.24-1.07,5.5a15.3,15.3,0,0,0,0,2.79c0,.85-.37,3.79-1.62,3.76C81.59,57.9,79.7,58,80.09,54.1Z" fill="#fce7d4" stroke="#020202" stroke-miterlimit="10" stroke-width="0.75"/></g><g id="sweater_copy_3" data-name="sweater copy 3"><path id="Sweater-4" data-name="Sweater" d="M123.72,125.25s-3.11-13.1-5.55-17.74A28.11,28.11,0,0,0,105.26,95.4C99.36,92.73,79.32,80,79.31,80.71a16.28,16.28,0,0,1-4.2,11.82c-4.2,4.5-19.1,3.14-24.77.4a11,11,0,0,1-6.17-7.82c-.35-1.07-.76-2.76-.76-2.76S20.28,94.5,17.76,95.74s-6.25,2.82-8.69,5.87S2,116.49,1.27,120a23.28,23.28,0,0,0-.64,5.54Z" fill="#202133" stroke="#000" stroke-miterlimit="10"/></g><g id="hair_copy_3" data-name="hair copy 3"><path d="M47.29,17.94s1.72-7.3,5.84-9.57c5.06-2.79,9.7-1.1,14.27,1.24a40.06,40.06,0,0,1,10,7.12c3.33,3,7.43,8.17,7.65,9.06a8.43,8.43,0,0,1,0,2.89c-.11.56-1.2,1.39-1.2,1.39s.71,5.94-.78,8.46c-2,3.39-2.11,8.29-2.45,9.51s-.78.77-.78.62.1-10.3-.27-11.52-1.28-2.45-.84-3.45a15.12,15.12,0,0,0,.61-3.56S74.79,26.74,73.79,26s-4.5-2.64-6.23-2.7a15.75,15.75,0,0,0-5.39.67c-2,.61-2.37,1.83-2.93,1.78s-3.19-2.11-6.69-2.22-5.4-.06-6.85,1.44-2.83,3.06-2.61,5.79.12,3.39,0,3.89a10.34,10.34,0,0,0-.87,3c0,1.06.11,11.12,0,11.46S41.7,49,41.42,48s-.72-5.78-.83-6.73S38,34.75,37.81,32.19s-.89-5.9.38-9.18,2.46-4.92,3.51-5.75S46.29,17.26,47.29,17.94Z" fill="#8e570e" stroke="#000" stroke-miterlimit="10" stroke-width="0.75"/></g><g id="nose_copy_3" data-name="nose copy 3"><path d="M61.41,53.8s6.61-2.26,6,1.65-6.76,3.39-6.76,3.39" fill="#fce7d4" stroke="#020202" stroke-miterlimit="10" stroke-width="0.75"/></g><g id="mouth_copy_3" data-name="mouth copy 3"><path d="M56.76,69.3s3.31-1.1,5-.86,4.49,2.43,5.88,2.7" fill="none" stroke="#020202" stroke-miterlimit="10" stroke-width="0.75"/></g><g id="stubble-2" data-name="stubble"><line x1="48.48" y1="62.16" x2="48.48" y2="62.84" fill="#60a5c4" stroke="#000" stroke-miterlimit="10" stroke-width="0.75"/><line x1="46.06" y1="56.21" x2="46.06" y2="56.89" fill="#60a5c4" stroke="#000" stroke-miterlimit="10" stroke-width="0.75"/><line x1="47.54" y1="66.03" x2="47.54" y2="66.71" fill="#60a5c4" stroke="#000" stroke-miterlimit="10" stroke-width="0.75"/><line x1="53.73" y1="63.19" x2="53.73" y2="63.87" fill="#60a5c4" stroke="#000" stroke-miterlimit="10" stroke-width="0.75"/><line x1="50.56" y1="68.17" x2="50.56" y2="68.86" fill="#60a5c4" stroke="#000" stroke-miterlimit="10" stroke-width="0.75"/><line x1="51.48" y1="57.27" x2="51.48" y2="57.96" fill="#60a5c4" stroke="#000" stroke-miterlimit="10" stroke-width="0.75"/><line x1="70.82" y1="57.27" x2="70.82" y2="57.96" fill="#60a5c4" stroke="#000" stroke-miterlimit="10" stroke-width="0.75"/><line x1="75.74" y1="56.93" x2="75.74" y2="57.62" fill="#60a5c4" stroke="#000" stroke-miterlimit="10" stroke-width="0.75"/><line x1="69.72" y1="62.53" x2="69.72" y2="63.21" fill="#60a5c4" stroke="#000" stroke-miterlimit="10" stroke-width="0.75"/><line x1="66.45" y1="64.87" x2="66.45" y2="65.56" fill="#60a5c4" stroke="#000" stroke-miterlimit="10" stroke-width="0.75"/><line x1="65.2" y1="75.91" x2="65.2" y2="76.59" fill="#60a5c4" stroke="#000" stroke-miterlimit="10" stroke-width="0.75"/><line x1="58.31" y1="76.93" x2="58.31" y2="77.62" fill="#60a5c4" stroke="#000" stroke-miterlimit="10" stroke-width="0.75"/><line x1="60.36" y1="74.2" x2="60.36" y2="74.89" fill="#60a5c4" stroke="#000" stroke-miterlimit="10" stroke-width="0.75"/><line x1="74.38" y1="64.95" x2="74.38" y2="65.63" fill="#60a5c4" stroke="#000" stroke-miterlimit="10" stroke-width="0.75"/><line x1="77.85" y1="62.84" x2="77.85" y2="63.53" fill="#60a5c4" stroke="#000" stroke-miterlimit="10" stroke-width="0.75"/></g><g id="eyes_copy_2" data-name="eyes copy 2"><path id="Eye" d="M54.86,43c0,1.4-.58,2.53-1.29,2.53S52.28,44.44,52.28,43s0-2.54,1.29-2.54C54.45,40.5,54.86,41.64,54.86,43Z" fill="#fff" stroke="#020202" stroke-miterlimit="10" stroke-width="0.75"/><path id="Eye-2" data-name="Eye" d="M71.49,42.58c0,1.51-.58,2.73-1.29,2.73s-1.29-1.22-1.29-2.73,0-2.74,1.29-2.74C71.07,39.84,71.49,41.07,71.49,42.58Z" fill="#fff" stroke="#020202" stroke-miterlimit="10" stroke-width="0.75"/><path id="undereye" d="M54.62,47a3.86,3.86,0,0,1-2.18,1.09c-1.14,0-2.75-.58-3-1.38" fill="none" stroke="#020202" stroke-miterlimit="10" stroke-width="0.75"/><path id="undereye-2" data-name="undereye" d="M66.52,47.12a7.17,7.17,0,0,0,3.06,1.31,3.52,3.52,0,0,0,2.58-1.58" fill="none" stroke="#020202" stroke-miterlimit="10" stroke-width="0.75"/><path id="eyebrow" d="M64.86,35.56s2-2,4-2,3,2,5,3" fill="none" stroke="#020202" stroke-miterlimit="10" stroke-width="0.75"/><path id="eyebrow-2" data-name="eyebrow" d="M58.86,36.56a12.38,12.38,0,0,0-3-2,4.71,4.71,0,0,0-6,1c-2,2-2,2-3,2" fill="none" stroke="#020202" stroke-miterlimit="10" stroke-width="0.75"/></g><g id="glasses-2" data-name="glasses"><path d="M82,18.54a44.72,44.72,0,0,0-8.56-.66,80.75,80.75,0,0,0-10.13,1.81,10.24,10.24,0,0,1-2.57.39,18,18,0,0,1-3.47-.72,50.29,50.29,0,0,0-6.88-1.28,58.53,58.53,0,0,0-8.18-.1c-2.62.29-3,.53-2.94.76l.42,2.57a3.9,3.9,0,0,1,.56.23,1.09,1.09,0,0,1,.46.52c.12.26,1.65,5.45,1.74,5.71a4.4,4.4,0,0,0,.85,1.48,7,7,0,0,0,2.23,1.43,12.94,12.94,0,0,0,2.93.66A13.88,13.88,0,0,0,52,31.26a8.52,8.52,0,0,0,3.49-1.58,12.24,12.24,0,0,0,2.35-3c.34-.78,1.41-3.29,1.63-3.59a1.8,1.8,0,0,1,1.36-.58,1.55,1.55,0,0,1,1.43.87c.29.6,1.2,2.92,1.89,4.11A6.87,6.87,0,0,0,68.48,31,11.81,11.81,0,0,0,75,31a7,7,0,0,0,2.47-1.14,6.26,6.26,0,0,0,1.23-1.57C79,27.59,80,24,80.09,23.66a7,7,0,0,1,.78-1.94,3.07,3.07,0,0,1,.79-.41l.43-2.57A.42.42,0,0,0,82,18.54Zm-26,7.2a10.74,10.74,0,0,1-2.09,3.16A7.08,7.08,0,0,1,49.28,30a8.67,8.67,0,0,1-4.12-1c-.9-.4-1.29-1.55-1.71-2.65A15.38,15.38,0,0,1,43,21.78a.86.86,0,0,0,0-.16,1.63,1.63,0,0,1,.52-1.15c1-1,2.62-.94,3.92-1a22.21,22.21,0,0,1,4.46.24c1.41.22,4.53.56,4.78,2.48A14,14,0,0,1,56,25.74Zm21.75.57c-.42,1.09-.81,2.24-1.7,2.64A8.71,8.71,0,0,1,72,30a7,7,0,0,1-4.64-1.08,10.49,10.49,0,0,1-2.09-3.15,9.28,9.28,0,0,1-.64-3.44c.19-1.48,2.19-2.14,3.46-2.36a25.35,25.35,0,0,1,5.28-.52c1.38.05,3.3,0,4.41,1.05a1.56,1.56,0,0,1,.52,1.15.86.86,0,0,1,0,.16A15.09,15.09,0,0,1,77.77,26.31Z"/><g opacity="0.7"><path d="M43.49,20.48A1.65,1.65,0,0,0,43,21.63a1,1,0,0,1,0,.17,15.46,15.46,0,0,0,.49,4.52c.42,1.1.81,2.25,1.71,2.65a8.67,8.67,0,0,0,4.12,1,7.08,7.08,0,0,0,4.65-1.08A10.87,10.87,0,0,0,56,25.76a14,14,0,0,0,.63-3.56c-.25-1.91-3.37-2.25-4.78-2.47a22.21,22.21,0,0,0-4.46-.24C46.11,19.55,44.49,19.52,43.49,20.48Z"/></g><g opacity="0.7"><path d="M77.73,20.49a1.57,1.57,0,0,1,.52,1.15,1,1,0,0,1,0,.17,15,15,0,0,1-.49,4.51c-.42,1.1-.81,2.25-1.7,2.65A8.71,8.71,0,0,1,72,30a7,7,0,0,1-4.64-1.08,10.54,10.54,0,0,1-2.09-3.16,9.23,9.23,0,0,1-.64-3.43c.19-1.49,2.19-2.14,3.46-2.37a26.78,26.78,0,0,1,5.28-.52C74.7,19.5,76.62,19.43,77.73,20.49Z"/></g></g></g></svg>