<svg xmlns="http://www.w3.org/2000/svg" viewBox="0 0 125 134.84"><title>Artboard 21 copy</title><g id="person_13" data-name="person 13"><path id="neck-2" data-name="neck" d="M50.63,75.36s-.31,12.61-.73,14-7.9,2.3-9.62,4.31,1,5.69,2.3,7.09c6.11,6.84,21.65,7.63,29.83,5.87,4.49-1,14.59-6.6,15.45-11.81.43-2.59-7.17-4-9-5.17s-2.66-14.62-2.66-14.62Z" fill="#fce7d4" stroke="#020202" stroke-miterlimit="10" stroke-width="0.75"/><path id="head-3" data-name="head" d="M62.55,28.39A28.87,28.87,0,0,0,51.85,30a10.46,10.46,0,0,0-5.78,4.14A13.32,13.32,0,0,0,44.71,38Q43,45.54,42,53.2a19.85,19.85,0,0,0-.5-2.12c-.34-.73-1.93-.53-2.07.57a5.46,5.46,0,0,0,.46,2.65A15.48,15.48,0,0,1,40.77,57c.55,3.26-.31,3.47.06,6a2.35,2.35,0,0,0,1.31,1.62c.24.12,1.22.46,1.21-.07a33.64,33.64,0,0,0,1.17,9c1.15,3.56,4.8,6.42,7.53,8.77a28,28,0,0,0,6.69,4.72c6.57,2.94,13-1.27,16.56-6.74,2.47-3.73,5.7-6.21,6.06-10.55a36.21,36.21,0,0,0,.58-4.72c0-.48.58-.34.88-.32,1.77.11,2.09-2.45,2.3-3.74.34-2.24.17-4.6,1.06-6.73.44-1.06,1.65-2.62.36-3.59a2.21,2.21,0,0,0-2.58.06c-.94.66-.93,1.65-1.25,2.65a54.7,54.7,0,0,0-2.12-14,12.85,12.85,0,0,0-1.67-4.05,14.65,14.65,0,0,0-6-5.09,20.11,20.11,0,0,0-5.14-1.57A46.3,46.3,0,0,0,62.55,28.39Z" fill="#fce7d4" stroke="#020202" stroke-miterlimit="10" stroke-width="0.75"/><path id="nose-4" data-name="nose" d="M63.1,62.25c-1.26,3.72-8.68,2.88-8.85,4.85-.26,3,5.39,2.59,7.72,1.48" fill="none" stroke="#020202" stroke-miterlimit="10" stroke-width="0.75"/><g id="hair-6" data-name="hair"><path d="M81.92,51.08S82.26,39.9,79,38.18c-2.91-1.53-5.9-3.4-9.23-3.76a60.45,60.45,0,0,0-10.6-.48c-2.83.17-8.57-.15-10.58,2.52-1.54,2.06-5.49,19.63-6.3,18.48a16.93,16.93,0,0,1-2.64-7,25,25,0,0,1,1.69-13.24c1.74-4,0-2.8,2.41-6.39a27.46,27.46,0,0,1,7.91-7.19c1.2-.69.88-1.12,1.23-1.26a2.26,2.26,0,0,0,.63-.46s-1.26-2.64-1.66-3.82a24.49,24.49,0,0,1-1.22-3.84A4.63,4.63,0,0,1,51.54,8c.82-1,2.17-2.6,3.4-3a12.42,12.42,0,0,1,5.62.19c.95.29,1.61.75,2.27.43s1.92-1.95,3-1.95c1.86,0,5.5,1.55,6,3.56s.06,1.8,1.81,2.81,3.15,4.44,3.62,6.34c.34,1.35,0,3.26-1.76,3.77-.6.17-1.63.37-1.63.37s1.8,1.12,1.92,1.93,0,1,0,1.26a4,4,0,0,0,.63.91S84.18,27.92,85,31s.38,3.95,1.24,5a7.62,7.62,0,0,1,1.63,5.27,38.57,38.57,0,0,1-1.15,7.6c-.17,1-1.89,3.29-2.43,4.24s-1.58,3.15-2,2.84S81.91,51.62,81.92,51.08Z" fill="#f99c16" stroke="#000" stroke-miterlimit="10" stroke-width="0.75"/><path d="M53.52,19.44a6.7,6.7,0,0,1,4-.63,30,30,0,0,1,3.9,1.26" fill="none" stroke="#020202" stroke-miterlimit="10" stroke-width="0.75"/><path d="M73.87,20.55s-6.68.06-10.35-5.26" fill="none" stroke="#020202" stroke-miterlimit="10" stroke-width="0.75"/><path d="M62.83,5.65a8.17,8.17,0,0,0,1.49,4.22c2.18,3.55,4.36,4.24,4.36,4.24" fill="none" stroke="#020202" stroke-miterlimit="10" stroke-width="0.75"/><path d="M56.41,5a6.77,6.77,0,0,0,.12,6.51,13.69,13.69,0,0,0,3.72,4.59" fill="none" stroke="#020202" stroke-miterlimit="10" stroke-width="0.75"/><path d="M76.75,24.79c0,.26-.54-.42-3.66-1.26" fill="none" stroke="#020202" stroke-miterlimit="10" stroke-width="0.75"/><path d="M57.14,31.51c-1.39-1.11-3.35-3-2.94-5,.29-1.39,1.82-3,2.94-3.82" fill="none" stroke="#020202" stroke-miterlimit="10" stroke-width="0.75"/><path d="M71.66,32.33s4.81-2,3.78-4.4" fill="none" stroke="#020202" stroke-miterlimit="10" stroke-width="0.75"/><path d="M62.81,31.19s3.67-.92,2.53-4a14.46,14.46,0,0,1-1.16-4.9" fill="none" stroke="#020202" stroke-miterlimit="10" stroke-width="0.75"/></g><g id="eyes-7" data-name="eyes"><path d="M66.05,46.89c4.5-.61,10-5.63,11.92-1.26" fill="none" stroke="#020202" stroke-miterlimit="10" stroke-width="0.75"/><path d="M57.49,50.55c-2.91-.68-10-5.2-12-.8" fill="none" stroke="#020202" stroke-miterlimit="10" stroke-width="0.75"/><circle cx="71.78" cy="55.33" r="1.23" fill="#fff" stroke="#020202" stroke-miterlimit="10" stroke-width="0.75"/><circle cx="52.68" cy="55.31" r="1.23" fill="#fff" stroke="#020202" stroke-miterlimit="10" stroke-width="0.75"/><path d="M68.05,54.42s3.56-1.81,5-1.28,1.77,1.59,2.58,1.66" fill="none" stroke="#020202" stroke-miterlimit="10" stroke-width="0.75"/><path d="M55.77,55.6s-1.21-2.9-2.89-2.51A26.74,26.74,0,0,0,49.6,54" fill="none" stroke="#020202" stroke-miterlimit="10" stroke-width="0.75"/></g><g id="shirt-3" data-name="shirt"><path d="M1.48,143.77c.58-3.43,1.58-9.06,2.55-14.56,1.1-6.23,2.14-12.11,2.56-14.66l.19-1.21c.64-4,1-6,3.28-9.8,2.47-4.07,7.21-5.5,12-6.43,2.15-.42,3.75-.87,5.3-1.31a45.12,45.12,0,0,1,6.57-1.46A37.35,37.35,0,0,0,42,91.7a9.4,9.4,0,0,1,.34,1.17c.63,2.52,2,7.78,7.7,10.68a28.49,28.49,0,0,0,12.73,2.9,30,30,0,0,0,16.44-4.8c2.81-1.87,4.3-4.59,5.87-7.46.44-.81.9-1.65,1.4-2.48a48.47,48.47,0,0,1,6.69,2.09c1.06.4,2.12.79,3.19,1.14a41.35,41.35,0,0,0,5.33,1.22c5.27,1,11.24,2.08,13.07,7.18,1.94,5.41,3.86,17,5.55,27.32.88,5.35,1.65,10,2.31,13.11Z" fill="#fff"/><path d="M86.65,92.13a48.78,48.78,0,0,1,6.38,2c1,.38,2.13.78,3.2,1.14a44.35,44.35,0,0,0,5.38,1.23c5.17,1,11,2,12.79,6.94,1.93,5.38,3.93,17.51,5.53,27.25.84,5.11,1.58,9.58,2.22,12.68H1.92c.59-3.46,1.55-8.86,2.47-14.1,1.1-6.24,2.15-12.13,2.57-14.69l.19-1.21c.63-3.93.95-5.9,3.23-9.66,2.39-3.95,7-5.35,11.71-6.26,2.17-.43,3.77-.88,5.33-1.32a45,45,0,0,1,6.52-1.45,36.9,36.9,0,0,0,7.83-2.5c.06.22.13.49.19.75.65,2.58,2,8,7.9,10.92a28.71,28.71,0,0,0,12.9,2.94A30.42,30.42,0,0,0,79.41,102c2.89-1.92,4.39-4.68,6-7.59.4-.74.81-1.49,1.25-2.24m-44.58-.86-.07,0A37.14,37.14,0,0,1,33.84,94c-4.9.68-7,1.81-11.89,2.77-4.61.91-9.62,2.33-12.21,6.61S7,109.63,6.22,114.49s-4,22.65-5.19,29.66H123.08c-1.93-8.74-5-32.52-8-40.94-2.57-7.18-12.79-6.69-18.63-8.62-3.39-1.12-6.67-2.62-10.19-3.3C84,95.13,82.58,99,79,101.33a29.59,29.59,0,0,1-16.24,4.74,28,28,0,0,1-12.56-2.86C42.56,99.37,43,91.27,42.07,91.27Z"/></g><g id="stripe"><polygon points="118.88 124.68 5.26 124.68 4.67 128.5 119.47 128.5 118.88 124.68" fill="#3caa33"/><polygon points="120.34 133.4 3.7 133.4 3.11 137.21 120.94 137.21 120.34 133.4" fill="#3caa33"/><polygon points="117.28 115.96 6.8 115.96 6.13 119.78 117.99 119.78 117.28 115.96" fill="#3caa33"/><path d="M42.33,107.48H8.61A8.73,8.73,0,0,0,8,109.29a19.16,19.16,0,0,0-.4,2H49.33Z" fill="#3caa33"/><path d="M36.7,98.64l-19.44.19a2.11,2.11,0,0,0-.74.18c-.35.14-.68.29-1,.45s-.87.38-1.29.61a10,10,0,0,0-1.15.82c-.38.29-.68.57-1,.88a3.5,3.5,0,0,0-.38.39s-.26.3-.25.3H38.82c-.38-.45-.3-.25-.56-.67a9.23,9.23,0,0,1-1-1.85C37.06,99.44,37,99.21,36.7,98.64Z" fill="#3caa33"/><path d="M89.66,98.64l20.22.19s.08,0,.1.06l.18.11c.37.21.74.41,1.1.65s.5.28.73.44a6.77,6.77,0,0,1,1.08,1.06,3.37,3.37,0,0,1,.71,1,2.49,2.49,0,0,0,.11.27H87.25a3.76,3.76,0,0,0,.56-.76c.66-1.08.5-.72,1.12-1.76C89.21,99.47,89.35,99.21,89.66,98.64Z" fill="#3caa33"/><path d="M82.69,107.48H115.5l.44,1.74c.15.69.41,1.87.45,2.08H75.46Z" fill="#3caa33"/></g><g id="shirt_seams" data-name="shirt seams"><line x1="22.53" y1="144.15" x2="24.39" y2="131.83" fill="none" stroke="#000" stroke-miterlimit="10"/><line x1="103.03" y1="144.15" x2="101.77" y2="133.4" fill="none" stroke="#000" stroke-miterlimit="10"/><path d="M35.82,94.23s1.08,6.83,5,11.28,9.57,7,22,7,19.14-4.32,21-6.26,6-8,8.19-12.43" fill="none" stroke="#000" stroke-miterlimit="10" stroke-width="0.75"/></g><line id="beauty_mark" data-name="beauty mark" x1="76.75" y1="57.55" x2="76.75" y2="58.57" fill="none" stroke="#020202" stroke-miterlimit="10"/><g id="glasses-2" data-name="glasses"><path d="M59.18,54.59a4,4,0,0,1,3-1.62,4.36,4.36,0,0,1,3.12,1.62" fill="none" stroke="#020202" stroke-miterlimit="10" stroke-width="3"/><path d="M51.12,46.21a9.1,9.1,0,1,0,9.1,9.1A9.1,9.1,0,0,0,51.12,46.21Zm0,15.21a6.11,6.11,0,1,1,6.11-6.11A6.1,6.1,0,0,1,51.12,61.42Z"/><path d="M73,46.21a9.1,9.1,0,1,0,9.1,9.1A9.1,9.1,0,0,0,73,46.21Zm0,15.21a6.11,6.11,0,1,1,6.11-6.11A6.11,6.11,0,0,1,73.06,61.42Z"/></g><path id="mouth-4" data-name="mouth" d="M67,77.84c0,2.09-4.17,2.3-4.7,2.3s-1-1.69-1-3.77.43-3.78,1-3.78S67,75.76,67,77.84Z" fill="#fff" stroke="#020202" stroke-miterlimit="10" stroke-width="0.75"/></g></svg>