<svg xmlns="http://www.w3.org/2000/svg" viewBox="0 0 125 125"><title>1 sweater</title><g id="sweater"><path id="Sweater-2" data-name="Sweater" d="M123.52,126.16s-2.7-12.19-5.13-16.83a28.21,28.21,0,0,0-12.91-12.11C99.57,94.55,79.53,81.8,79.53,82.53s-2.43,15-7.29,21.8-9,9.6-9.62,9.6S55.13,108.68,52.38,103s-5.56-16.08-5.91-17.15-.76-2.75-.76-2.75S20.5,96.32,18,97.56s-6.26,2.82-8.7,5.87-7,14.88-7.8,18.37-1,4.64-1,4.64Z" fill="#f9f7e1" stroke="#020202" stroke-miterlimit="10" stroke-width="0.75"/><path id="Stripe" d="M85.14,85.53c-3.29-1.94-5.61-3.25-5.61-3,0,.73-2.43,15-7.29,21.8s-9,9.6-9.62,9.6-7-5.64-9.73-11.31a168.47,168.47,0,0,1-6.42-16.75c-.35-1.07-.76-2.75-.76-2.75l-5.39,2.82c-.64.33,4,13,4.59,14.29a57.45,57.45,0,0,0,7.78,12.67,29.12,29.12,0,0,0,10,8.07,87.25,87.25,0,0,0,7.74-6C79.82,107.51,82.91,96.48,85.14,85.53Z" fill="#f44711" stroke="#020202" stroke-miterlimit="10" stroke-width="0.75"/><path id="Stripe-2" data-name="Stripe" d="M85.14,85.53c-2.23,11-5.32,22-14.7,29.46a87.25,87.25,0,0,1-7.74,6,29.12,29.12,0,0,1-10-8.07,57.45,57.45,0,0,1-7.78-12.67c-.57-1.26-5.23-14-4.59-14.29l-5.67,3s3,9.63,4.27,12.23,1.5,4.19,4.79,9.07A57.14,57.14,0,0,0,53.39,121a78.62,78.62,0,0,0,7.78,5.33h4.88a45.35,45.35,0,0,0,12.37-10.5,81.63,81.63,0,0,0,5.74-7.39C87.44,103.19,88.56,96.94,90,91a5,5,0,0,0,.15-2.5Z" fill="#0b0b7f" stroke="#020202" stroke-miterlimit="10" stroke-width="0.75"/></g></svg>