<svg xmlns="http://www.w3.org/2000/svg" viewBox="0 0 125 125"><title>2 sweater</title><g id="sweater-2" data-name="sweater"><path id="Sweater-3" data-name="Sweater" d="M124.09,126.16S121.39,114,119,109.33a28.16,28.16,0,0,0-12.91-12.11C100.14,94.55,80.11,81.8,80.1,82.53s-2.43,15-7.29,21.8-9,9.6-9.62,9.6S55.71,108.68,53,103,47.39,86.94,47,85.87s-.76-2.75-.76-2.75S21.07,96.32,18.55,97.56s-6.26,2.82-8.7,5.87-7,14.88-7.79,18.37S1,126.44,1,126.44Z" fill="#91e3f9" stroke="#020202" stroke-miterlimit="10" stroke-width="0.75"/><path d="M90.17,118.77c-.22,0-.45,0-.67,0a3.53,3.53,0,0,1-1.19-.27l-.23-.13a1.88,1.88,0,0,0-.49-.25,1.35,1.35,0,0,0-.41-.07,2.17,2.17,0,0,0-1,.31l-.19.1a1.69,1.69,0,0,1-.67.29h0a1.27,1.27,0,0,1-.74-.28,1.76,1.76,0,0,0-1-.37,1.38,1.38,0,0,0-.56.19l-.24.12-.21.07a3.08,3.08,0,0,1-.68.07,2.56,2.56,0,0,1-.55-.05,1.73,1.73,0,0,1-.77-.57,1.55,1.55,0,0,1-.29-.68,3.24,3.24,0,0,1,.46-2.76,2.82,2.82,0,0,1,1.56-.79,11.74,11.74,0,0,1,1.17-.16l.72-.08.21,0a4.62,4.62,0,0,1,.73-.07h.13a1.16,1.16,0,0,1,.82.35.54.54,0,0,1,0,.69.85.85,0,0,1-.45.21,5,5,0,0,1-1.1.09h-.37a5.12,5.12,0,0,0-.84.09,3.17,3.17,0,0,0-.41.12.39.39,0,0,0,0,.77,1.27,1.27,0,0,0,.34,0h.21l.37,0c.32,0,.64,0,1,0a4,4,0,0,1,.9.09l.19,0a2.6,2.6,0,0,0,.63.11,2.49,2.49,0,0,0,.72-.16,1.58,1.58,0,0,1,.52-.13.41.41,0,0,1,.16,0,1.26,1.26,0,0,0,.33.11h.1a1.7,1.7,0,0,0,.26,0L91,115.2a.64.64,0,0,1,.2,0c.07,0,.09,0,.1,0a.4.4,0,0,1,.09.15,2.2,2.2,0,0,1,.15.72.12.12,0,0,1-.09.11l-.4.15c-.3.11-.59.23-.9.31a3.06,3.06,0,0,1-.63.12h0l-.24,0-.27,0h-.12c-.28,0-.36.17-.38.29s.12.34.46.47a2.42,2.42,0,0,0,.91.17l.29,0h.12l.25,0a1.44,1.44,0,0,1,.48.14,1.54,1.54,0,0,0,.62.17h0a1.13,1.13,0,0,1-.76.77A2.55,2.55,0,0,1,90.17,118.77Z" fill="#08af2b"/><path d="M85.12,113.57h.1a.93.93,0,0,1,.65.26.31.31,0,0,1,0,.36.64.64,0,0,1-.32.14,5.09,5.09,0,0,1-1,.08h-.38a5.84,5.84,0,0,0-.88.09,4.19,4.19,0,0,0-.47.14.63.63,0,0,0-.45.59v.1a.63.63,0,0,0,.52.55,1.56,1.56,0,0,0,.4,0h.22l.37,0c.32,0,.63,0,.94,0a4.31,4.31,0,0,1,.85.08l.18,0a2.42,2.42,0,0,0,.69.12h.11a2.41,2.41,0,0,0,.69-.17,1.87,1.87,0,0,1,.44-.11h.08l.06,0a1.41,1.41,0,0,0,.31.1h.14a1.3,1.3,0,0,0,.31,0l2.34-.48.1,0h0a1.86,1.86,0,0,1,.13.54l-.32.12c-.31.11-.59.22-.89.3a2.58,2.58,0,0,1-.59.11l-.18,0-.3,0h-.14c-.49.06-.59.37-.6.5-.07.47.44.68.61.75a2.87,2.87,0,0,0,1,.18l.31,0h.13l.22,0h.06a1.07,1.07,0,0,1,.32.12,3.09,3.09,0,0,0,.4.14,1.07,1.07,0,0,1-.48.33,2,2,0,0,1-.64.09c-.21,0-.43,0-.64,0a3,3,0,0,1-1.11-.25,1.32,1.32,0,0,1-.2-.12,3.13,3.13,0,0,0-.55-.27,1.57,1.57,0,0,0-.49-.08,2.43,2.43,0,0,0-1.15.34l-.19.11a1.56,1.56,0,0,1-.62.25,1.07,1.07,0,0,1-.54-.24,2,2,0,0,0-1.16-.41h0a1.4,1.4,0,0,0-.64.23l-.18.09-.13,0-.07,0a2.7,2.7,0,0,1-.63.07,2.74,2.74,0,0,1-.5,0,1.62,1.62,0,0,1-.63-.5,1.35,1.35,0,0,1-.24-.57,3,3,0,0,1,.41-2.54,2.72,2.72,0,0,1,1.42-.71c.37-.07.75-.11,1.15-.15l.73-.08.21,0a4.48,4.48,0,0,1,.7-.07m0-.5a7.93,7.93,0,0,0-1,.1c-.64.09-1.28.11-1.91.24a3.13,3.13,0,0,0-1.69.87,3.3,3.3,0,0,0-.52,3,1.66,1.66,0,0,0,.35.8,2,2,0,0,0,.91.65,2.88,2.88,0,0,0,.59.05,3.05,3.05,0,0,0,.74-.08l.21-.07c.21-.06.49-.29.71-.3h0c.67,0,1,.65,1.66.65h.09a2.54,2.54,0,0,0,1-.41,1.9,1.9,0,0,1,.91-.28,1,1,0,0,1,.34.06,4,4,0,0,1,.67.36,3.74,3.74,0,0,0,1.29.3c.23,0,.46,0,.69,0a2.71,2.71,0,0,0,.8-.11,1.32,1.32,0,0,0,.94-1.06.14.14,0,0,0,0-.11c0-.09-.18-.09-.28-.09-.35,0-.65-.26-1-.3h-.12c-.13,0-.26,0-.39,0l-.27,0a2.2,2.2,0,0,1-.81-.15c-.15-.06-.52-.24-.15-.28H89c.16,0,.32,0,.48,0h0a2.62,2.62,0,0,0,.68-.12c.46-.12.89-.3,1.33-.46a.39.39,0,0,0,.21-.14.33.33,0,0,0,0-.22,2.21,2.21,0,0,0-.17-.8.59.59,0,0,0-.17-.26.43.43,0,0,0-.25-.07,1.07,1.07,0,0,0-.25,0l-2.34.48-.21,0h-.06a1.51,1.51,0,0,1-.3-.1.59.59,0,0,0-.23,0c-.38,0-.77.26-1.17.28h-.07a3.49,3.49,0,0,1-.77-.15,4.31,4.31,0,0,0-1-.09c-.45,0-.9,0-1.35.07h-.18a1.27,1.27,0,0,1-.28,0c-.08,0-.13,0-.14-.14s.06-.13.15-.16a2.59,2.59,0,0,1,.37-.11,5.42,5.42,0,0,1,.8-.08,8.63,8.63,0,0,0,1.52-.1,1.14,1.14,0,0,0,.58-.29.8.8,0,0,0,0-1,1.37,1.37,0,0,0-1-.44Z"/></g></svg>