<svg xmlns="http://www.w3.org/2000/svg" viewBox="0 0 125 125"><title>3 sweater</title><g id="person_4" data-name="person 4"><g id="sweater-4" data-name="sweater"><g id="Sweater-5" data-name="Sweater"><path d="M1.87,126.11a29.41,29.41,0,0,1,.63-5.94C3.23,116.78,7.79,105,10.2,102c2.11-2.64,5.21-4.13,7.69-5.33l.84-.41C21,95.15,40.26,85.05,43.82,83.18c.16.6.4,1.5.62,2.17l.12.4c.55,1.92,2.25,7.78,7.15,10.15a21.57,21.57,0,0,0,8.93,1.55c5.67,0,12.69-1.39,15.58-4.49a16.36,16.36,0,0,0,4.34-11.49c1.41.7,5.44,3.11,9.36,5.44,6,3.58,12.79,7.64,15.88,9a27.59,27.59,0,0,1,12.67,11.88c2.09,4,4.74,15.27,5.36,18Z" fill="#fcfaf7"/><path d="M81.05,82.3c1.82,1,5.38,3.12,8.61,5,6,3.59,12.82,7.65,15.93,9.06A27.12,27.12,0,0,1,118,108.07c1.93,3.68,4.37,13.77,5.18,17.27l-120.84.27A29.56,29.56,0,0,1,3,120.28c.71-3.27,5.28-15,7.6-18,2-2.56,5.08-4,7.51-5.2l.85-.41c2.21-1.09,19.84-10.34,24.55-12.8.14.51.31,1.11.46,1.59,0,.09.07.21.12.38.57,2,2.31,8,7.41,10.46A22.12,22.12,0,0,0,60.64,98c5.78,0,13-1.44,15.94-4.65a16.8,16.8,0,0,0,4.47-11m-1-1.53s0,0,0,0a16.29,16.29,0,0,1-4.2,11.82C73.19,95.47,66.57,97,60.64,97a21.51,21.51,0,0,1-8.72-1.5c-5.15-2.49-6.65-9.19-7-10.25s-.76-2.76-.76-2.76S21,94.58,18.5,95.82s-6.25,2.83-8.69,5.88-7,14.88-7.8,18.37a29.67,29.67,0,0,0-.64,6.54l123.09-.27s-3.11-14.1-5.55-18.74A28.06,28.06,0,0,0,106,95.49c-5.74-2.6-24.84-14.72-25.9-14.72Z"/></g><path id="Sweater-6" data-name="Sweater" d="M80.13,80.81a1.27,1.27,0,0,0,0,.2c-.12,4.66-1.56,9.65-5.29,12.44a17.21,17.21,0,0,1-7,2.75,32.79,32.79,0,0,1-11.17.51,13.38,13.38,0,0,1-8.1-4.26c-2.53-2.83-3.45-6.45-4.33-10-.09-.38-4.76,1.38-4.86,2.45-.07.85.92,2.41,1.24,3.2,1.35,3.34,2.73,7,5.24,9.63a17.4,17.4,0,0,0,10.35,4.87,44.66,44.66,0,0,0,10.14,0c3-.27,6.13-.6,8.86-2.08a22.77,22.77,0,0,0,6.17-5.27C83.61,92.53,84,89,84.76,85.65a4.18,4.18,0,0,0,.15-1.82,3.25,3.25,0,0,0-1-1.58,7,7,0,0,0-3.1-1.74.58.58,0,0,0-.57.07A.45.45,0,0,0,80.13,80.81Z" fill="#fcfaf7" stroke="#000" stroke-miterlimit="10"/><line x1="45.28" y1="86.44" x2="40.91" y2="88.91" fill="#fff" stroke="#000" stroke-miterlimit="10"/><line x1="47.23" y1="91.66" x2="43.69" y2="94.85" fill="#fcfaf7" stroke="#000" stroke-miterlimit="10"/><line x1="51.69" y1="95.02" x2="49.22" y2="100.33" fill="#fcfaf7" stroke="#000" stroke-miterlimit="10"/><line x1="59.33" y1="97.29" x2="58.9" y2="102.81" fill="#fcfaf7" stroke="#000" stroke-miterlimit="10"/><line x1="66.18" y1="96.89" x2="67.88" y2="102.81" fill="#fcfaf7" stroke="#000" stroke-miterlimit="10"/><line x1="73.76" y1="94.3" x2="76.91" y2="99.36" fill="#fcfaf7" stroke="#000" stroke-miterlimit="10"/><line x1="78.04" y1="89.65" x2="82.61" y2="93.25" fill="#fcfaf7" stroke="#000" stroke-miterlimit="10"/><line x1="80.33" y1="84.22" x2="84.59" y2="86.44" fill="#fcfaf7" stroke="#000" stroke-miterlimit="10"/><g id="Layer_37" data-name="Layer 37"><path d="M69.36,101.88s2.62,7.71,1.47,10.37a34.54,34.54,0,0,1-4.26,6.39" fill="none" stroke="#000" stroke-miterlimit="10"/><path d="M55.1,101.88s-3.59,8.18-1.46,11.5,8.52,9,8.68,12.72" fill="none" stroke="#000" stroke-miterlimit="10"/><path d="M62.91,102.85s-1.75,4.75-.27,8.6c1,2.69,2.87,5,4.46,7.33s3.47,4,4,7.71" fill="none" stroke="#000" stroke-miterlimit="10"/><path d="M62.32,104.74a16.37,16.37,0,0,1,1.15,4.19,6,6,0,0,1-.57,3.16" fill="none" stroke="#000" stroke-miterlimit="10"/><path d="M58.55,119.1a15.29,15.29,0,0,0-3.94,7.17" fill="none" stroke="#000" stroke-miterlimit="10"/></g></g></g></svg>