<svg xmlns="http://www.w3.org/2000/svg" viewBox="0 0 125 125"><title>1 hair</title><g id="hair"><path d="M80.48,23.5a4.19,4.19,0,0,0-.5,0c.32.24.54-.41.42-.78-1.66-5.06-6.15-8.88-11.18-10.6C63.83,10.31,56.07,9.8,51.15,13a25.55,25.55,0,0,0-10,12.64c-.6,1.7-1,3.46-1.78,5.1a7.93,7.93,0,0,1-3.51,4,4.31,4.31,0,0,1-5-.71,6.14,6.14,0,0,0,7.68,7.89l.14,3.19A6.1,6.1,0,0,1,42,48.44c1.13-2,.77-4.54,1.77-6.61.84-1.74,2.63-3.1,2.77-5,.2-2.84-3.38-5.33,3.27-9a1.22,1.22,0,0,1,.48-.15c2.25-.1,4.22,1.35,6.21,2.41a17.66,17.66,0,0,0,11,2A14.51,14.51,0,0,0,77,26.3a16.81,16.81,0,0,0-.68,7.41c.41,2.48,1.62,4.75,2.61,7.06.84,2,1.78,4.16,1.73,6.28a.31.31,0,0,0,.57.17c.3-.52.53-1.08.81-1.65a14.6,14.6,0,0,0,.92-2.29,20.72,20.72,0,0,0-.72-13.76,1.68,1.68,0,0,1-.2-.81c.08-.69,1-1,1.65-.66a3.35,3.35,0,0,1,1.27,1.61,4.6,4.6,0,0,0-4.43-6.16Z" fill="#f7de48" stroke="#020202" stroke-miterlimit="10" stroke-width="0.75"/></g></svg>