<svg xmlns="http://www.w3.org/2000/svg" viewBox="0 0 125 125"><title>2 hair</title><g id="hair-2" data-name="hair"><path d="M44.05,44.93s-1.28,6.14-2,4.44-.6-2.73-1.2-4S38.51,40.58,38.68,40a71,71,0,0,0,0-7.33c-.07-2.22-.58-7,.36-9a21.76,21.76,0,0,1,4-5.2c.42-.26,1.36-.77,1.36-.77A5.63,5.63,0,0,1,47,12.94c2.81-1.79,9.72-5.23,17-5.47S79.79,14.05,81.33,16a12.33,12.33,0,0,1,2,4.52s2,2.65,2,3.5a17.88,17.88,0,0,1,0,2.38c-.15,2.81,2.65,9.18-.17,11.53-.51.42-.94.85-.94.85a34,34,0,0,1-.93,5.2c-.52,1.37-.77,3.58-1.62,3.93a7.14,7.14,0,0,0-1.37.7c.13-3,.4-6,.37-9s-.08-4.72-2.33-6.75a6.56,6.56,0,0,0-4.86-1.45c-2.56.09-6.93,1.71-8.47-.25s.62-4.1-2.11-4.44c-2.42-.3-5,.48-7.39.58-1.48.06-4.13,0-5.41-.92l-.68-.51a13.49,13.49,0,0,1-1.28,3.41,10,10,0,0,0-1.36,4c-.26,1.53-1.45,1.77-2,3.1S44.48,43.13,44.05,44.93Z" fill="#23211b" stroke="#000" stroke-miterlimit="10" stroke-width="0.75"/></g></svg>