<svg xmlns="http://www.w3.org/2000/svg" viewBox="0 0 125 125"><title>3 hair</title><g id="hair-3" data-name="hair"><path d="M48,18s1.72-7.3,5.84-9.57c5.06-2.8,9.71-1.1,14.27,1.23a40.58,40.58,0,0,1,10,7.12c3.34,3,7.43,8.18,7.65,9.07a8.44,8.44,0,0,1,0,2.89c-.11.56-1.2,1.39-1.2,1.39s.71,5.94-.78,8.46c-2,3.39-2.11,8.28-2.45,9.51s-.77.77-.77.62.09-10.3-.28-11.52-1.28-2.45-.84-3.45a15.12,15.12,0,0,0,.61-3.56s-4.56-3.39-5.56-4.09-4.5-2.64-6.23-2.7a15.75,15.75,0,0,0-5.39.67c-1.95.61-2.37,1.83-2.93,1.78s-3.19-2.11-6.69-2.22-5.4-.06-6.85,1.44-2.83,3.06-2.61,5.79.12,3.39,0,3.89a10.34,10.34,0,0,0-.87,2.95c0,1.05.11,11.12,0,11.46s-.5-.12-.78-1.06-.72-5.79-.83-6.73-2.62-6.57-2.78-9.12-.89-5.9.39-9.18,2.45-4.92,3.5-5.75S47,17.35,48,18Z" fill="#f99c16" stroke="#000" stroke-miterlimit="10" stroke-width="0.75"/></g></svg>